<?xml version="1.0" encoding="utf-8"?>
<svg width="70" height="70" viewBox="0 0 70 70" fill="none" xmlns="http://www.w3.org/2000/svg">
  <path d="M32.1663 2.31822C33.8796 1.32907 35.9904 1.32907 37.7037 2.31821L62.127 16.4191C63.8403 17.4082 64.8957 19.2362 64.8957 21.2145V49.4162C64.8957 51.3945 63.8403 53.2225 62.127 54.2117L37.7037 68.3125C35.9904 69.3017 33.8796 69.3017 32.1663 68.3125L7.74296 54.2117C6.02971 53.2225 4.97429 51.3945 4.97429 49.4162V21.2145C4.97429 19.2362 6.0297 17.4082 7.74295 16.4191L32.1663 2.31822Z" stroke="url(#paint0_linear_666_80)" stroke-opacity="0.3" stroke-width="1.10747"/>
  <path d="M33.5617 12.9031C34.7542 12.2146 36.2233 12.2146 37.4157 12.9031L54.4144 22.7173C55.6068 23.4057 56.3414 24.678 56.3414 26.0549V45.6833C56.3414 47.0602 55.6068 48.3325 54.4144 49.0209L37.4157 58.8351C36.2233 59.5235 34.7542 59.5236 33.5617 58.8351L16.5631 49.0209C15.3706 48.3325 14.6361 47.0602 14.6361 45.6833V26.0549C14.6361 24.678 15.3706 23.4057 16.5631 22.7173L33.5617 12.9031Z" fill="url(#paint1_linear_666_80)" fill-opacity="0.2" style="stroke-width: 0px; stroke: rgb(178, 77, 77);"/>
  <defs>
    <linearGradient id="paint0_linear_666_80" x1="0.339355" y1="0.719727" x2="69.5306" y2="69.911" gradientUnits="userSpaceOnUse">
      <stop stop-color="white"/>
      <stop offset="0.7656" stop-color="white" stop-opacity="0"/>
    </linearGradient>
    <linearGradient id="paint1_linear_666_80" x1="11.4102" y1="11.7905" x2="59.5673" y2="59.9477" gradientUnits="userSpaceOnUse">
      <stop stop-color="white"/>
      <stop offset="0.8281" stop-color="white" stop-opacity="0"/>
    </linearGradient>
  </defs>
  <path fill-rule="evenodd" clip-rule="evenodd" fill="#EBE9DC" d="M 35.752 58.038 L 36.199 56.888 L 36.293 58.25 L 35.752 58.038 Z" style=""/>
  <path fill="#F7A80D" d="M 27.741 41.932 L 24.322 43.4 L 27.489 44.753 L 31.159 43.4 L 27.741 41.932 Z M 22.602 43.766 L 22.486 50.374 L 27.489 52.578 L 27.489 45.719 L 22.602 43.766 Z M 32.882 43.766 L 28.359 45.49 L 28.359 51.958 L 32.882 50.125 L 32.882 43.766 Z M 38.275 23.206 L 34.83 24.675 L 38.022 26.029 L 41.693 24.675 L 38.275 23.206 Z M 33.501 25.156 L 33.501 31.765 L 37.77 33.005 L 37.906 26.993 L 33.501 25.156 Z M 43.047 25.524 L 39.009 27.245 L 39.009 33.74 L 43.047 31.902 L 43.047 25.524 Z M 22.109 32.508 L 18.69 33.976 L 21.855 35.329 L 25.526 33.976 L 22.109 32.508 Z M 16.966 34.345 L 16.852 40.952 L 21.855 43.155 L 21.855 36.296 L 16.966 34.345 Z M 27.249 34.345 L 22.728 36.064 L 22.728 42.535 L 27.249 40.699 L 27.249 34.345 Z M 33.123 32.263 L 29.703 33.731 L 32.87 35.086 L 36.541 33.731 L 33.123 32.263 Z M 27.984 34.099 L 27.868 40.709 L 32.87 42.911 L 32.87 36.048 L 27.984 34.099 Z M 38.262 34.099 L 33.742 35.82 L 33.742 42.292 L 38.262 40.455 L 38.262 34.099 Z M 49.033 23.206 L 45.614 24.675 L 48.779 26.029 L 52.452 24.675 L 49.033 23.206 Z M 43.893 25.043 L 43.777 31.651 L 48.779 33.854 L 48.779 26.993 L 43.893 25.043 Z M 54.173 25.043 L 49.652 26.763 L 49.652 33.235 L 54.173 31.399 L 54.173 25.043 Z" style=""/>
</svg>