<?xml version="1.0" encoding="utf-8"?>
<svg width="70" height="70" viewBox="0 0 70 70" fill="none" xmlns="http://www.w3.org/2000/svg">
  <path d="M32.1663 2.31822C33.8796 1.32907 35.9904 1.32907 37.7037 2.31821L62.127 16.4191C63.8403 17.4082 64.8957 19.2362 64.8957 21.2145V49.4162C64.8957 51.3945 63.8403 53.2225 62.127 54.2117L37.7037 68.3125C35.9904 69.3017 33.8796 69.3017 32.1663 68.3125L7.74296 54.2117C6.02971 53.2225 4.97429 51.3945 4.97429 49.4162V21.2145C4.97429 19.2362 6.0297 17.4082 7.74295 16.4191L32.1663 2.31822Z" stroke="url(#paint0_linear_666_80)" stroke-opacity="0.3" stroke-width="1.10747"/>
  <path d="M33.5617 12.9031C34.7542 12.2146 36.2233 12.2146 37.4157 12.9031L54.4144 22.7173C55.6068 23.4057 56.3414 24.678 56.3414 26.0549V45.6833C56.3414 47.0602 55.6068 48.3325 54.4144 49.0209L37.4157 58.8351C36.2233 59.5235 34.7542 59.5236 33.5617 58.8351L16.5631 49.0209C15.3706 48.3325 14.6361 47.0602 14.6361 45.6833V26.0549C14.6361 24.678 15.3706 23.4057 16.5631 22.7173L33.5617 12.9031Z" fill="url(#paint1_linear_666_80)" fill-opacity="0.2" style="stroke-width: 0px; stroke: rgb(178, 77, 77);"/>
  <defs>
    <linearGradient id="paint0_linear_666_80" x1="0.339355" y1="0.719727" x2="69.5306" y2="69.911" gradientUnits="userSpaceOnUse">
      <stop stop-color="white"/>
      <stop offset="0.7656" stop-color="white" stop-opacity="0"/>
    </linearGradient>
    <linearGradient id="paint1_linear_666_80" x1="11.4102" y1="11.7905" x2="59.5673" y2="59.9477" gradientUnits="userSpaceOnUse">
      <stop stop-color="white"/>
      <stop offset="0.8281" stop-color="white" stop-opacity="0"/>
    </linearGradient>
  </defs>
  <path fill-rule="evenodd" clip-rule="evenodd" fill="#4FAA41" d="M 35.671 37.243 L 35.652 37.24 L 35.633 37.243 L 35.677 37.088 L 35.671 37.243 Z" style=""/>
  <path d="M30.2 45.9h24.1v1.9H32.4v14.4H53v1.9H32.4v15.8h22.2v1.9H30.2V45.9zm26.3 0h2.6l11.4 15.8L82 45.9l15.8-20-26 37.5 13.4 18.4h-2.7L70.4 65 58.2 81.8h-2.6l13.5-18.4-12.6-17.5zm29.7 1.9v-1.9h27.5v1.9H101v34h-2.2v-34H86.2zM0 45.9h2.7l38.2 56.8-15.8-20.9L2.3 48.6l-.1 33.2H0zm113.5 33.4c.5 0 .8-.3.8-.8s-.3-.8-.8-.8-.8.3-.8.8.4.8.8.8zm2.2-2.1c0 1.3 1 2.2 2.4 2.2 1.5 0 2.4-.9 2.4-2.5v-5.5h-1.2v5.5c0 .9-.4 1.3-1.2 1.3-.7 0-1.2-.4-1.2-1.1h-1.2zm6.3-.1c.1 1.4 1.2 2.3 3 2.3s3-.9 3-2.4c0-1.2-.7-1.8-2.2-2.2l-.9-.2c-1-.2-1.4-.6-1.4-1.1 0-.7.6-1.2 1.6-1.2.9 0 1.5.4 1.6 1.2h1.2c-.1-1.3-1.2-2.2-2.8-2.2-1.7 0-2.8.9-2.8 2.3 0 1.1.6 1.8 2 2.1l1 .2c1 .2 1.5.6 1.5 1.2 0 .7-.7 1.2-1.7 1.2s-1.8-.5-1.9-1.2H122z" transform="matrix(1, 0, 0, 1, 6.784754, -38.891429)"/>
  <path d="M30.2 45.9h24.1v1.9H32.4v14.4H53v1.9H32.4v15.8h22.2v1.9H30.2V45.9zm26.3 0h2.6l11.4 15.8L82 45.9l15.8-20-26 37.5 13.4 18.4h-2.7L70.4 65 58.2 81.8h-2.6l13.5-18.4-12.6-17.5zm29.7 1.9v-1.9h27.5v1.9H101v34h-2.2v-34H86.2zM0 45.9h2.7l38.2 56.8-15.8-20.9L2.3 48.6l-.1 33.2H0zm113.5 33.4c.5 0 .8-.3.8-.8s-.3-.8-.8-.8-.8.3-.8.8.4.8.8.8zm2.2-2.1c0 1.3 1 2.2 2.4 2.2 1.5 0 2.4-.9 2.4-2.5v-5.5h-1.2v5.5c0 .9-.4 1.3-1.2 1.3-.7 0-1.2-.4-1.2-1.1h-1.2zm6.3-.1c.1 1.4 1.2 2.3 3 2.3s3-.9 3-2.4c0-1.2-.7-1.8-2.2-2.2l-.9-.2c-1-.2-1.4-.6-1.4-1.1 0-.7.6-1.2 1.6-1.2.9 0 1.5.4 1.6 1.2h1.2c-.1-1.3-1.2-2.2-2.8-2.2-1.7 0-2.8.9-2.8 2.3 0 1.1.6 1.8 2 2.1l1 .2c1 .2 1.5.6 1.5 1.2 0 .7-.7 1.2-1.7 1.2s-1.8-.5-1.9-1.2H122z" transform="matrix(1, 0, 0, 1, 6.784754, -38.891429)"/>
  <path d="M 62.493 47.067 C 53.589 47.067 46.35 54.306 46.35 63.211 C 46.35 72.115 53.589 79.354 62.493 79.354 C 65.319 79.354 67.967 78.622 70.263 77.361 L 58.559 61.016 L 58.559 70.248 L 56.843 70.248 L 56.843 57.611 L 58.559 57.611 L 71.297 76.731 C 75.711 73.855 78.637 68.886 78.637 63.211 C 78.637 54.306 71.398 47.067 62.493 47.067 Z M 68.068 68.407 L 66.176 65.556 L 66.176 57.611 L 68.068 57.611 L 68.068 68.407 Z" style="" transform="matrix(1, 0, 0, 1, 8.291255, -29.954393)"/>
  <path d="M 86.598 -32.488 C 78.891 -32.488 72.626 -26.223 72.626 -18.516 C 72.626 -10.81 78.891 -4.544 86.598 -4.544 C 94.304 -4.544 100.57 -10.81 100.57 -18.516 C 100.57 -26.223 94.304 -32.488 86.598 -32.488 Z M 93.737 -7.513 L 83.192 -23.363 L 81.707 -23.363 L 81.707 -12.425 L 83.192 -12.425 L 83.192 -20.415 L 92.841 -6.989 C 90.986 -5.985 88.868 -5.417 86.598 -5.417 C 79.35 -5.396 73.477 -11.268 73.477 -18.516 C 73.477 -25.764 79.35 -31.637 86.598 -31.637 C 93.846 -31.637 99.718 -25.764 99.718 -18.516 C 99.718 -13.91 97.339 -9.849 93.737 -7.513 Z" style=""/>
  <path d="M 89.785 -16.486 L 91.422 -14.019 L 91.422 -23.363 L 89.785 -23.363 L 89.785 -16.486 Z" style=""/>
  <path d="m120.81 80.561h96.568v7.676h-87.716v57.767h82.486v7.675h-82.486v63.423h88.722v7.675h-97.574zm105.22 0h10.26l45.467 63.423 46.473-63.424 63.211-80.56-103.85 150.65 53.515 74.127h-10.663l-48.686-67.462-48.888 67.462h-10.461l53.917-74.128zm118.898 7.676v-7.677h110.048v7.676h-50.699v136.54h-8.852v-136.539zm-344.928-7.677h11.065l152.58 228.323-63.053-84.107-91.338-133.308-.402 133.31h-8.852zm454.084 134.224c-1.809 0-3.165-1.4-3.165-3.212 0-1.81 1.356-3.212 3.165-3.212 1.83 0 3.165 1.401 3.165 3.212s-1.335 3.212-3.165 3.212zm8.698-8.45h4.737c.064 2.565 1.937 4.29 4.693 4.29 3.079 0 4.823-1.854 4.823-5.325v-21.99h4.823v22.011c0 6.252-3.617 9.853-9.603 9.853-5.62 0-9.473-3.493-9.473-8.84zm25.384-.28h4.78c.409 2.953 3.294 4.828 7.45 4.828 3.875 0 6.717-2.005 6.717-4.764 0-2.371-1.809-3.794-5.921-4.764l-4.005-.97c-5.62-1.316-8.181-4.032-8.181-8.602 0-5.54 4.521-9.227 11.303-9.227 6.308 0 10.916 3.686 11.196 8.925h-4.694c-.452-2.867-2.95-4.657-6.567-4.657-3.81 0-6.35 1.833-6.35 4.635 0 2.22 1.635 3.493 5.683 4.441l3.423.841c6.373 1.488 9 4.075 9 8.753 0 5.95-4.607 9.68-11.97 9.68-6.89 0-11.52-3.558-11.864-9.12z" transform="matrix(1, 0, 0, 1, -185.215307, -166.52669)"/>
  <path fill="#C4473A" d="M 32.286 37.48 L 39.018 37.48 L 35.44 29.997 L 32.286 37.48 Z M 35.452 19.269 L 18.315 25.3 L 21.023 47.752 L 35.47 55.692 L 49.992 47.645 L 52.699 25.194 L 35.452 19.269 Z M 30.892 40.662 L 28.791 45.919 L 24.864 45.934 L 35.45 22.488 L 35.43 22.443 L 35.412 22.443 L 35.412 22.405 L 35.43 22.443 L 35.472 22.443 L 35.508 22.363 L 35.508 22.443 L 35.47 22.443 L 35.45 22.488 L 46.495 46.032 L 42.714 45.95 L 40.388 40.576 L 35.422 40.6" style=""/>
</svg>