<?xml version="1.0" encoding="utf-8"?>
<svg width="70" height="70" viewBox="0 0 70 70" fill="none" xmlns="http://www.w3.org/2000/svg">
  <path d="M32.1663 2.31822C33.8796 1.32907 35.9904 1.32907 37.7037 2.31821L62.127 16.4191C63.8403 17.4082 64.8957 19.2362 64.8957 21.2145V49.4162C64.8957 51.3945 63.8403 53.2225 62.127 54.2117L37.7037 68.3125C35.9904 69.3017 33.8796 69.3017 32.1663 68.3125L7.74296 54.2117C6.02971 53.2225 4.97429 51.3945 4.97429 49.4162V21.2145C4.97429 19.2362 6.0297 17.4082 7.74295 16.4191L32.1663 2.31822Z" stroke="url(#paint0_linear_666_80)" stroke-opacity="0.3" stroke-width="1.10747"/>
  <path d="M33.5617 12.9031C34.7542 12.2146 36.2233 12.2146 37.4157 12.9031L54.4144 22.7173C55.6068 23.4057 56.3414 24.678 56.3414 26.0549V45.6833C56.3414 47.0602 55.6068 48.3325 54.4144 49.0209L37.4157 58.8351C36.2233 59.5235 34.7542 59.5236 33.5617 58.8351L16.5631 49.0209C15.3706 48.3325 14.6361 47.0602 14.6361 45.6833V26.0549C14.6361 24.678 15.3706 23.4057 16.5631 22.7173L33.5617 12.9031Z" fill="url(#paint1_linear_666_80)" fill-opacity="0.2" style="stroke-width: 0px; stroke: rgb(178, 77, 77);"/>
  <defs>
    <linearGradient id="paint0_linear_666_80" x1="0.339355" y1="0.719727" x2="69.5306" y2="69.911" gradientUnits="userSpaceOnUse">
      <stop stop-color="white"/>
      <stop offset="0.7656" stop-color="white" stop-opacity="0"/>
    </linearGradient>
    <linearGradient id="paint1_linear_666_80" x1="11.4102" y1="11.7905" x2="59.5673" y2="59.9477" gradientUnits="userSpaceOnUse">
      <stop stop-color="white"/>
      <stop offset="0.8281" stop-color="white" stop-opacity="0"/>
    </linearGradient>
  </defs>
  <path d="M30.2 45.9h24.1v1.9H32.4v14.4H53v1.9H32.4v15.8h22.2v1.9H30.2V45.9zm26.3 0h2.6l11.4 15.8L82 45.9l15.8-20-26 37.5 13.4 18.4h-2.7L70.4 65 58.2 81.8h-2.6l13.5-18.4-12.6-17.5zm29.7 1.9v-1.9h27.5v1.9H101v34h-2.2v-34H86.2zM0 45.9h2.7l38.2 56.8-15.8-20.9L2.3 48.6l-.1 33.2H0zm113.5 33.4c.5 0 .8-.3.8-.8s-.3-.8-.8-.8-.8.3-.8.8.4.8.8.8zm2.2-2.1c0 1.3 1 2.2 2.4 2.2 1.5 0 2.4-.9 2.4-2.5v-5.5h-1.2v5.5c0 .9-.4 1.3-1.2 1.3-.7 0-1.2-.4-1.2-1.1h-1.2zm6.3-.1c.1 1.4 1.2 2.3 3 2.3s3-.9 3-2.4c0-1.2-.7-1.8-2.2-2.2l-.9-.2c-1-.2-1.4-.6-1.4-1.1 0-.7.6-1.2 1.6-1.2.9 0 1.5.4 1.6 1.2h1.2c-.1-1.3-1.2-2.2-2.8-2.2-1.7 0-2.8.9-2.8 2.3 0 1.1.6 1.8 2 2.1l1 .2c1 .2 1.5.6 1.5 1.2 0 .7-.7 1.2-1.7 1.2s-1.8-.5-1.9-1.2H122z" transform="matrix(1, 0, 0, 1, 6.784754, -38.891429)"/>
  <path d="M30.2 45.9h24.1v1.9H32.4v14.4H53v1.9H32.4v15.8h22.2v1.9H30.2V45.9zm26.3 0h2.6l11.4 15.8L82 45.9l15.8-20-26 37.5 13.4 18.4h-2.7L70.4 65 58.2 81.8h-2.6l13.5-18.4-12.6-17.5zm29.7 1.9v-1.9h27.5v1.9H101v34h-2.2v-34H86.2zM0 45.9h2.7l38.2 56.8-15.8-20.9L2.3 48.6l-.1 33.2H0zm113.5 33.4c.5 0 .8-.3.8-.8s-.3-.8-.8-.8-.8.3-.8.8.4.8.8.8zm2.2-2.1c0 1.3 1 2.2 2.4 2.2 1.5 0 2.4-.9 2.4-2.5v-5.5h-1.2v5.5c0 .9-.4 1.3-1.2 1.3-.7 0-1.2-.4-1.2-1.1h-1.2zm6.3-.1c.1 1.4 1.2 2.3 3 2.3s3-.9 3-2.4c0-1.2-.7-1.8-2.2-2.2l-.9-.2c-1-.2-1.4-.6-1.4-1.1 0-.7.6-1.2 1.6-1.2.9 0 1.5.4 1.6 1.2h1.2c-.1-1.3-1.2-2.2-2.8-2.2-1.7 0-2.8.9-2.8 2.3 0 1.1.6 1.8 2 2.1l1 .2c1 .2 1.5.6 1.5 1.2 0 .7-.7 1.2-1.7 1.2s-1.8-.5-1.9-1.2H122z" transform="matrix(1, 0, 0, 1, 6.784754, -38.891429)"/>
  <path d="M 62.493 47.067 C 53.589 47.067 46.35 54.306 46.35 63.211 C 46.35 72.115 53.589 79.354 62.493 79.354 C 65.319 79.354 67.967 78.622 70.263 77.361 L 58.559 61.016 L 58.559 70.248 L 56.843 70.248 L 56.843 57.611 L 58.559 57.611 L 71.297 76.731 C 75.711 73.855 78.637 68.886 78.637 63.211 C 78.637 54.306 71.398 47.067 62.493 47.067 Z M 68.068 68.407 L 66.176 65.556 L 66.176 57.611 L 68.068 57.611 L 68.068 68.407 Z" style="" transform="matrix(1, 0, 0, 1, 8.291255, -29.954393)"/>
  <path d="M 86.598 -32.488 C 78.891 -32.488 72.626 -26.223 72.626 -18.516 C 72.626 -10.81 78.891 -4.544 86.598 -4.544 C 94.304 -4.544 100.57 -10.81 100.57 -18.516 C 100.57 -26.223 94.304 -32.488 86.598 -32.488 Z M 93.737 -7.513 L 83.192 -23.363 L 81.707 -23.363 L 81.707 -12.425 L 83.192 -12.425 L 83.192 -20.415 L 92.841 -6.989 C 90.986 -5.985 88.868 -5.417 86.598 -5.417 C 79.35 -5.396 73.477 -11.268 73.477 -18.516 C 73.477 -25.764 79.35 -31.637 86.598 -31.637 C 93.846 -31.637 99.718 -25.764 99.718 -18.516 C 99.718 -13.91 97.339 -9.849 93.737 -7.513 Z" style=""/>
  <path d="M 89.785 -16.486 L 91.422 -14.019 L 91.422 -23.363 L 89.785 -23.363 L 89.785 -16.486 Z" style=""/>
  <path d="m120.81 80.561h96.568v7.676h-87.716v57.767h82.486v7.675h-82.486v63.423h88.722v7.675h-97.574zm105.22 0h10.26l45.467 63.423 46.473-63.424 63.211-80.56-103.85 150.65 53.515 74.127h-10.663l-48.686-67.462-48.888 67.462h-10.461l53.917-74.128zm118.898 7.676v-7.677h110.048v7.676h-50.699v136.54h-8.852v-136.539zm-344.928-7.677h11.065l152.58 228.323-63.053-84.107-91.338-133.308-.402 133.31h-8.852zm454.084 134.224c-1.809 0-3.165-1.4-3.165-3.212 0-1.81 1.356-3.212 3.165-3.212 1.83 0 3.165 1.401 3.165 3.212s-1.335 3.212-3.165 3.212zm8.698-8.45h4.737c.064 2.565 1.937 4.29 4.693 4.29 3.079 0 4.823-1.854 4.823-5.325v-21.99h4.823v22.011c0 6.252-3.617 9.853-9.603 9.853-5.62 0-9.473-3.493-9.473-8.84zm25.384-.28h4.78c.409 2.953 3.294 4.828 7.45 4.828 3.875 0 6.717-2.005 6.717-4.764 0-2.371-1.809-3.794-5.921-4.764l-4.005-.97c-5.62-1.316-8.181-4.032-8.181-8.602 0-5.54 4.521-9.227 11.303-9.227 6.308 0 10.916 3.686 11.196 8.925h-4.694c-.452-2.867-2.95-4.657-6.567-4.657-3.81 0-6.35 1.833-6.35 4.635 0 2.22 1.635 3.493 5.683 4.441l3.423.841c6.373 1.488 9 4.075 9 8.753 0 5.95-4.607 9.68-11.97 9.68-6.89 0-11.52-3.558-11.864-9.12z" transform="matrix(1, 0, 0, 1, -185.215307, -166.52669)"/>
  <path d="M126.67 98.44c-4.56 1.16-7.38.05-9.91-3.75-5.68-8.51-11.95-16.63-18-24.9-.78-1.07-1.59-2.12-2.6-3.45C89 76 81.85 85.2 75.14 94.77c-2.4 3.42-4.92 4.91-9.4 3.7l26.92-36.13L67.6 29.71c4.31-.84 7.29-.41 9.93 3.45 5.83 8.52 12.26 16.63 18.67 25.21 6.45-8.55 12.8-16.67 18.8-25.11 2.41-3.42 5-4.72 9.33-3.46-3.28 4.35-6.49 8.63-9.72 12.88-4.36 5.73-8.64 11.53-13.16 17.14-1.61 2-1.35 3.3.09 5.19C109.9 76 118.16 87.1 126.67 98.44zM1.33 61.74c.72-3.61 1.2-7.29 2.2-10.83 6-21.43 30.6-30.34 47.5-17.06C60.93 41.64 63.39 52.62 62.9 65H7.1c-.84 22.21 15.15 35.62 35.53 28.78 7.15-2.4 11.36-8 13.47-15 1.07-3.51 2.84-4.06 6.14-3.06-1.69 8.76-5.52 16.08-13.52 20.66-12 6.86-29.13 4.64-38.14-4.89C5.26 85.89 3 78.92 2 71.39c-.15-1.2-.46-2.38-.7-3.57q.03-3.04.03-6.08zm5.87-1.49h50.43c-.33-16.06-10.33-27.47-24-27.57-15-.12-25.78 11.02-26.43 27.57z" transform="matrix(1, 0, 0, 1, 6.799757, -32.093052)"/>
  <path d="M40.53 77.82V50.74H42V55a5.57 5.57 0 00.48-.6 7.28 7.28 0 016.64-4.12c3.35-.1 6.07 1.14 7.67 4.12a13.24 13.24 0 01.32 12.14c-1.49 3.34-5.17 5-9.11 4.39a7.37 7.37 0 01-5.88-3.88v10.77zM42 60.32c.13 1.32.18 2.26.33 3.18.58 3.62 2.72 5.77 6.08 6.16A6.91 6.91 0 0056 65.27a11.77 11.77 0 00-.26-9.68 6.77 6.77 0 00-7.13-3.94 6.59 6.59 0 00-5.89 4.87 33.4 33.4 0 00-.72 3.8zM88.41 64a7.92 7.92 0 01-7.74 7c-6.16.31-9.05-3.78-9.51-8.5a13.62 13.62 0 011.2-7.5 8.37 8.37 0 018.71-4.67 8 8 0 017.1 6.09 41.09 41.09 0 01.69 4.5H72.67c-.3 4.28 2 7.72 5.26 8.55 4.06 1 7.53-.76 8.79-4.62.28-.99.79-1.13 1.69-.85zm-15.74-4.45h14.47c-.09-4.56-2.93-7.86-6.78-7.91-4.36-.07-7.5 3.11-7.69 7.91zM91.39 64.1h1.42a5.69 5.69 0 003.34 4.9 8.73 8.73 0 007.58-.2 3.41 3.41 0 002-3.35 3.09 3.09 0 00-2.08-3.09c-1.56-.58-3.22-.9-4.81-1.41A35.25 35.25 0 0194 59.18c-2.56-1.25-2.72-6.12.18-7.66a10.21 10.21 0 019.76-.15 5.14 5.14 0 012.6 5.24h-1.22c0-.06-.11-.11-.11-.17-.15-3.89-3.41-5.09-6.91-4.75a9.17 9.17 0 00-3 .91 3 3 0 00-1.74 3 3 3 0 002 2.82c1.54.56 3.15.92 4.73 1.36 1.27.35 2.59.58 3.82 1a4.51 4.51 0 013.1 4.07 4.81 4.81 0 01-2.59 5c-3.34 1.89-8.84 1.39-11.29-1a6.67 6.67 0 01-1.94-4.75zM125.21 56.61h-1.33c0-.18-.07-.34-.09-.49a4.35 4.35 0 00-3.54-4.18 8.73 8.73 0 00-5.61.27 3.41 3.41 0 00-2.47 3.25 3.14 3.14 0 002.4 3.16c2 .62 4.05 1 6.08 1.56a17 17 0 011.94.59 5 5 0 01.27 9.31 11.13 11.13 0 01-9 .09 6.24 6.24 0 01-3.76-6.06h1.3a7.29 7.29 0 0011.1 4.64 3.57 3.57 0 001.92-3.34 3.09 3.09 0 00-2.11-3.07c-1.56-.58-3.22-.89-4.81-1.4a35.43 35.43 0 01-4.87-1.75c-2.5-1.23-2.7-6.06.15-7.6a10.07 10.07 0 019.92-.11 5.23 5.23 0 012.51 5.13zM38.1 70.51a2.29 2.29 0 01-2.84-1.08c-1.63-2.44-3.43-4.77-5.16-7.15l-.75-1c-2.06 2.76-4.12 5.41-6 8.16a2.2 2.2 0 01-2.7 1.06l7.73-10.37-7.19-9.37a2.39 2.39 0 012.85 1c1.67 2.44 3.52 4.77 5.36 7.24 1.85-2.45 3.68-4.79 5.39-7.21a2.15 2.15 0 012.68-1l-2.79 3.7c-1.25 1.65-2.48 3.31-3.78 4.92a1 1 0 000 1.49c2.39 3.17 4.76 6.35 7.2 9.61zM70.92 50.66v1.4a7.25 7.25 0 00-7.72 7.49v11h-1.43V50.74h1.4v4.06c1.73-2.96 4.4-4.06 7.75-4.14zM2.13 60c.21-1 .34-2.09.63-3.11 1.73-6.15 8.78-8.71 13.63-4.9 2.84 2.23 3.55 5.39 3.41 8.95h-16c-.26 6.36 4.33 10.2 10.2 8.24a6.09 6.09 0 003.87-4.31c.31-1 .81-1.17 1.76-.88a8.12 8.12 0 01-3.88 5.93 9.4 9.4 0 01-10.95-1.4 9.85 9.85 0 01-2.46-5.78c0-.34-.13-.68-.2-1q-.01-.89-.01-1.74zm1.69-.43h14.47c-.09-4.61-3-7.88-6.88-7.91-4.32-.06-7.41 3.14-7.6 7.89z" transform="matrix(1, 0, 0, 1, 6.766907, -42.580943)"/>
  <path fill="#F0DB4F" d="M 21.22 21.346 L 49.801 21.346 L 49.801 49.927 L 21.22 49.927 L 21.22 21.346 Z" style=""/>
  <path fill="#323330" d="M 47.462 43.112 C 47.253 41.806 46.403 40.711 43.883 39.69 C 43.009 39.288 42.033 39.001 41.743 38.337 C 41.638 37.952 41.626 37.734 41.69 37.5 C 41.877 36.743 42.783 36.506 43.501 36.723 C 43.963 36.879 44.4 37.235 44.664 37.801 C 45.897 37.004 45.893 37.008 46.756 36.459 C 46.439 35.97 46.273 35.745 46.065 35.537 C 45.323 34.707 44.312 34.281 42.697 34.313 L 41.854 34.423 C 41.049 34.626 40.279 35.05 39.828 35.618 C 38.475 37.152 38.861 39.839 40.506 40.944 C 42.128 42.163 44.511 42.44 44.817 43.578 C 45.112 44.973 43.792 45.424 42.479 45.261 C 41.512 45.062 40.973 44.57 40.392 43.676 C 39.322 44.294 39.322 44.294 38.222 44.927 C 38.483 45.499 38.757 45.757 39.194 46.251 C 41.264 48.351 46.446 48.247 47.376 45.07 C 47.413 44.96 47.664 44.232 47.462 43.112 Z M 36.757 34.481 L 34.084 34.481 L 34.073 41.393 C 34.073 42.863 34.15 44.21 33.911 44.623 C 33.519 45.436 32.507 45.334 32.043 45.178 C 31.574 44.947 31.335 44.618 31.057 44.154 C 30.981 44.021 30.925 43.917 30.906 43.909 L 28.732 45.24 C 29.094 45.983 29.626 46.625 30.307 47.044 C 31.325 47.655 32.695 47.843 34.127 47.515 C 35.059 47.243 35.863 46.68 36.284 45.824 C 36.893 44.703 36.763 43.343 36.757 41.842 C 36.77 39.39 36.757 36.941 36.757 34.481 Z" style=""/>
</svg>