<?xml version="1.0" encoding="utf-8"?>
<svg width="70" height="70" viewBox="0 0 70 70" fill="none" xmlns="http://www.w3.org/2000/svg">
  <path d="M32.1663 2.31822C33.8796 1.32907 35.9904 1.32907 37.7037 2.31821L62.127 16.4191C63.8403 17.4082 64.8957 19.2362 64.8957 21.2145V49.4162C64.8957 51.3945 63.8403 53.2225 62.127 54.2117L37.7037 68.3125C35.9904 69.3017 33.8796 69.3017 32.1663 68.3125L7.74296 54.2117C6.02971 53.2225 4.97429 51.3945 4.97429 49.4162V21.2145C4.97429 19.2362 6.0297 17.4082 7.74295 16.4191L32.1663 2.31822Z" stroke="url(#paint0_linear_666_80)" stroke-opacity="0.3" stroke-width="1.10747"/>
  <path d="M33.5617 12.9031C34.7542 12.2146 36.2233 12.2146 37.4157 12.9031L54.4144 22.7173C55.6068 23.4057 56.3414 24.678 56.3414 26.0549V45.6833C56.3414 47.0602 55.6068 48.3325 54.4144 49.0209L37.4157 58.8351C36.2233 59.5235 34.7542 59.5236 33.5617 58.8351L16.5631 49.0209C15.3706 48.3325 14.6361 47.0602 14.6361 45.6833V26.0549C14.6361 24.678 15.3706 23.4057 16.5631 22.7173L33.5617 12.9031Z" fill="url(#paint1_linear_666_80)" fill-opacity="0.2"/>
  <defs>
    <linearGradient id="paint0_linear_666_80" x1="0.339355" y1="0.719727" x2="69.5306" y2="69.911" gradientUnits="userSpaceOnUse">
      <stop stop-color="white"/>
      <stop offset="0.7656" stop-color="white" stop-opacity="0"/>
    </linearGradient>
    <linearGradient id="paint1_linear_666_80" x1="11.4102" y1="11.7905" x2="59.5673" y2="59.9477" gradientUnits="userSpaceOnUse">
      <stop stop-color="white"/>
      <stop offset="0.8281" stop-color="white" stop-opacity="0"/>
    </linearGradient>
  </defs>
  <path fill-rule="evenodd" clip-rule="evenodd" fill="#94795D" d="M 43.597 47.419 C 43.659 47.3 43.718 47.196 43.77 47.088 C 43.799 47.018 43.849 47.005 43.918 47.006 C 44.333 47.018 44.746 47.031 45.16 47.034 C 45.511 47.038 45.863 47.031 46.214 47.028 C 46.61 47.022 47.009 47.003 47.402 47.013 C 47.929 47.029 48.444 47.131 48.92 47.366 C 49.489 47.648 49.921 48.073 50.215 48.637 C 50.399 48.995 50.514 49.383 50.553 49.783 C 50.617 50.37 50.575 50.944 50.39 51.505 C 50.159 52.199 49.722 52.731 49.114 53.131 C 48.645 53.438 48.131 53.619 47.581 53.723 C 46.999 53.833 46.416 53.797 45.83 53.798 C 45.191 53.801 44.549 53.786 43.908 53.78 C 43.797 53.779 43.781 53.758 43.81 53.651 L 43.838 53.552 C 43.9 53.356 43.934 53.349 44.132 53.314 C 44.276 53.293 44.409 53.242 44.529 53.164 C 44.597 53.119 44.625 53.004 44.651 52.913 C 44.673 52.837 44.676 52.75 44.676 52.668 C 44.684 51.418 44.695 50.168 44.698 48.92 C 44.7 48.605 44.693 48.289 44.676 47.972 C 44.664 47.751 44.545 47.6 44.283 47.549 C 44.078 47.507 43.873 47.475 43.668 47.441 L 43.597 47.419 Z M 49.463 50.443 C 49.435 50.196 49.421 49.945 49.377 49.699 C 49.271 49.112 49.014 48.6 48.56 48.196 C 47.829 47.549 46.948 47.448 46.024 47.526 C 45.815 47.543 45.77 47.614 45.768 47.832 C 45.761 48.138 45.757 48.444 45.757 48.752 C 45.756 49.721 45.756 50.694 45.757 51.666 C 45.757 51.943 45.759 52.219 45.768 52.496 C 45.777 52.778 45.879 53.014 46.156 53.127 C 46.591 53.298 47.051 53.318 47.509 53.248 C 48.239 53.136 48.75 52.711 49.093 52.072 C 49.364 51.567 49.44 51.013 49.463 50.443 Z M 51.24 53.754 C 51.232 53.603 51.292 53.477 51.371 53.364 C 51.39 53.331 51.461 53.334 51.511 53.323 L 51.929 53.242 C 52.077 53.21 52.155 53.11 52.177 52.965 C 52.19 52.871 52.202 52.773 52.205 52.677 C 52.213 51.913 52.221 51.146 52.227 50.382 C 52.229 49.615 52.228 48.849 52.228 48.083 L 52.222 47.935 C 52.209 47.69 52.09 47.561 51.846 47.526 L 51.315 47.446 C 51.25 47.435 51.226 47.404 51.25 47.348 C 51.29 47.249 51.33 47.146 51.388 47.057 C 51.409 47.023 51.481 47.01 51.53 47.012 C 51.782 47.017 52.036 47.034 52.288 47.034 L 54.495 47.021 C 54.919 47.021 55.328 47.096 55.709 47.298 C 56.128 47.521 56.362 47.866 56.43 48.339 C 56.5 48.832 56.35 49.249 55.989 49.58 C 55.84 49.717 55.649 49.805 55.476 49.917 L 55.421 49.95 C 55.58 50.011 55.732 50.059 55.88 50.123 C 56.313 50.299 56.658 50.577 56.841 51.02 C 56.984 51.369 56.984 51.736 56.899 52.098 C 56.767 52.665 56.395 53.045 55.906 53.329 C 55.45 53.597 54.955 53.753 54.429 53.779 C 53.943 53.804 53.457 53.796 52.972 53.8 L 52.69 53.801 C 52.219 53.792 51.75 53.779 51.282 53.766 L 51.24 53.754 Z M 53.261 51.533 L 53.265 51.533 C 53.265 51.772 53.262 52.013 53.267 52.253 C 53.27 52.41 53.263 52.568 53.297 52.719 C 53.347 52.942 53.45 53.144 53.701 53.208 C 54.037 53.296 54.388 53.312 54.73 53.253 C 55.16 53.178 55.502 52.963 55.688 52.553 C 55.829 52.251 55.849 51.927 55.802 51.599 C 55.738 51.168 55.507 50.851 55.124 50.645 C 54.876 50.509 54.606 50.427 54.321 50.416 C 54.001 50.403 53.681 50.403 53.363 50.391 C 53.272 50.389 53.259 50.436 53.259 50.509 C 53.262 50.851 53.261 51.19 53.261 51.533 Z M 53.941 49.9 C 54.115 49.891 54.314 49.889 54.509 49.87 C 54.887 49.832 55.151 49.643 55.292 49.282 C 55.361 49.1 55.356 48.911 55.36 48.72 C 55.366 48.225 55.076 47.82 54.606 47.653 C 54.242 47.523 53.869 47.521 53.492 47.529 C 53.339 47.534 53.271 47.601 53.268 47.756 L 53.245 49.757 C 53.244 49.837 53.278 49.872 53.355 49.874 L 53.941 49.9 Z" style=""/>
  <path fill-rule="evenodd" clip-rule="evenodd" fill="#50382B" d="M 15.607 53.37 L 15.58 53.714 C 15.331 53.714 15.101 53.711 14.872 53.715 C 14.443 53.721 14.012 53.727 13.58 53.731 L 13.539 53.735 C 13.476 53.729 13.365 53.729 13.363 53.71 C 13.344 53.606 13.349 53.5 13.353 53.393 C 13.353 53.382 13.398 53.366 13.421 53.362 L 13.757 53.285 C 13.966 53.231 14.039 53.142 14.051 52.925 C 14.061 52.681 14.071 52.438 14.073 52.195 C 14.077 51.595 14.073 50.996 14.076 50.398 C 14.076 50.257 14.027 50.152 13.898 50.096 C 13.74 50.027 13.585 49.961 13.429 49.897 C 13.352 49.867 13.256 49.85 13.266 49.752 C 13.275 49.65 13.368 49.624 13.456 49.602 C 13.821 49.517 14.189 49.437 14.553 49.35 C 14.671 49.32 14.782 49.271 14.923 49.222 C 14.93 49.298 14.944 49.371 14.942 49.442 L 14.921 49.785 C 14.921 49.823 14.94 49.876 14.968 49.899 C 14.986 49.911 15.045 49.888 15.073 49.864 C 15.385 49.628 15.716 49.423 16.092 49.302 C 16.676 49.118 17.176 49.29 17.526 49.792 C 17.65 49.97 17.65 49.97 17.821 49.846 C 18.114 49.632 18.42 49.444 18.764 49.32 C 19.519 49.047 20.244 49.393 20.508 50.152 C 20.601 50.429 20.639 50.713 20.638 51.005 L 20.632 52.937 C 20.632 53.098 20.683 53.187 20.834 53.238 C 21.005 53.295 21.183 53.331 21.374 53.383 L 21.329 53.715 C 21.112 53.715 20.911 53.714 20.709 53.715 C 20.22 53.721 19.729 53.723 19.239 53.732 C 19.154 53.735 19.132 53.714 19.128 53.633 C 19.112 53.38 19.11 53.38 19.352 53.32 L 19.433 53.3 C 19.667 53.237 19.747 53.164 19.75 52.926 C 19.753 52.239 19.768 51.554 19.734 50.869 C 19.697 50.16 19.133 49.782 18.446 49.964 C 18.224 50.025 18.016 50.125 17.83 50.261 C 17.766 50.306 17.755 50.358 17.76 50.439 C 17.778 50.741 17.792 51.044 17.793 51.347 C 17.797 51.876 17.792 52.405 17.793 52.936 C 17.794 53.15 17.867 53.231 18.08 53.282 L 18.395 53.352 L 18.454 53.367 C 18.457 53.467 18.461 53.569 18.457 53.668 C 18.454 53.731 18.404 53.736 18.349 53.736 C 18.044 53.729 17.738 53.721 17.432 53.721 C 17.058 53.721 16.688 53.73 16.315 53.736 L 16.227 53.736 C 16.227 53.629 16.221 53.528 16.231 53.425 C 16.232 53.403 16.276 53.368 16.305 53.362 L 16.672 53.282 C 16.829 53.243 16.901 53.164 16.911 53.005 C 16.951 52.273 16.982 51.539 16.913 50.804 C 16.896 50.661 16.856 50.52 16.794 50.388 C 16.607 49.972 16.183 49.798 15.696 49.924 C 15.463 49.984 15.255 50.091 15.058 50.223 C 14.968 50.277 14.916 50.374 14.919 50.477 C 14.919 51.208 14.923 51.941 14.924 52.671 L 14.927 52.954 C 14.932 53.15 15.016 53.254 15.21 53.296 C 15.338 53.324 15.463 53.344 15.607 53.37 Z" style=""/>
  <path fill-rule="evenodd" clip-rule="evenodd" fill="#4F382B" d="M 37.667 49.297 C 37.722 49.573 37.722 49.819 37.519 50.005 C 37.319 50.194 37.065 50.131 36.817 50.091 C 36.839 50.22 36.865 50.331 36.878 50.442 C 36.967 51.278 36.608 51.898 35.833 52.252 C 35.542 52.386 35.231 52.437 34.913 52.46 C 34.755 52.473 34.618 52.594 34.602 52.723 C 34.587 52.855 34.671 52.99 34.836 53.03 C 35.03 53.077 35.232 53.089 35.432 53.111 C 35.859 53.161 36.293 53.183 36.718 53.26 C 37.357 53.373 37.714 53.933 37.601 54.576 C 37.501 55.148 37.17 55.564 36.707 55.883 C 35.93 56.423 35.076 56.581 34.167 56.305 C 33.646 56.147 33.279 55.806 33.154 55.254 C 33.09 54.977 33.156 54.725 33.365 54.538 C 33.612 54.315 33.882 54.116 34.141 53.906 L 34.226 53.822 L 34.13 53.754 C 33.865 53.629 33.654 53.455 33.571 53.159 C 33.542 53.058 33.572 52.991 33.657 52.938 C 33.804 52.852 33.95 52.763 34.095 52.671 C 34.161 52.628 34.228 52.585 34.291 52.536 C 34.379 52.47 34.37 52.421 34.266 52.384 C 34.027 52.294 33.815 52.166 33.65 51.97 C 33.375 51.641 33.297 51.25 33.319 50.837 C 33.354 50.191 33.706 49.765 34.276 49.491 C 34.954 49.167 35.631 49.146 36.321 49.442 C 36.578 49.552 36.849 49.575 37.121 49.557 C 37.327 49.542 37.505 49.463 37.667 49.297 Z M 35.168 53.923 C 34.661 53.918 34.499 53.983 34.203 54.287 C 33.868 54.627 33.869 55.098 34.204 55.442 C 34.456 55.701 34.772 55.823 35.125 55.858 C 35.533 55.903 35.939 55.883 36.312 55.679 C 36.708 55.457 36.908 55.049 36.817 54.638 C 36.743 54.298 36.492 54.143 36.188 54.054 C 35.843 53.953 35.484 53.933 35.168 53.923 Z M 34.17 50.673 C 34.188 50.815 34.195 50.956 34.227 51.096 C 34.309 51.453 34.465 51.769 34.821 51.929 C 35.239 52.116 35.773 52.034 35.957 51.447 C 36.082 51.058 36.067 50.636 35.915 50.253 C 35.852 50.079 35.736 49.928 35.586 49.822 C 35.221 49.568 34.565 49.534 34.298 50.095 C 34.21 50.277 34.177 50.471 34.17 50.673 Z" style=""/>
  <path fill-rule="evenodd" clip-rule="evenodd" fill="#4F372B" d="M 29.037 49.206 C 29.05 49.27 29.078 49.339 29.078 49.41 C 29.079 49.547 29.062 49.682 29.057 49.818 L 29.057 49.935 L 29.17 49.847 C 29.486 49.589 29.824 49.369 30.214 49.25 C 30.923 49.036 31.63 49.425 31.861 50.146 C 31.948 50.422 31.985 50.701 31.988 50.99 C 31.994 51.626 31.999 52.262 32.005 52.901 C 32.008 53.131 32.034 53.17 32.25 53.237 C 32.374 53.272 32.497 53.3 32.627 53.318 C 32.696 53.331 32.725 53.357 32.723 53.425 L 32.723 53.489 C 32.719 53.753 32.702 53.765 32.448 53.765 C 31.833 53.763 31.222 53.766 30.609 53.771 C 30.427 53.774 30.427 53.779 30.408 53.599 L 30.405 53.495 C 30.417 53.339 30.421 53.34 30.572 53.318 C 30.675 53.303 30.778 53.28 30.879 53.253 C 30.98 53.227 31.032 53.15 31.045 53.048 C 31.052 52.997 31.061 52.944 31.061 52.893 C 31.052 52.197 31.064 51.499 31.026 50.803 C 30.994 50.244 30.566 49.907 30 49.945 C 29.73 49.964 29.467 50.058 29.246 50.217 C 29.095 50.321 29.064 50.475 29.064 50.637 C 29.069 51.288 29.074 51.941 29.081 52.591 C 29.083 52.732 29.085 52.876 29.1 53.02 C 29.113 53.174 29.169 53.235 29.321 53.269 C 29.466 53.3 29.612 53.318 29.77 53.345 L 29.782 53.466 C 29.787 53.744 29.759 53.765 29.487 53.765 C 28.854 53.76 28.22 53.766 27.588 53.771 C 27.488 53.774 27.446 53.743 27.447 53.645 L 27.446 53.603 C 27.431 53.351 27.437 53.341 27.675 53.302 L 27.789 53.28 C 28.047 53.22 28.112 53.154 28.115 52.889 C 28.128 52.062 28.132 51.233 28.141 50.405 C 28.141 50.286 28.099 50.194 27.984 50.146 C 27.83 50.077 27.674 50.011 27.516 49.947 C 27.43 49.911 27.331 49.889 27.328 49.768 C 27.326 49.684 27.415 49.609 27.538 49.583 C 27.788 49.532 28.037 49.491 28.284 49.429 C 28.528 49.369 28.768 49.286 29.037 49.206 Z" style=""/>
  <path fill-rule="evenodd" clip-rule="evenodd" fill="#4F382B" d="M 42.725 51.369 C 42.713 52.145 42.512 52.772 41.964 53.241 C 41.272 53.836 40.19 54.038 39.305 53.592 C 38.928 53.403 38.651 53.111 38.471 52.732 C 38.194 52.152 38.124 51.539 38.268 50.913 C 38.412 50.293 38.786 49.844 39.349 49.554 C 39.929 49.253 40.535 49.138 41.177 49.293 C 41.99 49.491 42.572 50.155 42.689 50.996 C 42.71 51.145 42.717 51.294 42.725 51.369 Z M 41.784 51.791 L 41.752 51.787 C 41.752 51.713 41.757 51.641 41.751 51.567 C 41.724 51.113 41.623 50.68 41.359 50.3 C 41.11 49.939 40.769 49.727 40.327 49.695 C 39.831 49.66 39.413 49.939 39.267 50.443 C 39.047 51.205 39.122 51.946 39.508 52.642 C 39.677 52.947 39.925 53.169 40.26 53.286 C 40.914 53.518 41.494 53.219 41.664 52.55 C 41.727 52.303 41.745 52.044 41.784 51.791 Z" style=""/>
  <path fill-rule="evenodd" clip-rule="evenodd" fill="#4F372B" d="M 26.653 51.431 C 26.64 51.985 26.508 52.499 26.163 52.947 C 25.798 53.424 25.292 53.679 24.719 53.786 C 24.04 53.915 23.402 53.798 22.857 53.341 C 22.597 53.127 22.42 52.849 22.303 52.532 C 22.112 52.013 22.064 51.483 22.183 50.941 C 22.309 50.363 22.635 49.921 23.141 49.625 C 23.728 49.281 24.36 49.128 25.036 49.282 C 25.903 49.48 26.405 50.046 26.59 50.902 C 26.628 51.076 26.634 51.256 26.653 51.431 Z M 25.701 51.797 L 25.678 51.794 L 25.678 51.689 C 25.662 51.18 25.563 50.694 25.258 50.271 C 25.035 49.956 24.733 49.761 24.347 49.705 C 23.716 49.615 23.304 49.989 23.167 50.497 C 22.991 51.159 23.046 51.814 23.322 52.443 C 23.494 52.834 23.764 53.142 24.182 53.288 C 24.831 53.519 25.422 53.214 25.586 52.545 C 25.646 52.303 25.663 52.048 25.701 51.797 Z" style=""/>
  <path fill-rule="evenodd" clip-rule="evenodd" fill="#439934" d="M 41.812 23.119 C 42.258 24.413 42.581 25.736 42.688 27.104 C 42.818 28.804 42.759 30.492 42.401 32.162 L 42.354 32.295 C 42.241 32.295 42.127 32.28 42.018 32.298 C 41.089 32.445 40.163 32.596 39.237 32.744 C 38.276 32.9 37.319 33.049 36.361 33.217 C 36.023 33.274 35.601 33.204 35.466 33.672 L 35.402 33.696 L 35.445 30.893 L 35.398 24.134 L 35.847 24.059 C 36.576 23.938 37.307 23.817 38.037 23.7 C 38.91 23.562 39.782 23.427 40.654 23.292 C 41.04 23.234 41.426 23.177 41.812 23.119 Z" style=""/>
  <path fill-rule="evenodd" clip-rule="evenodd" fill="#45A538" d="M 34.478 41.862 C 34.008 41.458 33.519 41.07 33.069 40.644 C 30.639 38.352 28.861 35.656 27.985 32.403 C 27.745 31.508 27.584 30.6 27.534 29.675 C 27.496 29.028 27.443 28.373 27.49 27.73 C 27.612 26.018 27.859 24.322 28.361 22.672 L 28.389 22.634 C 28.438 22.7 28.508 22.757 28.533 22.83 C 29.025 24.272 29.509 25.719 29.993 27.164 C 31.514 31.708 33.035 36.252 34.559 40.793 C 34.587 40.884 34.664 40.956 34.72 41.036 L 34.478 41.862 Z" style=""/>
  <path fill-rule="evenodd" clip-rule="evenodd" fill="#46A037" d="M 41.812 23.119 C 41.426 23.177 41.04 23.234 40.654 23.292 C 39.782 23.427 38.91 23.562 38.037 23.7 C 37.307 23.817 36.576 23.938 35.847 24.059 L 35.398 24.134 L 35.394 23.842 C 35.381 23.603 35.356 23.365 35.353 23.125 L 35.304 18.544 C 35.291 17.589 35.273 16.633 35.254 15.677 C 35.243 15.086 35.228 14.489 35.202 13.897 C 35.187 13.578 35.135 13.261 35.115 12.943 C 35.103 12.761 35.119 12.575 35.125 12.39 C 35.352 12.831 35.575 13.278 35.809 13.715 C 36.179 14.406 36.768 14.917 37.297 15.473 C 39.395 17.675 40.883 20.23 41.812 23.119 Z" style=""/>
  <path fill-rule="evenodd" clip-rule="evenodd" fill="#409433" d="M 35.402 33.696 L 35.466 33.672 C 35.601 33.204 36.023 33.274 36.361 33.217 C 37.319 33.049 38.276 32.9 39.237 32.744 C 40.163 32.597 41.091 32.445 42.018 32.298 C 42.127 32.28 42.241 32.295 42.354 32.295 C 42.181 32.913 42.045 33.547 41.824 34.148 C 41.574 34.829 41.272 35.496 40.951 36.15 C 40.472 37.124 39.876 38.037 39.183 38.872 C 38.647 39.512 38.051 40.108 37.452 40.695 C 37.121 41.02 36.731 41.285 36.37 41.577 L 36.277 41.513 L 35.936 41.223 L 35.588 40.456 C 35.349 39.561 35.217 38.638 35.2 37.712 L 35.206 37.559 L 35.254 36.881 C 35.269 36.65 35.291 36.418 35.3 36.187 C 35.336 35.357 35.367 34.527 35.402 33.696 Z" style=""/>
  <path fill-rule="evenodd" clip-rule="evenodd" fill="#4FAA41" d="M 35.402 33.696 C 35.368 34.527 35.336 35.359 35.3 36.188 C 35.291 36.421 35.27 36.651 35.254 36.883 L 35.042 36.961 C 34.567 35.567 34.095 34.191 33.629 32.805 C 32.863 30.519 32.105 28.227 31.342 25.937 C 30.723 24.091 30.099 22.244 29.472 20.402 C 29.443 20.313 29.361 20.244 29.301 20.17 L 30.666 17.66 C 30.712 17.742 30.776 17.817 30.805 17.906 C 31.434 19.774 32.066 21.643 32.69 23.512 C 33.503 25.946 34.31 28.381 35.124 30.815 C 35.155 30.913 35.21 31.003 35.26 31.111 L 35.446 30.893 L 35.402 33.696 Z" style=""/>
  <path fill-rule="evenodd" clip-rule="evenodd" fill="#4AA73C" d="M 29.301 20.17 C 29.361 20.244 29.443 20.313 29.472 20.402 C 30.099 22.244 30.723 24.091 31.339 25.937 C 32.105 28.227 32.863 30.519 33.629 32.805 C 34.092 34.191 34.567 35.567 35.042 36.961 L 35.254 36.883 L 35.206 37.559 L 35.162 37.714 C 35.087 38.455 35.025 39.196 34.935 39.936 C 34.891 40.305 34.793 40.667 34.72 41.036 C 34.664 40.956 34.587 40.884 34.559 40.793 C 33.035 36.252 31.514 31.708 29.993 27.164 C 29.509 25.719 29.024 24.274 28.533 22.83 C 28.508 22.757 28.438 22.7 28.389 22.634 L 29.301 20.17 Z" style=""/>
  <path fill-rule="evenodd" clip-rule="evenodd" fill="#57AE47" d="M 35.445 30.893 L 35.26 31.111 C 35.21 31.003 35.155 30.913 35.124 30.815 C 34.31 28.381 33.503 25.946 32.69 23.512 C 32.065 21.643 31.434 19.774 30.805 17.906 C 30.773 17.817 30.712 17.742 30.666 17.66 L 32.353 15.44 C 32.407 15.51 32.482 15.575 32.508 15.654 C 32.976 17.026 33.443 18.4 33.903 19.774 C 34.335 21.058 34.76 22.343 35.197 23.624 C 35.227 23.708 35.327 23.771 35.394 23.842 L 35.398 24.134 L 35.445 30.893 Z" style=""/>
  <path fill-rule="evenodd" clip-rule="evenodd" fill="#60B24F" d="M 35.394 23.842 C 35.326 23.771 35.227 23.71 35.197 23.624 C 34.76 22.343 34.335 21.058 33.903 19.774 C 33.443 18.4 32.976 17.026 32.508 15.654 C 32.482 15.575 32.407 15.51 32.353 15.44 C 32.903 14.902 33.433 14.345 34.003 13.834 C 34.511 13.377 34.92 12.892 34.939 12.171 L 34.978 12.027 L 35.125 12.39 C 35.119 12.575 35.103 12.761 35.115 12.943 C 35.135 13.261 35.187 13.578 35.202 13.897 C 35.229 14.489 35.24 15.084 35.254 15.677 C 35.271 16.633 35.291 17.589 35.303 18.542 L 35.352 23.125 C 35.356 23.365 35.381 23.603 35.394 23.842 Z" style=""/>
  <path fill-rule="evenodd" clip-rule="evenodd" fill="#A9AA88" d="M 34.72 41.036 C 34.794 40.667 34.891 40.305 34.935 39.936 C 35.027 39.196 35.087 38.452 35.162 37.714 L 35.181 37.711 L 35.2 37.714 C 35.217 38.641 35.349 39.561 35.588 40.456 C 35.539 40.521 35.471 40.578 35.444 40.651 C 35.24 41.223 35.049 41.798 34.847 42.371 C 34.818 42.448 34.74 42.509 34.686 42.578 L 34.478 41.862 L 34.72 41.036 Z" style=""/>
  <path fill-rule="evenodd" clip-rule="evenodd" fill="#B6B598" d="M 34.686 42.578 C 34.74 42.509 34.818 42.448 34.847 42.371 C 35.049 41.799 35.24 41.223 35.444 40.652 C 35.469 40.578 35.539 40.521 35.588 40.456 L 35.936 41.225 C 35.87 41.323 35.773 41.412 35.734 41.521 L 35.064 43.487 C 35.037 43.566 34.945 43.622 34.879 43.691 L 34.686 42.578 Z" style=""/>
  <path fill-rule="evenodd" clip-rule="evenodd" fill="#C2C1A7" d="M 34.879 43.689 C 34.944 43.622 35.037 43.566 35.064 43.487 L 35.734 41.519 C 35.773 41.411 35.87 41.323 35.936 41.223 L 36.277 41.513 C 36.113 41.675 36.023 41.862 36.077 42.097 L 35.974 42.434 C 35.929 42.491 35.859 42.543 35.836 42.607 C 35.601 43.279 35.381 43.952 35.145 44.621 C 35.113 44.705 35.031 44.773 34.974 44.849 L 34.879 43.689 Z" style=""/>
  <path fill-rule="evenodd" clip-rule="evenodd" fill="#CECDB7" d="M 34.974 44.847 C 35.031 44.773 35.113 44.705 35.145 44.621 C 35.38 43.952 35.601 43.278 35.836 42.607 C 35.859 42.542 35.926 42.491 35.973 42.434 L 35.832 43.979 C 35.794 44.023 35.739 44.061 35.721 44.111 L 35.25 45.466 C 35.215 45.556 35.152 45.64 35.102 45.725 C 35.058 45.668 34.979 45.613 34.976 45.553 C 34.962 45.319 34.972 45.082 34.974 44.847 Z" style=""/>
  <path fill-rule="evenodd" clip-rule="evenodd" fill="#DBDAC7" d="M 35.102 45.726 C 35.152 45.64 35.216 45.558 35.25 45.466 L 35.721 44.111 C 35.739 44.061 35.795 44.024 35.832 43.979 L 35.836 44.994 L 35.494 45.863 L 35.102 45.726 Z" style=""/>
  <path fill-rule="evenodd" clip-rule="evenodd" fill="#EBE9DC" d="M 35.494 45.863 L 35.836 44.994 L 35.906 46.026 L 35.494 45.863 Z" style=""/>
  <path fill-rule="evenodd" clip-rule="evenodd" fill="#CECDB7" d="M 36.077 42.097 C 36.023 41.862 36.112 41.675 36.277 41.513 L 36.37 41.577 L 36.077 42.097 Z" style=""/>
  <path fill-rule="evenodd" clip-rule="evenodd" fill="#4FAA41" d="M 35.2 37.714 L 35.181 37.711 L 35.162 37.714 L 35.206 37.559 L 35.2 37.714 Z" style=""/>
</svg>