<?xml version="1.0" encoding="utf-8"?>
<svg width="70" height="70" viewBox="0 0 70 70" fill="none" xmlns="http://www.w3.org/2000/svg">
  <path d="M32.5347 2.04234C34.248 1.05319 36.3588 1.05319 38.0721 2.04234L62.4954 16.1432C64.2087 17.1323 65.2641 18.9603 65.2641 20.9386V49.1403C65.2641 51.1186 64.2087 52.9466 62.4954 53.9358L38.0721 68.0366C36.3588 69.0258 34.248 69.0258 32.5347 68.0366L8.11137 53.9358C6.39811 52.9466 5.3427 51.1186 5.3427 49.1403V20.9386C5.3427 18.9604 6.39811 17.1323 8.11136 16.1432L32.5347 2.04234Z" stroke="url(#paint0_linear_663_91)" stroke-opacity="0.3" stroke-width="1.10747"/>
  <path d="M33.3764 12.073C34.5689 11.3846 36.038 11.3846 37.2304 12.073L54.2291 21.8872C55.4215 22.5756 56.1561 23.8479 56.1561 25.2248V44.8532C56.1561 46.2301 55.4215 47.5024 54.2291 48.1908L37.2304 58.005C36.038 58.6935 34.5689 58.6935 33.3764 58.005L16.3778 48.1908C15.1853 47.5024 14.4508 46.2301 14.4508 44.8532V25.2248C14.4508 23.8479 15.1853 22.5756 16.3778 21.8872L33.3764 12.073Z" fill="url(#paint1_linear_663_91)" fill-opacity="0.2"/>
  <defs>
    <linearGradient id="paint0_linear_663_91" x1="0.707764" y1="0.443848" x2="69.899" y2="69.6351" gradientUnits="userSpaceOnUse">
      <stop stop-color="white"/>
      <stop offset="0.7656" stop-color="white" stop-opacity="0"/>
    </linearGradient>
    <linearGradient id="paint1_linear_663_91" x1="11.2249" y1="10.9604" x2="59.382" y2="59.1176" gradientUnits="userSpaceOnUse">
      <stop stop-color="white"/>
      <stop offset="0.8281" stop-color="white" stop-opacity="0"/>
    </linearGradient>
  </defs>
  <path fill-rule="evenodd" clip-rule="evenodd" fill="#94795D" d="M 39.463 39.731 C 39.494 39.676 39.524 39.629 39.548 39.579 C 39.565 39.548 39.588 39.543 39.621 39.543 C 39.824 39.548 40.03 39.553 40.233 39.556 C 40.407 39.559 40.58 39.553 40.752 39.553 C 40.948 39.551 41.142 39.54 41.338 39.545 C 41.597 39.553 41.85 39.6 42.086 39.708 C 42.365 39.836 42.577 40.029 42.721 40.288 C 42.813 40.452 42.87 40.63 42.889 40.813 C 42.919 41.082 42.901 41.344 42.809 41.603 C 42.695 41.919 42.478 42.165 42.181 42.345 C 41.949 42.486 41.697 42.57 41.427 42.617 C 41.139 42.669 40.851 42.651 40.563 42.653 C 40.249 42.653 39.933 42.648 39.619 42.643 C 39.562 42.643 39.555 42.632 39.569 42.585 L 39.581 42.538 C 39.612 42.449 39.628 42.444 39.727 42.431 C 39.798 42.421 39.864 42.397 39.923 42.361 C 39.956 42.34 39.971 42.287 39.982 42.248 C 39.994 42.212 39.994 42.172 39.994 42.136 C 39.999 41.563 40.004 40.991 40.006 40.418 C 40.006 40.272 40.004 40.131 39.994 39.985 C 39.99 39.883 39.93 39.815 39.801 39.791 C 39.701 39.773 39.6 39.757 39.498 39.741 L 39.463 39.731 Z M 42.353 41.116 C 42.339 41.001 42.332 40.886 42.31 40.777 C 42.258 40.507 42.131 40.272 41.907 40.087 C 41.548 39.789 41.113 39.744 40.66 39.778 C 40.556 39.789 40.535 39.82 40.533 39.919 C 40.53 40.06 40.528 40.199 40.528 40.34 C 40.528 40.787 40.528 41.231 40.528 41.676 C 40.528 41.804 40.528 41.929 40.533 42.057 C 40.537 42.185 40.587 42.293 40.724 42.345 C 40.939 42.423 41.165 42.434 41.39 42.4 C 41.751 42.35 42.001 42.154 42.169 41.861 C 42.303 41.631 42.341 41.378 42.353 41.116 Z M 43.226 42.632 C 43.224 42.562 43.252 42.507 43.29 42.452 C 43.302 42.439 43.335 42.439 43.359 42.434 L 43.566 42.397 C 43.64 42.382 43.677 42.337 43.687 42.272 C 43.694 42.227 43.701 42.183 43.701 42.138 C 43.706 41.788 43.71 41.438 43.713 41.088 C 43.715 40.737 43.713 40.387 43.713 40.034 L 43.71 39.966 C 43.703 39.856 43.644 39.796 43.524 39.781 L 43.264 39.741 C 43.231 39.739 43.219 39.726 43.231 39.7 C 43.25 39.653 43.271 39.606 43.3 39.564 C 43.309 39.551 43.344 39.543 43.368 39.545 C 43.493 39.548 43.618 39.556 43.743 39.556 L 44.827 39.548 C 45.037 39.548 45.24 39.582 45.427 39.676 C 45.632 39.778 45.75 39.935 45.781 40.152 C 45.816 40.377 45.741 40.57 45.566 40.722 C 45.491 40.782 45.396 40.824 45.314 40.876 L 45.285 40.892 C 45.363 40.918 45.439 40.941 45.512 40.97 C 45.724 41.048 45.894 41.177 45.984 41.378 C 46.055 41.54 46.055 41.707 46.012 41.872 C 45.946 42.133 45.764 42.306 45.524 42.436 C 45.299 42.559 45.056 42.632 44.796 42.643 C 44.558 42.653 44.32 42.651 44.079 42.653 L 43.939 42.653 C 43.708 42.648 43.477 42.643 43.248 42.638 L 43.226 42.632 Z M 44.22 41.616 L 44.225 41.616 C 44.225 41.725 44.223 41.835 44.225 41.945 C 44.227 42.016 44.223 42.089 44.239 42.157 C 44.265 42.261 44.315 42.353 44.44 42.382 C 44.605 42.423 44.775 42.429 44.945 42.402 C 45.158 42.368 45.323 42.269 45.417 42.084 C 45.486 41.942 45.498 41.796 45.474 41.644 C 45.441 41.448 45.328 41.302 45.139 41.208 C 45.016 41.145 44.884 41.109 44.745 41.103 C 44.586 41.098 44.428 41.095 44.272 41.093 C 44.227 41.09 44.22 41.111 44.22 41.148 C 44.223 41.302 44.22 41.459 44.22 41.616 Z M 44.558 40.868 C 44.643 40.863 44.74 40.863 44.837 40.852 C 45.023 40.837 45.153 40.748 45.221 40.583 C 45.255 40.5 45.252 40.413 45.255 40.327 C 45.257 40.1 45.115 39.914 44.884 39.838 C 44.704 39.778 44.52 39.778 44.336 39.783 C 44.261 39.783 44.227 39.815 44.227 39.885 L 44.213 40.803 C 44.213 40.839 44.23 40.855 44.268 40.855 L 44.558 40.868 Z" style="" transform="matrix(0.999994, 0.003574, -0.003574, 0.999994, 0.14716, -0.152534)"/>
  <path fill-rule="evenodd" clip-rule="evenodd" fill="#50382B" d="M 25.684 42.397 L 25.673 42.554 C 25.547 42.554 25.434 42.554 25.323 42.556 C 25.111 42.559 24.898 42.561 24.686 42.564 L 24.667 42.564 C 24.636 42.561 24.582 42.561 24.579 42.554 C 24.57 42.506 24.575 42.457 24.575 42.407 C 24.575 42.402 24.596 42.397 24.608 42.394 L 24.773 42.36 C 24.875 42.334 24.912 42.292 24.917 42.193 C 24.922 42.083 24.929 41.971 24.929 41.861 C 24.931 41.584 24.929 41.309 24.931 41.037 C 24.931 40.972 24.905 40.925 24.844 40.899 C 24.766 40.868 24.688 40.839 24.612 40.807 C 24.575 40.794 24.527 40.787 24.532 40.739 C 24.535 40.695 24.582 40.682 24.624 40.672 C 24.804 40.632 24.985 40.596 25.165 40.557 C 25.222 40.543 25.278 40.52 25.349 40.499 C 25.351 40.533 25.356 40.564 25.356 40.598 L 25.347 40.758 C 25.347 40.776 25.356 40.797 25.37 40.807 C 25.38 40.813 25.408 40.802 25.422 40.792 C 25.576 40.685 25.739 40.591 25.923 40.536 C 26.208 40.449 26.456 40.528 26.629 40.76 C 26.69 40.841 26.69 40.841 26.775 40.784 C 26.919 40.685 27.068 40.601 27.24 40.543 C 27.611 40.418 27.967 40.575 28.095 40.925 C 28.142 41.051 28.161 41.181 28.161 41.315 L 28.156 42.201 C 28.156 42.274 28.182 42.313 28.26 42.337 C 28.343 42.363 28.43 42.381 28.525 42.402 L 28.501 42.556 C 28.392 42.556 28.296 42.554 28.196 42.556 C 27.956 42.559 27.715 42.559 27.472 42.564 C 27.431 42.564 27.42 42.554 27.417 42.52 C 27.41 42.402 27.408 42.402 27.528 42.376 L 27.568 42.365 C 27.684 42.337 27.722 42.303 27.722 42.193 C 27.727 41.882 27.731 41.565 27.715 41.252 C 27.698 40.928 27.422 40.755 27.082 40.839 C 26.973 40.865 26.872 40.912 26.777 40.975 C 26.747 40.996 26.742 41.019 26.744 41.056 C 26.752 41.194 26.761 41.333 26.761 41.471 C 26.763 41.714 26.761 41.955 26.761 42.198 C 26.761 42.297 26.796 42.334 26.903 42.357 L 27.056 42.391 L 27.084 42.397 C 27.087 42.444 27.089 42.488 27.087 42.535 C 27.084 42.564 27.061 42.567 27.035 42.564 C 26.884 42.561 26.733 42.559 26.582 42.559 C 26.397 42.559 26.216 42.564 26.034 42.567 L 25.989 42.567 C 25.989 42.517 25.987 42.47 25.991 42.423 C 25.991 42.412 26.013 42.397 26.027 42.394 L 26.208 42.357 C 26.286 42.339 26.322 42.303 26.327 42.232 C 26.348 41.895 26.362 41.56 26.327 41.223 C 26.319 41.158 26.301 41.092 26.27 41.032 C 26.175 40.844 25.968 40.763 25.727 40.821 C 25.614 40.847 25.512 40.896 25.413 40.956 C 25.37 40.983 25.344 41.027 25.347 41.074 C 25.347 41.409 25.347 41.743 25.349 42.078 L 25.349 42.208 C 25.351 42.297 25.394 42.344 25.491 42.365 C 25.552 42.376 25.614 42.386 25.684 42.397 Z" style="" transform="matrix(0.999994, 0.003574, -0.003574, 0.999994, 0.148608, -0.094547)"/>
  <path fill-rule="evenodd" clip-rule="evenodd" fill="#4F382B" d="M 36.539 40.563 C 36.57 40.688 36.568 40.801 36.469 40.89 C 36.37 40.973 36.244 40.945 36.122 40.926 C 36.133 40.984 36.145 41.036 36.152 41.088 C 36.197 41.47 36.02 41.755 35.64 41.917 C 35.496 41.977 35.342 42.001 35.187 42.011 C 35.109 42.016 35.04 42.071 35.033 42.131 C 35.026 42.191 35.066 42.254 35.147 42.272 C 35.243 42.293 35.342 42.299 35.442 42.309 C 35.652 42.333 35.864 42.343 36.074 42.377 C 36.391 42.429 36.563 42.685 36.509 42.981 C 36.462 43.242 36.296 43.433 36.07 43.579 C 35.687 43.825 35.267 43.898 34.818 43.773 C 34.561 43.7 34.382 43.543 34.32 43.289 C 34.287 43.164 34.323 43.049 34.424 42.963 C 34.544 42.861 34.679 42.769 34.807 42.675 L 34.847 42.636 L 34.799 42.604 C 34.67 42.547 34.566 42.469 34.526 42.333 C 34.511 42.286 34.526 42.254 34.568 42.231 C 34.639 42.191 34.71 42.15 34.781 42.108 C 34.816 42.09 34.849 42.069 34.88 42.045 C 34.922 42.016 34.918 41.993 34.868 41.974 C 34.75 41.935 34.646 41.878 34.563 41.786 C 34.429 41.637 34.391 41.457 34.403 41.266 C 34.417 40.973 34.592 40.777 34.873 40.652 C 35.206 40.503 35.538 40.495 35.881 40.628 C 36.006 40.678 36.138 40.688 36.273 40.681 C 36.374 40.673 36.462 40.639 36.539 40.563 Z M 35.312 42.68 C 35.062 42.68 34.984 42.709 34.835 42.848 C 34.67 43.004 34.672 43.219 34.835 43.378 C 34.962 43.496 35.116 43.551 35.291 43.566 C 35.491 43.587 35.69 43.579 35.874 43.485 C 36.07 43.383 36.169 43.198 36.124 43.01 C 36.086 42.853 35.963 42.782 35.815 42.743 C 35.642 42.696 35.468 42.685 35.312 42.68 Z M 34.821 41.193 C 34.828 41.258 34.833 41.324 34.849 41.386 C 34.889 41.551 34.965 41.695 35.142 41.768 C 35.347 41.854 35.609 41.818 35.699 41.548 C 35.76 41.368 35.753 41.175 35.68 41 C 35.649 40.921 35.59 40.853 35.515 40.803 C 35.338 40.686 35.014 40.673 34.882 40.929 C 34.84 41.013 34.823 41.099 34.821 41.193 Z" style="" transform="matrix(0.999994, 0.003574, -0.003574, 0.999994, 0.15099, -0.126366)"/>
  <path fill-rule="evenodd" clip-rule="evenodd" fill="#4F372B" d="M 32.295 40.513 C 32.302 40.542 32.314 40.576 32.314 40.607 C 32.316 40.67 32.309 40.73 32.307 40.793 L 32.307 40.848 L 32.361 40.809 C 32.517 40.688 32.682 40.586 32.874 40.534 C 33.223 40.435 33.572 40.613 33.688 40.944 C 33.731 41.07 33.747 41.198 33.749 41.329 C 33.752 41.621 33.754 41.914 33.759 42.204 C 33.759 42.309 33.771 42.33 33.877 42.359 C 33.938 42.377 34 42.387 34.063 42.398 C 34.097 42.403 34.113 42.413 34.111 42.445 L 34.111 42.474 C 34.108 42.596 34.099 42.602 33.974 42.602 C 33.672 42.599 33.372 42.602 33.072 42.604 C 32.98 42.604 32.98 42.607 32.97 42.523 L 32.968 42.476 C 32.975 42.406 32.977 42.408 33.053 42.398 C 33.103 42.39 33.152 42.377 33.202 42.366 C 33.254 42.353 33.277 42.319 33.284 42.272 C 33.287 42.249 33.291 42.225 33.291 42.202 C 33.287 41.883 33.294 41.564 33.275 41.245 C 33.261 40.986 33.048 40.835 32.772 40.85 C 32.637 40.861 32.508 40.903 32.399 40.976 C 32.323 41.023 32.309 41.093 32.309 41.169 C 32.312 41.467 32.314 41.765 32.319 42.063 C 32.319 42.129 32.321 42.194 32.328 42.259 C 32.335 42.33 32.361 42.359 32.434 42.374 C 32.508 42.387 32.581 42.398 32.656 42.408 L 32.661 42.463 C 32.666 42.591 32.652 42.602 32.517 42.602 C 32.205 42.599 31.894 42.602 31.582 42.604 C 31.532 42.604 31.514 42.591 31.514 42.544 L 31.514 42.526 C 31.504 42.413 31.509 42.408 31.627 42.387 L 31.681 42.377 C 31.809 42.351 31.842 42.319 31.842 42.199 C 31.849 41.82 31.849 41.444 31.856 41.062 C 31.856 41.007 31.832 40.965 31.778 40.944 C 31.702 40.913 31.625 40.882 31.549 40.853 C 31.504 40.835 31.455 40.824 31.455 40.772 C 31.455 40.733 31.497 40.696 31.558 40.686 C 31.681 40.662 31.804 40.644 31.924 40.615 C 32.047 40.586 32.165 40.55 32.295 40.513 Z" style="" transform="matrix(0.999994, 0.003574, -0.003574, 0.999994, 0.148728, -0.116901)"/>
  <path fill-rule="evenodd" clip-rule="evenodd" fill="#4F382B" d="M 39.035 41.523 C 39.028 41.876 38.928 42.164 38.659 42.378 C 38.317 42.65 37.786 42.744 37.351 42.54 C 37.165 42.451 37.028 42.318 36.938 42.146 C 36.801 41.879 36.768 41.599 36.841 41.312 C 36.91 41.029 37.094 40.823 37.37 40.687 C 37.656 40.551 37.956 40.499 38.272 40.569 C 38.671 40.661 38.959 40.964 39.016 41.348 C 39.028 41.419 39.03 41.487 39.035 41.523 Z M 38.57 41.714 L 38.555 41.712 C 38.555 41.678 38.558 41.644 38.553 41.612 C 38.541 41.403 38.492 41.205 38.362 41.029 C 38.239 40.867 38.071 40.768 37.852 40.755 C 37.609 40.739 37.403 40.865 37.33 41.097 C 37.224 41.445 37.259 41.785 37.448 42.104 C 37.533 42.242 37.656 42.347 37.819 42.399 C 38.142 42.504 38.428 42.368 38.513 42.062 C 38.544 41.947 38.553 41.829 38.57 41.714 Z" style="" transform="matrix(0.999994, 0.003574, -0.003574, 0.999994, 0.148899, -0.135257)"/>
  <path fill-rule="evenodd" clip-rule="evenodd" fill="#4F372B" d="M 31.125 41.523 C 31.116 41.776 31.054 42.011 30.884 42.215 C 30.702 42.435 30.455 42.55 30.171 42.602 C 29.838 42.66 29.522 42.607 29.255 42.398 C 29.128 42.299 29.04 42.171 28.981 42.027 C 28.887 41.789 28.863 41.546 28.922 41.298 C 28.986 41.034 29.144 40.83 29.394 40.694 C 29.682 40.537 29.994 40.467 30.327 40.537 C 30.754 40.629 31.002 40.887 31.092 41.279 C 31.111 41.361 31.113 41.442 31.125 41.523 Z M 30.655 41.69 L 30.643 41.687 L 30.643 41.64 C 30.634 41.408 30.587 41.185 30.438 40.992 C 30.327 40.848 30.178 40.757 29.987 40.731 C 29.678 40.691 29.475 40.861 29.409 41.094 C 29.319 41.397 29.35 41.698 29.484 41.985 C 29.569 42.166 29.701 42.304 29.907 42.372 C 30.226 42.477 30.516 42.338 30.599 42.032 C 30.627 41.92 30.636 41.805 30.655 41.69 Z" style="" transform="matrix(0.999994, 0.003574, -0.003574, 0.999994, 0.148752, -0.106981)"/>
  <path fill-rule="evenodd" clip-rule="evenodd" fill="#439934" d="M 38.624 28.584 C 38.846 29.177 39.004 29.781 39.056 30.411 C 39.12 31.187 39.091 31.958 38.914 32.724 L 38.891 32.787 C 38.836 32.787 38.78 32.779 38.725 32.787 C 38.27 32.855 37.812 32.923 37.356 32.993 C 36.884 33.064 36.412 33.132 35.942 33.208 C 35.774 33.234 35.566 33.202 35.5 33.417 L 35.467 33.427 L 35.491 32.144 L 35.467 29.049 L 35.687 29.012 C 36.046 28.96 36.407 28.903 36.766 28.85 C 37.195 28.788 37.625 28.725 38.055 28.662 C 38.244 28.636 38.435 28.61 38.624 28.584 Z" style="" transform="matrix(0.999994, 0.003574, -0.003574, 0.999994, 0.111052, -0.13303)"/>
  <path fill-rule="evenodd" clip-rule="evenodd" fill="#45A538" d="M 35.005 37.15 C 34.773 36.967 34.533 36.789 34.311 36.593 C 33.116 35.545 32.24 34.311 31.808 32.819 C 31.69 32.411 31.61 31.996 31.586 31.569 C 31.567 31.274 31.541 30.976 31.562 30.681 C 31.624 29.897 31.744 29.12 31.995 28.365 L 32.006 28.347 C 32.03 28.378 32.065 28.404 32.077 28.438 C 32.32 29.099 32.559 29.761 32.797 30.422 C 33.546 32.503 34.294 34.583 35.043 36.661 C 35.059 36.703 35.097 36.735 35.123 36.771 L 35.005 37.15 Z" style="" transform="matrix(0.999994, 0.003574, -0.003574, 0.999994, 0.117256, -0.118943)"/>
  <path fill-rule="evenodd" clip-rule="evenodd" fill="#46A037" d="M 38.639 28.582 C 38.45 28.608 38.259 28.634 38.07 28.66 C 37.64 28.723 37.21 28.786 36.781 28.848 C 36.422 28.901 36.061 28.958 35.702 29.01 L 35.482 29.047 L 35.48 28.914 C 35.473 28.804 35.461 28.694 35.461 28.584 L 35.435 26.488 C 35.43 26.052 35.421 25.612 35.411 25.176 C 35.407 24.901 35.397 24.632 35.385 24.36 C 35.378 24.214 35.352 24.068 35.343 23.921 C 35.336 23.838 35.345 23.754 35.348 23.67 C 35.459 23.872 35.569 24.075 35.683 24.277 C 35.865 24.593 36.155 24.826 36.417 25.079 C 37.449 26.088 38.183 27.259 38.639 28.582 Z" style="" transform="matrix(0.999994, 0.003574, -0.003574, 0.999994, 0.094442, -0.132033)"/>
  <path fill-rule="evenodd" clip-rule="evenodd" fill="#409433" d="M 35.452 33.426 L 35.485 33.416 C 35.551 33.201 35.759 33.233 35.927 33.207 C 36.397 33.131 36.869 33.063 37.341 32.992 C 37.797 32.922 38.255 32.854 38.71 32.786 C 38.765 32.778 38.821 32.786 38.878 32.786 C 38.791 33.068 38.724 33.358 38.616 33.633 C 38.491 33.946 38.342 34.252 38.186 34.55 C 37.948 34.997 37.655 35.413 37.315 35.794 C 37.05 36.09 36.755 36.362 36.465 36.631 C 36.3 36.78 36.108 36.903 35.929 37.033 L 35.884 37.007 L 35.717 36.874 L 35.544 36.521 C 35.429 36.111 35.362 35.69 35.353 35.266 L 35.358 35.196 L 35.381 34.885 C 35.388 34.778 35.4 34.673 35.403 34.566 C 35.421 34.187 35.436 33.805 35.452 33.426 Z" style="" transform="matrix(0.999994, 0.003574, -0.003574, 0.999994, 0.124997, -0.132428)"/>
  <path fill-rule="evenodd" clip-rule="evenodd" fill="#4FAA41" d="M 35.468 33.415 C 35.454 33.794 35.437 34.176 35.419 34.558 C 35.416 34.662 35.404 34.769 35.397 34.874 L 35.291 34.913 C 35.06 34.273 34.824 33.643 34.597 33.008 C 34.219 31.959 33.846 30.911 33.471 29.863 C 33.166 29.019 32.859 28.172 32.552 27.328 C 32.536 27.288 32.496 27.257 32.465 27.223 L 33.138 26.073 C 33.161 26.109 33.19 26.146 33.206 26.185 C 33.516 27.04 33.827 27.895 34.134 28.752 C 34.536 29.868 34.932 30.982 35.331 32.095 C 35.348 32.14 35.376 32.182 35.4 32.231 L 35.492 32.132 L 35.468 33.415 Z" style="" transform="matrix(0.999994, 0.003574, -0.003574, 0.999994, 0.109199, -0.121244)"/>
  <path fill-rule="evenodd" clip-rule="evenodd" fill="#4AA73C" d="M 32.458 27.221 C 32.489 27.255 32.529 27.286 32.545 27.326 C 32.852 28.17 33.159 29.017 33.464 29.861 C 33.839 30.909 34.212 31.957 34.59 33.006 C 34.817 33.641 35.053 34.271 35.284 34.911 L 35.39 34.872 L 35.367 35.183 L 35.345 35.253 C 35.308 35.593 35.277 35.933 35.234 36.27 C 35.211 36.44 35.164 36.605 35.126 36.772 C 35.1 36.736 35.062 36.704 35.046 36.662 C 34.295 34.584 33.549 32.504 32.8 30.423 C 32.562 29.762 32.323 29.1 32.08 28.439 C 32.068 28.405 32.033 28.379 32.009 28.348 L 32.458 27.221 Z" style="" transform="matrix(0.999994, 0.003574, -0.003574, 0.999994, 0.114571, -0.120238)"/>
  <path fill-rule="evenodd" clip-rule="evenodd" fill="#57AE47" d="M 35.499 32.133 L 35.407 32.232 C 35.381 32.183 35.355 32.141 35.338 32.096 C 34.939 30.983 34.54 29.869 34.141 28.753 C 33.834 27.896 33.523 27.041 33.213 26.186 C 33.197 26.147 33.168 26.11 33.145 26.074 L 33.976 25.057 C 34.002 25.088 34.04 25.12 34.051 25.156 C 34.283 25.784 34.512 26.411 34.738 27.041 C 34.951 27.629 35.161 28.217 35.376 28.803 C 35.39 28.845 35.44 28.871 35.473 28.905 L 35.475 29.038 L 35.499 32.133 Z" style="" transform="matrix(0.999994, 0.003574, -0.003574, 0.999994, 0.102595, -0.122484)"/>
  <path fill-rule="evenodd" clip-rule="evenodd" fill="#60B24F" d="M 35.48 28.906 C 35.447 28.872 35.397 28.846 35.383 28.804 C 35.168 28.218 34.958 27.63 34.745 27.042 C 34.519 26.412 34.29 25.785 34.058 25.157 C 34.047 25.121 34.009 25.089 33.983 25.058 C 34.254 24.812 34.514 24.559 34.795 24.321 C 35.045 24.114 35.246 23.892 35.255 23.56 L 35.274 23.495 L 35.348 23.662 C 35.345 23.746 35.336 23.83 35.343 23.913 C 35.352 24.06 35.378 24.206 35.385 24.352 C 35.397 24.622 35.404 24.893 35.411 25.168 C 35.421 25.604 35.43 26.041 35.435 26.48 L 35.459 28.576 C 35.461 28.686 35.473 28.796 35.48 28.906 Z" style="" transform="matrix(0.999994, 0.003574, -0.003574, 0.999994, 0.093862, -0.123963)"/>
  <path fill-rule="evenodd" clip-rule="evenodd" fill="#A9AA88" d="M 35.11 36.778 C 35.148 36.611 35.195 36.446 35.218 36.276 C 35.261 35.939 35.292 35.599 35.329 35.259 L 35.337 35.257 L 35.346 35.259 C 35.355 35.683 35.422 36.106 35.537 36.514 C 35.514 36.543 35.478 36.572 35.466 36.606 C 35.367 36.867 35.275 37.131 35.171 37.392 C 35.159 37.426 35.122 37.455 35.093 37.486 L 34.992 37.157 L 35.11 36.778 Z" style="" transform="matrix(0.999994, 0.003574, -0.003574, 0.999994, 0.130217, -0.125803)"/>
  <path fill-rule="evenodd" clip-rule="evenodd" fill="#B6B598" d="M 35.09 37.486 C 35.119 37.455 35.156 37.426 35.168 37.392 C 35.272 37.131 35.364 36.867 35.463 36.606 C 35.475 36.572 35.511 36.545 35.534 36.517 L 35.707 36.867 C 35.673 36.911 35.626 36.953 35.607 37.003 L 35.279 37.902 C 35.263 37.939 35.218 37.965 35.187 37.996 L 35.09 37.486 Z" style="" transform="matrix(0.999994, 0.003574, -0.003574, 0.999994, 0.133381, -0.126276)"/>
  <path fill-rule="evenodd" clip-rule="evenodd" fill="#C2C1A7" d="M 35.188 37.998 C 35.219 37.967 35.264 37.941 35.28 37.904 L 35.608 37.002 C 35.627 36.955 35.674 36.913 35.708 36.869 L 35.875 37.002 C 35.795 37.075 35.75 37.159 35.776 37.269 L 35.726 37.421 C 35.703 37.449 35.67 37.473 35.658 37.502 C 35.542 37.81 35.434 38.118 35.318 38.424 C 35.304 38.463 35.264 38.492 35.233 38.529 L 35.188 37.998 Z" style="" transform="matrix(0.999994, 0.003574, -0.003574, 0.999994, 0.134963, -0.126749)"/>
  <path fill-rule="evenodd" clip-rule="evenodd" fill="#CECDB7" d="M 35.231 38.529 C 35.262 38.492 35.302 38.461 35.316 38.424 C 35.432 38.118 35.54 37.81 35.656 37.502 C 35.668 37.473 35.701 37.449 35.724 37.421 L 35.654 38.131 C 35.635 38.15 35.609 38.168 35.599 38.192 L 35.366 38.811 C 35.349 38.853 35.318 38.892 35.295 38.929 C 35.273 38.903 35.236 38.879 35.233 38.85 C 35.226 38.743 35.231 38.633 35.231 38.529 Z" style="" transform="matrix(0.999994, 0.003574, -0.003574, 0.999994, 0.136664, -0.12655)"/>
  <path fill-rule="evenodd" clip-rule="evenodd" fill="#DBDAC7" d="M 35.291 38.928 C 35.314 38.891 35.347 38.852 35.364 38.81 L 35.595 38.191 C 35.605 38.167 35.631 38.149 35.652 38.13 L 35.652 38.593 L 35.484 38.993 L 35.291 38.928 Z" style="" transform="matrix(0.999994, 0.003574, -0.003574, 0.999994, 0.138045, -0.126529)"/>
  <path fill-rule="evenodd" clip-rule="evenodd" fill="#EBE9DC" d="M 35.484 38.993 L 35.652 38.593 L 35.685 39.066 L 35.484 38.993 Z" style="" transform="matrix(0.999994, 0.003574, -0.003574, 0.999994, 0.139004, -0.126931)"/>
  <path fill-rule="evenodd" clip-rule="evenodd" fill="#CECDB7" d="M 35.777 37.269 C 35.751 37.159 35.796 37.075 35.876 37.002 L 35.921 37.028 L 35.777 37.269 Z" style="" transform="matrix(0.999994, 0.003574, -0.003574, 0.999994, 0.132951, -0.127874)"/>
  <path fill-rule="evenodd" clip-rule="evenodd" fill="#4FAA41" d="M 35.35 35.259 L 35.341 35.257 L 35.333 35.259 L 35.355 35.189 L 35.35 35.259 Z" style="" transform="matrix(0.999994, 0.003574, -0.003574, 0.999994, 0.126116, -0.126094)"/>
</svg>