<?xml version="1.0" encoding="utf-8"?>
<svg width="70" height="70" viewBox="0 0 70 70" fill="none" xmlns="http://www.w3.org/2000/svg">
  <path d="M32.1663 2.31822C33.8796 1.32907 35.9904 1.32907 37.7037 2.31821L62.127 16.4191C63.8403 17.4082 64.8957 19.2362 64.8957 21.2145V49.4162C64.8957 51.3945 63.8403 53.2225 62.127 54.2117L37.7037 68.3125C35.9904 69.3017 33.8796 69.3017 32.1663 68.3125L7.74296 54.2117C6.02971 53.2225 4.97429 51.3945 4.97429 49.4162V21.2145C4.97429 19.2362 6.0297 17.4082 7.74295 16.4191L32.1663 2.31822Z" stroke="url(#paint0_linear_666_80)" stroke-opacity="0.3" stroke-width="1.10747"/>
  <path d="M33.5617 12.9031C34.7542 12.2146 36.2233 12.2146 37.4157 12.9031L54.4144 22.7173C55.6068 23.4057 56.3414 24.678 56.3414 26.0549V45.6833C56.3414 47.0602 55.6068 48.3325 54.4144 49.0209L37.4157 58.8351C36.2233 59.5235 34.7542 59.5236 33.5617 58.8351L16.5631 49.0209C15.3706 48.3325 14.6361 47.0602 14.6361 45.6833V26.0549C14.6361 24.678 15.3706 23.4057 16.5631 22.7173L33.5617 12.9031Z" fill="url(#paint1_linear_666_80)" fill-opacity="0.2" style="stroke-width: 0px; stroke: rgb(178, 77, 77);"/>
  <defs>
    <linearGradient id="paint0_linear_666_80" x1="0.339355" y1="0.719727" x2="69.5306" y2="69.911" gradientUnits="userSpaceOnUse">
      <stop stop-color="white"/>
      <stop offset="0.7656" stop-color="white" stop-opacity="0"/>
    </linearGradient>
    <linearGradient id="paint1_linear_666_80" x1="11.4102" y1="11.7905" x2="59.5673" y2="59.9477" gradientUnits="userSpaceOnUse">
      <stop stop-color="white"/>
      <stop offset="0.8281" stop-color="white" stop-opacity="0"/>
    </linearGradient>
  </defs>
  <path fill-rule="evenodd" clip-rule="evenodd" fill="#4FAA41" d="M 35.671 37.243 L 35.652 37.24 L 35.633 37.243 L 35.677 37.088 L 35.671 37.243 Z" style=""/>
  <path fill-rule="evenodd" clip-rule="evenodd" fill="#439934" d="M 44.098 27.98 C 44.688 29.69 45.115 31.436 45.254 33.245 C 45.427 35.49 45.349 37.72 44.876 39.928 C 44.861 39.989 44.835 40.046 44.816 40.105 C 44.667 40.105 44.514 40.087 44.37 40.109 C 43.143 40.302 41.918 40.502 40.694 40.7 C 39.426 40.905 38.159 41.103 36.895 41.321 C 36.446 41.399 35.892 41.306 35.711 41.927 C 35.706 41.943 35.656 41.946 35.624 41.955 L 35.686 38.253 L 35.623 29.321 L 36.214 29.219 C 37.178 29.061 38.144 28.9 39.11 28.748 C 40.263 28.565 41.416 28.386 42.569 28.207 C 43.077 28.128 43.588 28.056 44.098 27.98 Z" style=""/>
  <path fill-rule="evenodd" clip-rule="evenodd" fill="#45A538" d="M 34.406 52.748 C 33.784 52.213 33.14 51.701 32.542 51.138 C 29.331 48.111 26.984 44.545 25.827 40.248 C 25.507 39.066 25.295 37.863 25.226 36.641 C 25.179 35.786 25.109 34.922 25.17 34.072 C 25.33 31.808 25.659 29.566 26.323 27.387 L 26.359 27.336 C 26.423 27.422 26.516 27.498 26.547 27.595 C 27.198 29.504 27.841 31.413 28.479 33.324 C 30.49 39.328 32.498 45.332 34.513 51.335 C 34.551 51.453 34.654 51.549 34.727 51.656 L 34.406 52.748 Z" style=""/>
  <path fill-rule="evenodd" clip-rule="evenodd" fill="#46A037" d="M 44.098 27.98 C 43.588 28.056 43.077 28.128 42.568 28.206 C 41.415 28.385 40.262 28.563 39.11 28.747 C 38.143 28.899 37.178 29.06 36.212 29.218 L 35.622 29.32 L 35.619 28.935 C 35.6 28.618 35.566 28.301 35.562 27.985 C 35.536 25.968 35.521 23.95 35.496 21.931 C 35.48 20.669 35.457 19.407 35.432 18.144 C 35.415 17.358 35.398 16.573 35.362 15.79 C 35.344 15.369 35.276 14.951 35.248 14.529 C 35.233 14.287 35.255 14.044 35.259 13.801 C 35.56 14.383 35.854 14.971 36.164 15.549 C 36.653 16.465 37.432 17.138 38.132 17.875 C 40.904 20.781 42.872 24.163 44.098 27.98 Z" style=""/>
  <path fill-rule="evenodd" clip-rule="evenodd" fill="#409433" d="M 35.624 41.955 C 35.655 41.945 35.706 41.943 35.711 41.927 C 35.892 41.306 36.446 41.398 36.895 41.321 C 38.158 41.103 39.425 40.905 40.693 40.7 C 41.918 40.502 43.143 40.302 44.369 40.109 C 44.514 40.087 44.667 40.105 44.815 40.104 C 44.585 40.922 44.404 41.758 44.114 42.552 C 43.785 43.456 43.386 44.335 42.961 45.198 C 42.326 46.486 41.54 47.693 40.621 48.796 C 39.913 49.646 39.126 50.431 38.336 51.207 C 37.9 51.635 37.386 51.985 36.906 52.371 L 36.781 52.286 L 36.335 51.904 L 35.872 50.89 C 35.556 49.707 35.384 48.491 35.359 47.266 L 35.369 47.06 L 35.431 46.166 C 35.451 45.861 35.479 45.555 35.492 45.25 C 35.539 44.152 35.581 43.054 35.624 41.955 Z" style=""/>
  <path fill-rule="evenodd" clip-rule="evenodd" fill="#4FAA41" d="M 35.624 41.955 C 35.581 43.054 35.539 44.152 35.493 45.251 C 35.479 45.556 35.452 45.862 35.432 46.166 L 35.15 46.272 C 34.524 44.431 33.897 42.607 33.285 40.78 C 32.271 37.755 31.271 34.727 30.258 31.703 C 29.442 29.262 28.62 26.823 27.791 24.386 C 27.753 24.271 27.642 24.182 27.564 24.079 L 29.368 20.764 C 29.43 20.872 29.511 20.972 29.55 21.088 C 30.386 23.556 31.216 26.027 32.043 28.498 C 33.117 31.715 34.185 34.932 35.258 38.148 C 35.301 38.278 35.373 38.395 35.439 38.539 L 35.686 38.252 L 35.624 41.955 Z" style=""/>
  <path fill-rule="evenodd" clip-rule="evenodd" fill="#4AA73C" d="M 27.565 24.08 C 27.643 24.182 27.753 24.271 27.792 24.386 C 28.62 26.823 29.442 29.262 30.259 31.703 C 31.271 34.727 32.271 37.755 33.286 40.781 C 33.897 42.607 34.524 44.431 35.15 46.273 L 35.432 46.166 L 35.37 47.061 L 35.312 47.266 C 35.214 48.245 35.13 49.225 35.012 50.201 C 34.951 50.69 34.824 51.171 34.727 51.656 C 34.654 51.55 34.551 51.453 34.514 51.335 C 32.498 45.332 30.49 39.328 28.479 33.325 C 27.842 31.413 27.198 29.504 26.548 27.595 C 26.516 27.499 26.424 27.423 26.359 27.337 L 27.565 24.08 Z" style=""/>
  <path fill-rule="evenodd" clip-rule="evenodd" fill="#57AE47" d="M 35.686 38.252 L 35.439 38.539 C 35.373 38.395 35.3 38.278 35.258 38.149 C 34.185 34.934 33.117 31.716 32.042 28.498 C 31.216 26.027 30.384 23.556 29.55 21.088 C 29.511 20.973 29.43 20.872 29.368 20.764 L 31.598 17.83 C 31.668 17.924 31.768 18.008 31.804 18.114 C 32.425 19.927 33.038 21.741 33.647 23.557 C 34.216 25.254 34.778 26.951 35.354 28.646 C 35.394 28.759 35.528 28.84 35.618 28.935 L 35.622 29.321 C 35.644 32.297 35.666 35.276 35.686 38.252 Z" style=""/>
  <path fill-rule="evenodd" clip-rule="evenodd" fill="#60B24F" d="M 35.619 28.935 C 35.529 28.839 35.395 28.759 35.356 28.645 C 34.778 26.951 34.217 25.253 33.648 23.556 C 33.038 21.74 32.425 19.926 31.805 18.113 C 31.769 18.006 31.669 17.923 31.599 17.829 C 32.323 17.12 33.026 16.385 33.781 15.706 C 34.452 15.104 34.991 14.459 35.016 13.509 C 35.016 13.469 35.037 13.429 35.069 13.319 L 35.26 13.8 C 35.255 14.044 35.234 14.287 35.248 14.529 C 35.277 14.95 35.344 15.369 35.363 15.79 C 35.399 16.572 35.416 17.358 35.432 18.144 C 35.457 19.407 35.48 20.669 35.497 21.931 C 35.521 23.949 35.537 25.968 35.563 27.985 C 35.566 28.302 35.6 28.618 35.619 28.935 Z" style=""/>
  <path fill-rule="evenodd" clip-rule="evenodd" fill="#A9AA88" d="M 34.726 51.656 C 34.823 51.171 34.95 50.69 35.011 50.201 C 35.129 49.225 35.214 48.244 35.311 47.266 L 35.335 47.262 L 35.359 47.266 C 35.385 48.491 35.556 49.707 35.873 50.89 C 35.808 50.976 35.716 51.051 35.682 51.148 C 35.413 51.903 35.162 52.664 34.893 53.419 C 34.856 53.522 34.753 53.603 34.681 53.693 L 34.405 52.748 L 34.726 51.656 Z" style=""/>
  <path fill-rule="evenodd" clip-rule="evenodd" fill="#B6B598" d="M 34.681 53.693 C 34.754 53.604 34.857 53.522 34.893 53.42 C 35.162 52.664 35.414 51.904 35.683 51.149 C 35.717 51.051 35.808 50.976 35.873 50.89 L 36.335 51.904 C 36.245 52.034 36.118 52.151 36.067 52.296 L 35.182 54.896 C 35.146 55 35.021 55.074 34.938 55.162 L 34.681 53.693 Z" style=""/>
  <path fill-rule="evenodd" clip-rule="evenodd" fill="#C2C1A7" d="M 34.938 55.161 C 35.021 55.074 35.146 55 35.182 54.896 L 36.067 52.295 C 36.117 52.151 36.245 52.034 36.335 51.904 L 36.782 52.286 C 36.566 52.5 36.446 52.747 36.52 53.058 L 36.383 53.503 C 36.32 53.58 36.232 53.647 36.2 53.734 C 35.892 54.619 35.597 55.508 35.286 56.394 C 35.245 56.506 35.136 56.595 35.059 56.694 C 35.019 56.183 34.978 55.673 34.938 55.161 Z" style=""/>
  <path fill-rule="evenodd" clip-rule="evenodd" fill="#CECDB7" d="M 35.059 56.694 C 35.136 56.595 35.245 56.506 35.286 56.394 C 35.598 55.51 35.892 54.62 36.2 53.734 C 36.233 53.647 36.32 53.58 36.383 53.503 L 36.195 55.547 C 36.146 55.605 36.074 55.656 36.049 55.721 C 35.837 56.317 35.637 56.916 35.425 57.51 C 35.382 57.632 35.297 57.742 35.231 57.855 C 35.173 57.78 35.069 57.706 35.063 57.626 C 35.045 57.317 35.058 57.004 35.059 56.694 Z" style=""/>
  <path fill-rule="evenodd" clip-rule="evenodd" fill="#DBDAC7" d="M 35.231 57.855 C 35.297 57.742 35.381 57.632 35.425 57.51 C 35.637 56.916 35.837 56.318 36.048 55.721 C 36.073 55.656 36.146 55.605 36.195 55.547 L 36.199 56.888 L 35.752 58.038 L 35.231 57.855 Z" style=""/>
  <path fill-rule="evenodd" clip-rule="evenodd" fill="#EBE9DC" d="M 35.752 58.038 L 36.199 56.888 L 36.293 58.25 L 35.752 58.038 Z" style=""/>
  <path fill-rule="evenodd" clip-rule="evenodd" fill="#CECDB7" d="M 36.52 53.058 C 36.446 52.748 36.565 52.5 36.782 52.286 L 36.906 52.371 L 36.52 53.058 Z" style=""/>
  <path fill-rule="evenodd" clip-rule="evenodd" fill="#4FAA41" d="M 35.359 47.266 L 35.335 47.262 L 35.311 47.266 L 35.369 47.061 L 35.359 47.266 Z" style=""/>
</svg>