<?xml version="1.0" encoding="utf-8"?>
<svg viewBox="0 0 128 128" xmlns="http://www.w3.org/2000/svg">
  <path fill-rule="evenodd" clip-rule="evenodd" fill="#94795D" d="M 10.451 9.341 C 10.464 9.32 10.477 9.302 10.487 9.283 C 10.494 9.271 10.504 9.269 10.518 9.269 C 10.604 9.271 10.691 9.273 10.777 9.274 C 10.851 9.275 10.924 9.273 10.997 9.273 C 11.08 9.272 11.162 9.268 11.245 9.27 C 11.355 9.273 11.462 9.291 11.562 9.332 C 11.68 9.381 11.77 9.455 11.831 9.554 C 11.87 9.617 11.894 9.685 11.902 9.755 C 11.915 9.858 11.907 9.958 11.868 10.057 C 11.82 10.178 11.728 10.272 11.602 10.341 C 11.504 10.395 11.397 10.427 11.283 10.445 C 11.161 10.465 11.039 10.458 10.917 10.459 C 10.784 10.459 10.65 10.457 10.517 10.455 C 10.493 10.455 10.49 10.451 10.496 10.433 L 10.501 10.415 C 10.514 10.381 10.521 10.379 10.563 10.374 C 10.593 10.37 10.621 10.361 10.646 10.347 C 10.66 10.339 10.666 10.319 10.671 10.304 C 10.676 10.29 10.676 10.275 10.676 10.261 C 10.678 10.042 10.68 9.823 10.681 9.604 C 10.681 9.548 10.68 9.494 10.676 9.438 C 10.674 9.399 10.649 9.373 10.594 9.364 C 10.552 9.357 10.509 9.351 10.466 9.345 L 10.451 9.341 Z M 11.675 9.871 C 11.669 9.827 11.666 9.783 11.657 9.741 C 11.635 9.638 11.581 9.548 11.486 9.477 C 11.334 9.363 11.15 9.346 10.958 9.359 C 10.914 9.363 10.905 9.375 10.904 9.413 C 10.903 9.467 10.902 9.52 10.902 9.574 C 10.902 9.745 10.902 9.915 10.902 10.085 C 10.902 10.134 10.902 10.182 10.904 10.231 C 10.906 10.28 10.927 10.321 10.985 10.341 C 11.076 10.371 11.172 10.375 11.267 10.362 C 11.42 10.343 11.526 10.268 11.597 10.156 C 11.654 10.068 11.67 9.971 11.675 9.871 Z M 12.045 10.451 C 12.044 10.424 12.056 10.403 12.072 10.382 C 12.077 10.377 12.091 10.377 12.101 10.375 L 12.189 10.361 C 12.22 10.355 12.236 10.338 12.24 10.313 C 12.243 10.296 12.246 10.279 12.246 10.262 C 12.248 10.128 12.25 9.994 12.251 9.86 C 12.252 9.726 12.251 9.592 12.251 9.457 L 12.25 9.431 C 12.247 9.389 12.222 9.366 12.171 9.36 L 12.061 9.345 C 12.047 9.344 12.042 9.339 12.047 9.329 C 12.055 9.311 12.064 9.293 12.076 9.277 C 12.08 9.272 12.095 9.269 12.105 9.27 C 12.158 9.271 12.211 9.274 12.264 9.274 L 12.723 9.271 C 12.812 9.271 12.898 9.284 12.977 9.32 C 13.064 9.359 13.114 9.419 13.127 9.502 C 13.142 9.588 13.11 9.662 13.036 9.72 C 13.004 9.743 12.964 9.759 12.929 9.779 L 12.917 9.785 C 12.95 9.795 12.982 9.804 13.013 9.815 C 13.103 9.845 13.175 9.894 13.213 9.971 C 13.243 10.033 13.243 10.097 13.225 10.16 C 13.197 10.26 13.12 10.326 13.018 10.376 C 12.923 10.423 12.82 10.451 12.71 10.455 C 12.609 10.459 12.508 10.458 12.406 10.459 L 12.347 10.459 C 12.249 10.457 12.151 10.455 12.054 10.453 L 12.045 10.451 Z M 12.466 10.062 L 12.468 10.062 C 12.468 10.104 12.467 10.146 12.468 10.188 C 12.469 10.215 12.467 10.243 12.474 10.269 C 12.485 10.309 12.506 10.344 12.559 10.355 C 12.629 10.371 12.701 10.373 12.773 10.363 C 12.863 10.35 12.933 10.312 12.973 10.241 C 13.002 10.187 13.007 10.131 12.997 10.073 C 12.983 9.998 12.935 9.942 12.855 9.906 C 12.803 9.882 12.747 9.868 12.688 9.866 C 12.621 9.864 12.554 9.863 12.488 9.862 C 12.469 9.861 12.466 9.869 12.466 9.883 C 12.467 9.942 12.466 10.002 12.466 10.062 Z M 12.609 9.776 C 12.645 9.774 12.686 9.774 12.727 9.77 C 12.806 9.764 12.861 9.73 12.89 9.667 C 12.904 9.635 12.903 9.602 12.904 9.569 C 12.905 9.482 12.845 9.411 12.747 9.382 C 12.671 9.359 12.593 9.359 12.515 9.361 C 12.483 9.361 12.469 9.373 12.469 9.4 L 12.463 9.751 C 12.463 9.765 12.47 9.771 12.486 9.771 L 12.609 9.776 Z" style=""/>
  <path fill-rule="evenodd" clip-rule="evenodd" fill="#50382B" d="M 4.615 10.383 L 4.61 10.443 C 4.557 10.443 4.509 10.443 4.462 10.444 C 4.372 10.445 4.282 10.446 4.192 10.447 L 4.184 10.447 C 4.171 10.446 4.148 10.446 4.147 10.443 C 4.143 10.425 4.145 10.406 4.145 10.387 C 4.145 10.385 4.154 10.383 4.159 10.382 L 4.229 10.369 C 4.272 10.359 4.288 10.343 4.29 10.305 C 4.292 10.263 4.295 10.22 4.295 10.178 C 4.296 10.072 4.295 9.967 4.296 9.863 C 4.296 9.838 4.285 9.82 4.259 9.81 C 4.226 9.798 4.193 9.787 4.161 9.775 C 4.145 9.77 4.125 9.767 4.127 9.749 C 4.128 9.732 4.148 9.727 4.166 9.723 C 4.242 9.708 4.319 9.694 4.395 9.679 C 4.419 9.674 4.443 9.665 4.473 9.657 C 4.474 9.67 4.476 9.682 4.476 9.695 L 4.472 9.756 C 4.472 9.763 4.476 9.771 4.482 9.775 C 4.486 9.777 4.498 9.773 4.504 9.769 C 4.569 9.728 4.638 9.692 4.716 9.671 C 4.837 9.638 4.942 9.668 5.015 9.757 C 5.041 9.788 5.041 9.788 5.077 9.766 C 5.138 9.728 5.201 9.696 5.274 9.674 C 5.431 9.626 5.582 9.686 5.636 9.82 C 5.656 9.868 5.664 9.918 5.664 9.969 L 5.662 10.308 C 5.662 10.336 5.673 10.351 5.706 10.36 C 5.741 10.37 5.778 10.377 5.818 10.385 L 5.808 10.444 C 5.762 10.444 5.721 10.443 5.679 10.444 C 5.577 10.445 5.475 10.445 5.372 10.447 C 5.355 10.447 5.35 10.443 5.349 10.43 C 5.346 10.385 5.345 10.385 5.396 10.375 L 5.413 10.371 C 5.462 10.36 5.478 10.347 5.478 10.305 C 5.48 10.186 5.482 10.065 5.475 9.945 C 5.468 9.821 5.351 9.755 5.207 9.787 C 5.161 9.797 5.118 9.815 5.078 9.839 C 5.065 9.847 5.063 9.856 5.064 9.87 C 5.067 9.923 5.071 9.976 5.071 10.029 C 5.072 10.122 5.071 10.214 5.071 10.307 C 5.071 10.345 5.086 10.359 5.131 10.368 L 5.196 10.381 L 5.208 10.383 C 5.209 10.401 5.21 10.418 5.209 10.436 C 5.208 10.447 5.198 10.448 5.187 10.447 C 5.123 10.446 5.059 10.445 4.995 10.445 C 4.917 10.445 4.84 10.447 4.763 10.448 L 4.744 10.448 C 4.744 10.429 4.743 10.411 4.745 10.393 C 4.745 10.389 4.754 10.383 4.76 10.382 L 4.837 10.368 C 4.87 10.361 4.885 10.347 4.887 10.32 C 4.896 10.191 4.902 10.063 4.887 9.934 C 4.884 9.909 4.876 9.884 4.863 9.861 C 4.823 9.789 4.735 9.758 4.633 9.78 C 4.585 9.79 4.542 9.809 4.5 9.832 C 4.482 9.842 4.471 9.859 4.472 9.877 C 4.472 10.005 4.472 10.133 4.473 10.261 L 4.473 10.311 C 4.474 10.345 4.492 10.363 4.533 10.371 C 4.559 10.375 4.585 10.379 4.615 10.383 Z" style=""/>
  <path fill-rule="evenodd" clip-rule="evenodd" fill="#4F382B" d="M 9.214 9.67 C 9.227 9.718 9.226 9.761 9.184 9.795 C 9.142 9.827 9.089 9.816 9.037 9.809 C 9.042 9.831 9.047 9.851 9.05 9.871 C 9.069 10.017 8.994 10.126 8.833 10.188 C 8.772 10.211 8.707 10.22 8.641 10.224 C 8.608 10.226 8.579 10.247 8.576 10.27 C 8.573 10.293 8.59 10.317 8.624 10.324 C 8.665 10.332 8.707 10.334 8.749 10.338 C 8.838 10.347 8.928 10.351 9.017 10.364 C 9.151 10.384 9.224 10.482 9.201 10.595 C 9.181 10.695 9.111 10.768 9.015 10.824 C 8.853 10.918 8.675 10.946 8.485 10.898 C 8.376 10.87 8.3 10.81 8.274 10.713 C 8.26 10.665 8.275 10.621 8.318 10.588 C 8.369 10.549 8.426 10.514 8.48 10.478 L 8.497 10.463 L 8.477 10.451 C 8.422 10.429 8.378 10.399 8.361 10.347 C 8.355 10.329 8.361 10.317 8.379 10.308 C 8.409 10.293 8.439 10.277 8.469 10.261 C 8.484 10.254 8.498 10.246 8.511 10.237 C 8.529 10.226 8.527 10.217 8.506 10.21 C 8.456 10.195 8.412 10.173 8.377 10.138 C 8.32 10.081 8.304 10.012 8.309 9.939 C 8.315 9.827 8.389 9.752 8.508 9.704 C 8.649 9.647 8.79 9.644 8.935 9.695 C 8.988 9.714 9.044 9.718 9.101 9.715 C 9.144 9.712 9.181 9.699 9.214 9.67 Z M 8.694 10.48 C 8.588 10.48 8.555 10.491 8.492 10.544 C 8.422 10.604 8.423 10.686 8.492 10.747 C 8.546 10.792 8.611 10.813 8.685 10.819 C 8.77 10.827 8.854 10.824 8.932 10.788 C 9.015 10.749 9.057 10.678 9.038 10.606 C 9.022 10.546 8.97 10.519 8.907 10.504 C 8.834 10.486 8.76 10.482 8.694 10.48 Z M 8.486 9.911 C 8.489 9.936 8.491 9.961 8.498 9.985 C 8.515 10.048 8.547 10.103 8.622 10.131 C 8.709 10.164 8.82 10.15 8.858 10.047 C 8.884 9.978 8.881 9.904 8.85 9.837 C 8.837 9.807 8.812 9.781 8.78 9.762 C 8.705 9.717 8.568 9.712 8.512 9.81 C 8.494 9.842 8.487 9.875 8.486 9.911 Z" style=""/>
  <path fill-rule="evenodd" clip-rule="evenodd" fill="#4F372B" d="M 7.415 9.654 C 7.418 9.665 7.423 9.678 7.423 9.69 C 7.424 9.714 7.421 9.737 7.42 9.761 L 7.42 9.782 L 7.443 9.767 C 7.509 9.721 7.579 9.682 7.66 9.662 C 7.808 9.624 7.956 9.692 8.005 9.819 C 8.023 9.867 8.03 9.916 8.031 9.966 C 8.032 10.078 8.033 10.19 8.035 10.301 C 8.035 10.341 8.04 10.349 8.085 10.36 C 8.111 10.367 8.137 10.371 8.164 10.375 C 8.178 10.377 8.185 10.381 8.184 10.393 L 8.184 10.404 C 8.183 10.451 8.179 10.453 8.126 10.453 C 7.998 10.452 7.871 10.453 7.744 10.454 C 7.705 10.454 7.705 10.455 7.701 10.423 L 7.7 10.405 C 7.703 10.378 7.704 10.379 7.736 10.375 C 7.757 10.372 7.778 10.367 7.799 10.363 C 7.821 10.358 7.831 10.345 7.834 10.327 C 7.835 10.318 7.837 10.309 7.837 10.3 C 7.835 10.178 7.838 10.056 7.83 9.934 C 7.824 9.835 7.734 9.777 7.617 9.783 C 7.56 9.787 7.505 9.803 7.459 9.831 C 7.427 9.849 7.421 9.876 7.421 9.905 C 7.422 10.019 7.423 10.133 7.425 10.247 C 7.425 10.272 7.426 10.297 7.429 10.322 C 7.432 10.349 7.443 10.36 7.474 10.366 C 7.505 10.371 7.536 10.375 7.568 10.379 L 7.57 10.4 C 7.572 10.449 7.566 10.453 7.509 10.453 C 7.377 10.452 7.245 10.453 7.113 10.454 C 7.092 10.454 7.084 10.449 7.084 10.431 L 7.084 10.424 C 7.08 10.381 7.082 10.379 7.132 10.371 L 7.155 10.367 C 7.209 10.357 7.223 10.345 7.223 10.299 C 7.226 10.154 7.226 10.01 7.229 9.864 C 7.229 9.843 7.219 9.827 7.196 9.819 C 7.164 9.807 7.131 9.795 7.099 9.784 C 7.08 9.777 7.059 9.773 7.059 9.753 C 7.059 9.738 7.077 9.724 7.103 9.72 C 7.155 9.711 7.207 9.704 7.258 9.693 C 7.31 9.682 7.36 9.668 7.415 9.654 Z" style=""/>
  <path fill-rule="evenodd" clip-rule="evenodd" fill="#4F382B" d="M 10.27 10.034 C 10.267 10.169 10.225 10.279 10.111 10.361 C 9.966 10.465 9.741 10.501 9.557 10.423 C 9.478 10.389 9.42 10.338 9.382 10.272 C 9.324 10.17 9.31 10.063 9.341 9.953 C 9.37 9.845 9.448 9.766 9.565 9.714 C 9.686 9.662 9.813 9.642 9.947 9.669 C 10.116 9.704 10.238 9.82 10.262 9.967 C 10.267 9.994 10.268 10.02 10.27 10.034 Z M 10.073 10.107 L 10.067 10.106 C 10.067 10.093 10.068 10.08 10.066 10.068 C 10.061 9.988 10.04 9.912 9.985 9.845 C 9.933 9.783 9.862 9.745 9.769 9.74 C 9.666 9.734 9.579 9.782 9.548 9.871 C 9.503 10.004 9.518 10.134 9.598 10.256 C 9.634 10.309 9.686 10.349 9.755 10.369 C 9.892 10.409 10.013 10.357 10.049 10.24 C 10.062 10.196 10.066 10.151 10.073 10.107 Z" style=""/>
  <path fill-rule="evenodd" clip-rule="evenodd" fill="#4F372B" d="M 6.919 10.044 C 6.915 10.141 6.889 10.231 6.817 10.309 C 6.74 10.393 6.635 10.437 6.515 10.457 C 6.374 10.479 6.24 10.459 6.127 10.379 C 6.073 10.341 6.036 10.292 6.011 10.237 C 5.971 10.146 5.961 10.053 5.986 9.958 C 6.013 9.857 6.08 9.779 6.186 9.727 C 6.308 9.667 6.44 9.64 6.581 9.667 C 6.762 9.702 6.867 9.801 6.905 9.951 C 6.913 9.982 6.914 10.013 6.919 10.044 Z M 6.72 10.108 L 6.715 10.107 L 6.715 10.089 C 6.711 10 6.691 9.915 6.628 9.841 C 6.581 9.786 6.518 9.751 6.437 9.741 C 6.306 9.726 6.22 9.791 6.192 9.88 C 6.154 9.996 6.167 10.111 6.224 10.221 C 6.26 10.29 6.316 10.343 6.403 10.369 C 6.538 10.409 6.661 10.356 6.696 10.239 C 6.708 10.196 6.712 10.152 6.72 10.108 Z" style=""/>
  <path fill-rule="evenodd" clip-rule="evenodd" fill="#439934" d="M 10.079 5.084 C 10.173 5.311 10.24 5.542 10.262 5.783 C 10.289 6.08 10.277 6.375 10.202 6.668 L 10.192 6.692 C 10.169 6.692 10.145 6.689 10.122 6.692 C 9.929 6.718 9.735 6.744 9.542 6.771 C 9.342 6.798 9.142 6.824 8.943 6.853 C 8.872 6.863 8.784 6.851 8.756 6.933 L 8.742 6.937 L 8.752 6.446 L 8.742 5.262 L 8.835 5.248 C 8.987 5.228 9.14 5.206 9.292 5.186 C 9.474 5.162 9.656 5.138 9.838 5.114 C 9.918 5.104 9.999 5.094 10.079 5.084 Z" style=""/>
  <path fill-rule="evenodd" clip-rule="evenodd" fill="#45A538" d="M 8.55 8.367 C 8.452 8.297 8.35 8.229 8.256 8.154 C 7.75 7.753 7.379 7.281 7.196 6.71 C 7.146 6.554 7.112 6.395 7.102 6.232 C 7.094 6.119 7.083 6.005 7.092 5.892 C 7.118 5.592 7.169 5.295 7.275 5.006 L 7.28 4.999 C 7.29 5.011 7.305 5.021 7.31 5.034 C 7.413 5.287 7.514 5.54 7.615 5.793 C 7.932 6.589 8.249 7.385 8.566 8.18 C 8.573 8.196 8.589 8.208 8.6 8.222 L 8.55 8.367 Z" style=""/>
  <path fill-rule="evenodd" clip-rule="evenodd" fill="#46A037" d="M 10.079 5.084 C 9.999 5.094 9.918 5.104 9.838 5.114 C 9.656 5.138 9.474 5.162 9.292 5.186 C 9.14 5.206 8.987 5.228 8.835 5.248 L 8.742 5.262 L 8.741 5.211 C 8.738 5.169 8.733 5.127 8.733 5.085 L 8.722 4.283 C 8.72 4.116 8.716 3.948 8.712 3.781 C 8.71 3.676 8.706 3.573 8.701 3.469 C 8.698 3.413 8.687 3.357 8.683 3.301 C 8.68 3.269 8.684 3.237 8.685 3.205 C 8.732 3.282 8.779 3.36 8.827 3.437 C 8.904 3.558 9.027 3.647 9.138 3.744 C 9.575 4.13 9.886 4.578 10.079 5.084 Z" style=""/>
  <path fill-rule="evenodd" clip-rule="evenodd" fill="#409433" d="M 8.742 6.937 L 8.756 6.933 C 8.784 6.851 8.872 6.863 8.943 6.853 C 9.142 6.824 9.342 6.798 9.542 6.771 C 9.735 6.744 9.929 6.718 10.122 6.692 C 10.145 6.689 10.169 6.692 10.193 6.692 C 10.156 6.8 10.128 6.911 10.082 7.016 C 10.029 7.136 9.966 7.253 9.9 7.367 C 9.799 7.538 9.675 7.697 9.531 7.843 C 9.419 7.956 9.294 8.06 9.171 8.163 C 9.101 8.22 9.02 8.267 8.944 8.317 L 8.925 8.307 L 8.854 8.256 L 8.781 8.121 C 8.732 7.964 8.704 7.803 8.7 7.641 L 8.702 7.614 L 8.712 7.495 C 8.715 7.454 8.72 7.414 8.721 7.373 C 8.729 7.228 8.735 7.082 8.742 6.937 Z" style=""/>
  <path fill-rule="evenodd" clip-rule="evenodd" fill="#4FAA41" d="M 8.742 6.937 C 8.736 7.082 8.729 7.228 8.721 7.374 C 8.72 7.414 8.715 7.455 8.712 7.495 L 8.667 7.51 C 8.569 7.265 8.469 7.024 8.373 6.781 C 8.213 6.38 8.055 5.979 7.896 5.578 C 7.767 5.255 7.637 4.931 7.507 4.608 C 7.5 4.593 7.483 4.581 7.47 4.568 L 7.755 4.128 C 7.765 4.142 7.777 4.156 7.784 4.171 C 7.915 4.498 8.047 4.825 8.177 5.153 C 8.347 5.58 8.515 6.006 8.684 6.432 C 8.691 6.449 8.703 6.465 8.713 6.484 L 8.752 6.446 L 8.742 6.937 Z" style=""/>
  <path fill-rule="evenodd" clip-rule="evenodd" fill="#4AA73C" d="M 7.47 4.568 C 7.483 4.581 7.5 4.593 7.507 4.608 C 7.637 4.931 7.767 5.255 7.896 5.578 C 8.055 5.979 8.213 6.38 8.373 6.781 C 8.469 7.024 8.569 7.265 8.667 7.51 L 8.712 7.495 L 8.702 7.614 L 8.693 7.641 C 8.677 7.771 8.664 7.901 8.646 8.03 C 8.636 8.095 8.616 8.158 8.6 8.222 C 8.589 8.208 8.573 8.196 8.566 8.18 C 8.248 7.385 7.932 6.589 7.615 5.793 C 7.514 5.54 7.413 5.287 7.31 5.034 C 7.305 5.021 7.29 5.011 7.28 4.999 L 7.47 4.568 Z" style=""/>
  <path fill-rule="evenodd" clip-rule="evenodd" fill="#57AE47" d="M 8.752 6.446 L 8.713 6.484 C 8.702 6.465 8.691 6.449 8.684 6.432 C 8.515 6.006 8.346 5.58 8.177 5.153 C 8.047 4.825 7.915 4.498 7.784 4.171 C 7.777 4.156 7.765 4.142 7.755 4.128 L 8.107 3.739 C 8.118 3.751 8.134 3.763 8.139 3.777 C 8.237 4.017 8.334 4.257 8.43 4.498 C 8.52 4.723 8.609 4.948 8.7 5.172 C 8.706 5.188 8.727 5.198 8.741 5.211 L 8.742 5.262 L 8.752 6.446 Z" style=""/>
  <path fill-rule="evenodd" clip-rule="evenodd" fill="#60B24F" d="M 8.741 5.211 C 8.727 5.198 8.706 5.188 8.7 5.172 C 8.609 4.948 8.52 4.723 8.43 4.498 C 8.334 4.257 8.237 4.017 8.139 3.777 C 8.134 3.763 8.118 3.751 8.107 3.739 C 8.222 3.645 8.332 3.548 8.451 3.457 C 8.557 3.378 8.642 3.293 8.646 3.166 L 8.654 3.141 L 8.685 3.205 C 8.684 3.237 8.68 3.269 8.683 3.301 C 8.687 3.357 8.698 3.413 8.701 3.469 C 8.706 3.572 8.709 3.676 8.712 3.781 C 8.716 3.948 8.72 4.115 8.722 4.283 L 8.732 5.085 C 8.733 5.127 8.738 5.169 8.741 5.211 Z" style=""/>
  <path fill-rule="evenodd" clip-rule="evenodd" fill="#A9AA88" d="M 8.6 8.222 C 8.616 8.158 8.636 8.095 8.646 8.03 C 8.664 7.901 8.677 7.771 8.693 7.641 L 8.696 7.64 L 8.7 7.641 C 8.704 7.803 8.732 7.965 8.781 8.121 C 8.771 8.132 8.756 8.143 8.751 8.156 C 8.709 8.256 8.67 8.357 8.626 8.457 C 8.621 8.47 8.605 8.481 8.593 8.493 L 8.55 8.367 L 8.6 8.222 Z" style=""/>
  <path fill-rule="evenodd" clip-rule="evenodd" fill="#B6B598" d="M 8.593 8.493 C 8.605 8.481 8.621 8.47 8.626 8.457 C 8.67 8.357 8.709 8.256 8.751 8.156 C 8.756 8.143 8.771 8.133 8.781 8.122 L 8.854 8.256 C 8.84 8.273 8.82 8.289 8.812 8.308 L 8.673 8.652 C 8.666 8.666 8.647 8.676 8.634 8.688 L 8.593 8.493 Z" style=""/>
  <path fill-rule="evenodd" clip-rule="evenodd" fill="#C2C1A7" d="M 8.634 8.688 C 8.647 8.676 8.666 8.666 8.673 8.652 L 8.812 8.307 C 8.82 8.289 8.84 8.273 8.854 8.256 L 8.925 8.307 C 8.891 8.335 8.872 8.367 8.883 8.409 L 8.862 8.467 C 8.852 8.478 8.838 8.487 8.833 8.498 C 8.784 8.616 8.738 8.734 8.689 8.851 C 8.683 8.866 8.666 8.877 8.653 8.891 L 8.634 8.688 Z" style=""/>
  <path fill-rule="evenodd" clip-rule="evenodd" fill="#CECDB7" d="M 8.653 8.891 C 8.666 8.877 8.683 8.865 8.689 8.851 C 8.738 8.734 8.784 8.616 8.833 8.498 C 8.838 8.487 8.852 8.478 8.862 8.467 L 8.832 8.739 C 8.824 8.746 8.813 8.753 8.809 8.762 L 8.71 8.999 C 8.703 9.015 8.69 9.03 8.68 9.044 C 8.671 9.034 8.655 9.025 8.654 9.014 C 8.651 8.973 8.653 8.931 8.653 8.891 Z" style=""/>
  <path fill-rule="evenodd" clip-rule="evenodd" fill="#DBDAC7" d="M 8.68 9.044 C 8.69 9.03 8.704 9.015 8.711 8.999 L 8.809 8.762 C 8.813 8.753 8.824 8.746 8.833 8.739 L 8.833 8.916 L 8.762 9.069 L 8.68 9.044 Z" style=""/>
  <path fill-rule="evenodd" clip-rule="evenodd" fill="#EBE9DC" d="M 8.762 9.069 L 8.833 8.916 L 8.847 9.097 L 8.762 9.069 Z" style=""/>
  <path fill-rule="evenodd" clip-rule="evenodd" fill="#CECDB7" d="M 8.883 8.409 C 8.872 8.367 8.891 8.335 8.925 8.307 L 8.944 8.317 L 8.883 8.409 Z" style=""/>
  <path fill-rule="evenodd" clip-rule="evenodd" fill="#4FAA41" d="M 8.7 7.641 L 8.696 7.64 L 8.693 7.641 L 8.702 7.614 L 8.7 7.641 Z" style=""/>
</svg>