<?xml version="1.0" encoding="utf-8"?>
<svg width="70" height="70" viewBox="0 0 70 70" fill="none" xmlns="http://www.w3.org/2000/svg">
  <path d="M32.1663 2.31822C33.8796 1.32907 35.9904 1.32907 37.7037 2.31821L62.127 16.4191C63.8403 17.4082 64.8957 19.2362 64.8957 21.2145V49.4162C64.8957 51.3945 63.8403 53.2225 62.127 54.2117L37.7037 68.3125C35.9904 69.3017 33.8796 69.3017 32.1663 68.3125L7.74296 54.2117C6.02971 53.2225 4.97429 51.3945 4.97429 49.4162V21.2145C4.97429 19.2362 6.0297 17.4082 7.74295 16.4191L32.1663 2.31822Z" stroke="url(#paint0_linear_666_80)" stroke-opacity="0.3" stroke-width="1.10747"/>
  <path d="M33.5617 12.9031C34.7542 12.2146 36.2233 12.2146 37.4157 12.9031L54.4144 22.7173C55.6068 23.4057 56.3414 24.678 56.3414 26.0549V45.6833C56.3414 47.0602 55.6068 48.3325 54.4144 49.0209L37.4157 58.8351C36.2233 59.5235 34.7542 59.5236 33.5617 58.8351L16.5631 49.0209C15.3706 48.3325 14.6361 47.0602 14.6361 45.6833V26.0549C14.6361 24.678 15.3706 23.4057 16.5631 22.7173L33.5617 12.9031Z" fill="url(#paint1_linear_666_80)" fill-opacity="0.2" style="stroke-width: 0px; stroke: rgb(178, 77, 77);"/>
  <defs>
    <linearGradient id="paint0_linear_666_80" x1="0.339355" y1="0.719727" x2="69.5306" y2="69.911" gradientUnits="userSpaceOnUse">
      <stop stop-color="white"/>
      <stop offset="0.7656" stop-color="white" stop-opacity="0"/>
    </linearGradient>
    <linearGradient id="paint1_linear_666_80" x1="11.4102" y1="11.7905" x2="59.5673" y2="59.9477" gradientUnits="userSpaceOnUse">
      <stop stop-color="white"/>
      <stop offset="0.8281" stop-color="white" stop-opacity="0"/>
    </linearGradient>
  </defs>
  <path fill-rule="evenodd" clip-rule="evenodd" fill="#EBE9DC" d="M 35.752 58.038 L 36.199 56.888 L 36.293 58.25 L 35.752 58.038 Z" style=""/>
  <path d="m120.81 80.561h96.568v7.676h-87.716v57.767h82.486v7.675h-82.486v63.423h88.722v7.675h-97.574zm105.22 0h10.26l45.467 63.423 46.473-63.424 63.211-80.56-103.85 150.65 53.515 74.127h-10.663l-48.686-67.462-48.888 67.462h-10.461l53.917-74.128zm118.898 7.676v-7.677h110.048v7.676h-50.699v136.54h-8.852v-136.539zm-344.928-7.677h11.065l152.58 228.323-63.053-84.107-91.338-133.308-.402 133.31h-8.852zm454.084 134.224c-1.809 0-3.165-1.4-3.165-3.212 0-1.81 1.356-3.212 3.165-3.212 1.83 0 3.165 1.401 3.165 3.212s-1.335 3.212-3.165 3.212zm8.698-8.45h4.737c.064 2.565 1.937 4.29 4.693 4.29 3.079 0 4.823-1.854 4.823-5.325v-21.99h4.823v22.011c0 6.252-3.617 9.853-9.603 9.853-5.62 0-9.473-3.493-9.473-8.84zm25.384-.28h4.78c.409 2.953 3.294 4.828 7.45 4.828 3.875 0 6.717-2.005 6.717-4.764 0-2.371-1.809-3.794-5.921-4.764l-4.005-.97c-5.62-1.316-8.181-4.032-8.181-8.602 0-5.54 4.521-9.227 11.303-9.227 6.308 0 10.916 3.686 11.196 8.925h-4.694c-.452-2.867-2.95-4.657-6.567-4.657-3.81 0-6.35 1.833-6.35 4.635 0 2.22 1.635 3.493 5.683 4.441l3.423.841c6.373 1.488 9 4.075 9 8.753 0 5.95-4.607 9.68-11.97 9.68-6.89 0-11.52-3.558-11.864-9.12z" transform="matrix(1, 0, 0, 1, -185.215307, -122.549995)"/>
  <path fill="#DF234F" d="M 38.053 18.636 C 37.799 18.636 37.545 18.692 37.318 18.777 C 37.799 19.089 38.053 19.512 38.195 19.993 C 38.195 20.05 38.223 20.106 38.223 20.163 C 38.223 20.219 38.251 20.276 38.251 20.332 C 38.279 21.152 38.025 21.265 37.856 21.746 C 37.572 22.369 37.658 23.046 37.997 23.585 C 38.025 23.641 38.053 23.726 38.11 23.783 C 37.743 21.406 39.722 21.067 40.089 20.332 C 40.117 19.683 39.581 19.258 39.157 18.946 C 38.731 18.692 38.392 18.636 38.053 18.636 Z M 41.023 19.145 C 40.995 19.37 41.023 19.314 40.995 19.427 C 40.995 19.512 40.995 19.598 40.966 19.683 C 40.938 19.767 40.938 19.824 40.91 19.909 C 40.882 19.993 40.853 20.05 40.825 20.134 C 40.797 20.191 40.769 20.247 40.741 20.332 C 40.712 20.36 40.684 20.417 40.656 20.445 C 40.628 20.473 40.628 20.503 40.599 20.53 C 40.543 20.586 40.515 20.672 40.456 20.727 L 40.286 20.898 C 40.23 20.954 40.174 21.011 40.117 21.039 C 39.919 21.18 39.693 21.293 39.496 21.434 C 39.439 21.491 39.355 21.52 39.298 21.577 C 39.242 21.633 39.185 21.661 39.129 21.718 L 38.959 21.887 C 38.903 21.944 38.846 22 38.816 22.085 C 38.759 22.142 38.731 22.227 38.675 22.284 C 38.646 22.369 38.618 22.425 38.562 22.51 C 38.534 22.594 38.505 22.651 38.477 22.736 C 38.449 22.82 38.421 22.905 38.421 22.962 C 38.421 22.99 38.421 23.046 38.392 23.074 C 38.392 23.103 38.392 23.159 38.364 23.187 L 38.364 23.585 C 38.364 23.669 38.364 23.726 38.392 23.811 C 38.392 23.896 38.421 23.952 38.449 24.037 C 38.477 24.122 38.505 24.178 38.534 24.263 C 38.562 24.319 38.59 24.347 38.59 24.404 L 36.442 23.585 C 36.075 23.471 35.735 23.387 35.368 23.3 C 35.17 23.244 34.971 23.216 34.773 23.159 C 34.208 23.046 33.643 22.962 33.077 22.905 L 33.019 22.905 C 32.455 22.849 31.918 22.82 31.351 22.82 C 30.928 22.82 30.532 22.849 30.135 22.877 C 29.57 22.905 29.005 22.99 28.44 23.074 L 28.015 23.159 C 27.732 23.216 27.45 23.272 27.167 23.357 C 27.026 23.387 26.884 23.443 26.743 23.471 C 26.6 23.529 26.459 23.585 26.346 23.641 C 26.233 23.698 26.149 23.726 26.036 23.783 C 26.007 23.783 26.007 23.783 25.979 23.811 C 25.895 23.867 25.81 23.896 25.725 23.952 C 25.697 23.952 25.669 23.98 25.669 23.98 C 25.556 24.037 25.47 24.093 25.385 24.122 C 25.329 24.15 25.244 24.178 25.187 24.206 C 25.159 24.234 25.131 24.234 25.103 24.263 C 25.018 24.319 24.933 24.347 24.849 24.404 C 24.764 24.46 24.678 24.489 24.622 24.545 C 24.565 24.602 24.48 24.63 24.424 24.686 C 24.424 24.686 24.396 24.686 24.396 24.714 C 24.339 24.743 24.283 24.799 24.225 24.856 L 24.198 24.884 C 24.142 24.912 24.112 24.969 24.056 24.999 C 24.027 24.999 24.027 25.025 23.999 25.025 C 23.944 25.056 23.915 25.112 23.858 25.138 C 23.858 25.169 23.83 25.169 23.83 25.169 L 23.66 25.338 L 23.632 25.366 L 23.463 25.536 C 23.463 25.536 23.463 25.564 23.434 25.564 L 23.293 25.705 C 23.265 25.733 23.237 25.733 23.237 25.762 L 23.067 25.931 C 23.067 25.959 23.039 25.959 23.039 25.987 L 22.812 26.213 L 22.784 26.242 C 22.642 26.413 22.473 26.552 22.303 26.693 C 22.133 26.837 21.964 26.978 21.766 27.119 C 21.569 27.26 21.399 27.373 21.201 27.486 C 21.004 27.599 20.804 27.684 20.606 27.769 C 20.409 27.853 20.211 27.939 20.013 27.997 C 19.616 28.081 19.22 28.251 18.882 28.279 C 18.882 28.138 18.797 28.164 18.712 28.164 C 18.627 28.194 18.543 28.194 18.486 28.223 C 18.401 28.251 18.345 28.279 18.258 28.307 C 18.176 28.336 18.119 28.364 18.032 28.42 C 17.976 28.477 17.891 28.505 17.834 28.562 C 17.778 28.618 17.693 28.674 17.637 28.731 C 17.58 28.787 17.496 28.844 17.439 28.9 C 17.383 28.957 17.326 29.013 17.27 29.098 C 17.213 29.183 17.157 29.239 17.129 29.324 C 17.072 29.38 17.044 29.465 16.987 29.551 C 16.959 29.635 16.903 29.72 16.874 29.805 L 16.789 30.06 C 16.761 30.145 16.761 30.202 16.732 30.286 L 16.732 30.314 C 16.705 30.399 16.705 30.512 16.705 30.569 C 16.732 30.54 16.732 30.597 16.732 30.653 L 16.732 30.767 C 16.732 30.823 16.761 30.879 16.761 30.936 C 16.789 30.992 16.789 31.049 16.818 31.106 C 16.845 31.163 16.874 31.219 16.931 31.276 C 16.959 31.332 17.016 31.389 17.044 31.445 C 17.1 31.502 17.157 31.558 17.213 31.586 C 17.27 31.643 17.326 31.699 17.383 31.727 C 17.609 31.926 17.665 31.983 17.947 32.152 C 18.004 32.18 18.032 32.209 18.089 32.237 L 18.119 32.237 L 18.119 32.293 C 18.119 32.379 18.145 32.436 18.176 32.519 C 18.202 32.605 18.232 32.69 18.258 32.746 L 18.345 32.916 C 18.345 32.944 18.373 32.944 18.373 32.972 C 18.401 33.057 18.458 33.113 18.486 33.17 C 18.543 33.226 18.571 33.311 18.627 33.368 L 18.797 33.537 L 18.966 33.706 L 18.994 33.706 C 19.051 33.764 19.107 33.793 19.164 33.85 C 19.22 33.906 19.305 33.933 19.362 33.963 C 19.418 33.991 19.503 34.047 19.59 34.075 C 19.646 34.104 19.703 34.131 19.787 34.131 C 19.787 34.131 19.816 34.131 19.816 34.16 C 19.844 34.16 19.9 34.189 19.929 34.189 C 19.9 34.697 19.9 35.177 19.957 35.346 C 20.042 35.544 20.465 34.951 20.86 34.302 C 20.804 34.951 20.776 35.716 20.86 35.942 C 20.973 36.168 21.512 35.433 22.02 34.64 C 28.638 33.113 34.688 37.695 35.339 44.171 C 35.226 43.152 33.982 42.586 33.389 42.728 C 33.105 43.406 32.624 44.312 31.862 44.849 C 31.918 44.226 31.89 43.604 31.777 42.983 C 31.579 43.83 31.182 44.651 30.617 45.329 C 29.739 45.385 28.836 44.962 28.382 44.312 C 28.353 44.283 28.325 44.226 28.297 44.198 C 28.269 44.142 28.24 44.057 28.212 43.999 C 28.184 43.943 28.156 43.858 28.156 43.802 L 28.156 43.604 L 28.156 43.463 C 28.156 43.406 28.184 43.322 28.212 43.265 C 28.24 43.209 28.24 43.124 28.269 43.068 C 28.297 43.011 28.325 42.925 28.382 42.869 C 28.553 42.417 28.553 42.049 28.24 41.851 L 28.071 41.766 C 28.043 41.766 27.986 41.738 27.958 41.738 C 27.93 41.738 27.902 41.71 27.873 41.71 C 27.817 41.682 27.732 41.682 27.676 41.653 C 27.619 41.625 27.535 41.625 27.478 41.625 C 27.422 41.625 27.337 41.597 27.28 41.597 L 27.139 41.597 C 27.053 41.597 26.997 41.597 26.94 41.625 C 26.884 41.625 26.799 41.653 26.743 41.653 C 26.686 41.682 26.6 41.682 26.544 41.71 C 26.488 41.738 26.431 41.766 26.346 41.795 L 26.177 41.879 C 23.999 43.293 25.3 46.63 26.771 47.592 C 26.205 47.705 25.639 47.818 25.47 47.931 L 25.442 47.959 C 25.838 48.214 26.262 48.411 26.715 48.581 C 27.309 48.781 27.958 48.95 28.24 49.035 C 29.005 49.204 29.796 49.261 30.589 49.204 C 34.717 48.922 38.11 45.752 38.731 41.625 C 38.759 41.71 38.759 41.795 38.788 41.879 C 38.816 42.049 38.846 42.219 38.872 42.417 C 38.903 42.502 38.903 42.586 38.903 42.671 L 38.903 42.7 C 38.903 42.784 38.93 42.869 38.93 42.955 C 38.93 43.068 38.959 43.152 38.959 43.265 L 38.959 44.453 C 38.959 44.538 38.93 44.595 38.93 44.679 L 38.93 44.764 C 38.93 44.849 38.903 44.933 38.903 45.046 C 38.872 45.131 38.872 45.216 38.846 45.301 L 38.846 45.329 C 38.816 45.414 38.816 45.498 38.788 45.583 L 38.788 45.611 C 38.759 45.696 38.759 45.783 38.731 45.868 L 38.731 45.896 L 38.646 46.15 L 38.646 46.178 C 38.618 46.263 38.59 46.376 38.562 46.461 C 38.534 46.545 38.505 46.63 38.449 46.743 C 38.421 46.828 38.392 46.941 38.336 47.025 C 38.308 47.11 38.251 47.197 38.223 47.31 C 38.195 47.395 38.138 47.477 38.11 47.564 C 38.11 47.592 38.082 47.621 38.082 47.621 C 38.082 47.621 38.082 47.649 38.053 47.649 C 37.459 48.865 36.555 49.938 35.424 50.788 C 35.339 50.844 35.283 50.901 35.198 50.957 C 35.17 50.985 35.142 50.985 35.142 51.014 C 35.085 51.07 34.999 51.098 34.943 51.155 L 34.971 51.211 C 35.113 51.183 35.226 51.183 35.368 51.155 C 35.622 51.126 35.848 51.07 36.102 51.014 C 36.159 51.014 36.244 50.985 36.301 50.957 C 36.357 50.957 36.385 50.929 36.442 50.929 C 36.498 50.929 36.583 50.901 36.639 50.901 C 36.696 50.872 36.752 50.872 36.809 50.844 C 37.743 50.618 38.646 50.305 39.524 49.938 C 38.025 51.975 36.045 53.615 33.728 54.69 C 34.802 54.604 35.877 54.435 36.922 54.123 C 40.684 53.021 43.851 50.476 45.745 47.054 C 45.349 49.204 44.501 51.268 43.228 53.077 C 44.134 52.484 44.952 51.776 45.717 51.014 C 47.81 48.835 49.194 46.037 49.648 43.068 C 49.958 44.538 50.071 46.065 49.93 47.564 C 56.689 38.148 50.495 28.392 47.895 25.818 C 47.895 25.79 47.866 25.79 47.866 25.762 C 47.866 25.874 47.866 25.987 47.837 26.1 C 47.81 26.326 47.781 26.526 47.754 26.724 C 47.697 26.922 47.639 27.147 47.583 27.345 C 47.526 27.543 47.442 27.74 47.357 27.939 C 47.271 28.138 47.187 28.336 47.074 28.505 C 46.961 28.674 46.848 28.872 46.735 29.042 C 46.622 29.211 46.481 29.38 46.339 29.551 C 46.197 29.72 46.056 29.862 45.886 30.032 C 45.802 30.117 45.717 30.202 45.604 30.258 C 45.519 30.314 45.463 30.371 45.378 30.456 C 45.208 30.597 45.038 30.71 44.839 30.823 C 44.671 30.936 44.472 31.049 44.275 31.135 L 43.682 31.389 C 43.482 31.473 43.284 31.53 43.086 31.586 C 42.889 31.643 42.663 31.699 42.465 31.727 C 42.239 31.756 42.042 31.784 41.844 31.813 C 41.701 31.813 41.531 31.842 41.39 31.842 C 41.164 31.842 40.966 31.813 40.769 31.813 C 40.543 31.784 40.343 31.756 40.145 31.727 C 39.919 31.699 39.722 31.643 39.524 31.558 C 39.722 31.53 39.948 31.53 40.145 31.473 C 40.373 31.445 40.571 31.389 40.769 31.332 C 40.966 31.276 41.192 31.219 41.362 31.135 L 41.957 30.879 C 42.155 30.795 42.324 30.682 42.522 30.569 C 42.691 30.456 42.889 30.314 43.058 30.202 C 43.228 30.06 43.398 29.919 43.541 29.777 C 43.71 29.635 43.851 29.465 43.992 29.324 C 44.134 29.155 44.275 28.985 44.388 28.816 C 44.416 28.787 44.416 28.759 44.444 28.731 C 44.529 28.59 44.642 28.42 44.728 28.279 C 44.839 28.081 44.925 27.91 45.01 27.712 C 45.095 27.514 45.179 27.317 45.236 27.119 L 45.406 26.526 C 45.435 26.298 45.491 26.1 45.491 25.903 C 45.519 25.677 45.519 25.479 45.519 25.281 C 45.519 25.138 45.519 24.969 45.491 24.827 C 45.463 24.602 45.435 24.404 45.406 24.206 C 45.378 23.98 45.321 23.783 45.264 23.585 C 45.208 23.387 45.123 23.187 45.066 22.99 C 44.982 22.792 44.896 22.594 44.812 22.425 C 44.698 22.227 44.615 22.057 44.501 21.859 C 44.388 21.69 44.246 21.52 44.134 21.35 C 43.992 21.18 43.851 21.039 43.71 20.87 C 43.625 20.784 43.541 20.7 43.456 20.644 C 43.03 20.304 42.606 20.021 42.155 19.739 C 42.098 19.711 42.042 19.683 41.957 19.654 C 41.588 19.343 41.305 19.258 41.023 19.145 Z" style=""/>
</svg>