<?xml version="1.0" encoding="utf-8"?>
<svg width="70" height="70" viewBox="0 0 70 70" fill="none" xmlns="http://www.w3.org/2000/svg">
  <path d="M32.1663 2.31822C33.8796 1.32907 35.9904 1.32907 37.7037 2.31821L62.127 16.4191C63.8403 17.4082 64.8957 19.2362 64.8957 21.2145V49.4162C64.8957 51.3945 63.8403 53.2225 62.127 54.2117L37.7037 68.3125C35.9904 69.3017 33.8796 69.3017 32.1663 68.3125L7.74296 54.2117C6.02971 53.2225 4.97429 51.3945 4.97429 49.4162V21.2145C4.97429 19.2362 6.0297 17.4082 7.74295 16.4191L32.1663 2.31822Z" stroke="url(#paint0_linear_666_80)" stroke-opacity="0.3" stroke-width="1.10747"/>
  <path d="M33.5617 12.9031C34.7542 12.2146 36.2233 12.2146 37.4157 12.9031L54.4144 22.7173C55.6068 23.4057 56.3414 24.678 56.3414 26.0549V45.6833C56.3414 47.0602 55.6068 48.3325 54.4144 49.0209L37.4157 58.8351C36.2233 59.5235 34.7542 59.5236 33.5617 58.8351L16.5631 49.0209C15.3706 48.3325 14.6361 47.0602 14.6361 45.6833V26.0549C14.6361 24.678 15.3706 23.4057 16.5631 22.7173L33.5617 12.9031Z" fill="url(#paint1_linear_666_80)" fill-opacity="0.2" style="stroke-width: 0px; stroke: rgb(178, 77, 77);"/>
  <defs>
    <linearGradient id="paint0_linear_666_80" x1="0.339355" y1="0.719727" x2="69.5306" y2="69.911" gradientUnits="userSpaceOnUse">
      <stop stop-color="white"/>
      <stop offset="0.7656" stop-color="white" stop-opacity="0"/>
    </linearGradient>
    <linearGradient id="paint1_linear_666_80" x1="11.4102" y1="11.7905" x2="59.5673" y2="59.9477" gradientUnits="userSpaceOnUse">
      <stop stop-color="white"/>
      <stop offset="0.8281" stop-color="white" stop-opacity="0"/>
    </linearGradient>
  </defs>
  <path fill-rule="evenodd" clip-rule="evenodd" fill="#EBE9DC" d="M 35.752 58.038 L 36.199 56.888 L 36.293 58.25 L 35.752 58.038 Z" style=""/>
  <linearGradient id="python-original-a" gradientUnits="userSpaceOnUse" x1="70.252" y1="1237.476" x2="170.659" y2="1151.089" gradientTransform="matrix(0.189789, 0, 0, -0.191474, 4.171038, 256.515393)">
    <stop offset="0" stop-color="#5A9FD4"/>
    <stop offset="1" stop-color="#306998"/>
  </linearGradient>
  <linearGradient id="python-original-b" gradientUnits="userSpaceOnUse" x1="209.474" y1="1098.811" x2="173.62" y2="1149.537" gradientTransform="matrix(0.189789, 0, 0, -0.191474, 4.171038, 256.515393)">
    <stop offset="0" stop-color="#FFD43B"/>
    <stop offset="1" stop-color="#FFE873"/>
  </linearGradient>
  <path fill="url(#python-original-a)" d="M 35.39 18.58 C 33.967 18.588 32.608 18.708 31.411 18.917 C 27.89 19.542 27.249 20.843 27.249 23.243 L 27.249 26.418 L 35.572 26.418 L 35.572 27.476 L 24.126 27.476 C 21.707 27.476 19.588 28.931 18.925 31.697 C 18.161 34.869 18.127 36.847 18.925 40.156 C 19.518 42.621 20.932 44.377 23.349 44.377 L 26.212 44.377 L 26.212 40.574 C 26.212 37.825 28.589 35.403 31.411 35.403 L 39.726 35.403 C 42.04 35.403 43.888 33.495 43.888 31.172 L 43.888 23.243 C 43.888 20.991 41.986 19.294 39.726 18.919 C 38.294 18.681 36.812 18.572 35.39 18.58 Z M 30.889 21.131 C 31.746 21.131 32.451 21.844 32.451 22.722 C 32.451 23.597 31.749 24.303 30.889 24.303 C 30.026 24.303 29.324 23.597 29.324 22.722 C 29.324 21.844 30.026 21.131 30.889 21.131 Z" style=""/>
  <path fill="url(#python-original-b)" d="M 44.928 27.476 L 44.928 31.172 C 44.928 34.038 42.497 36.449 39.726 36.449 L 31.411 36.449 C 29.137 36.449 27.249 38.4 27.249 40.681 L 27.249 48.606 C 27.249 50.863 29.21 52.19 31.411 52.838 C 34.046 53.61 36.573 53.75 39.726 52.838 C 41.822 52.229 43.888 51.009 43.888 48.606 L 43.888 45.435 L 35.572 45.435 L 35.572 44.377 L 48.052 44.377 C 50.469 44.377 51.372 42.689 52.212 40.156 C 53.084 37.549 53.045 35.042 52.212 31.696 C 51.614 29.287 50.472 27.476 48.052 27.476 L 44.928 27.476 Z M 40.249 47.549 C 41.113 47.549 41.811 48.256 41.811 49.131 C 41.811 50.009 41.113 50.723 40.249 50.723 C 39.392 50.723 38.687 50.009 38.687 49.131 C 38.687 48.256 39.392 47.549 40.249 47.549 Z" style=""/>
  <radialGradient id="python-original-c" cx="1825.678" cy="444.45" r="26.743" gradientTransform="matrix(0, -0.080904, -0.355641, 0, 193.686953, 202.410367)" gradientUnits="userSpaceOnUse">
    <stop offset="0" stop-color="#B8B8B8" stop-opacity=".498"/>
    <stop offset="1" stop-color="#7F7F7F" stop-opacity="0"/>
  </radialGradient>
  <path opacity=".444" fill="url(#python-original-c)" d="M 46.822 54.767 C 46.822 55.962 41.828 56.931 35.67 56.931 C 29.506 56.931 24.514 55.962 24.514 54.767 C 24.514 53.571 29.506 52.603 35.67 52.603 C 41.828 52.603 46.822 53.571 46.822 54.767 Z" style=""/>
</svg>