<?xml version="1.0" encoding="utf-8"?>
<svg width="70" height="70" viewBox="0 0 70 70" fill="none" xmlns="http://www.w3.org/2000/svg">
  <path d="M32.1663 2.31822C33.8796 1.32907 35.9904 1.32907 37.7037 2.31821L62.127 16.4191C63.8403 17.4082 64.8957 19.2362 64.8957 21.2145V49.4162C64.8957 51.3945 63.8403 53.2225 62.127 54.2117L37.7037 68.3125C35.9904 69.3017 33.8796 69.3017 32.1663 68.3125L7.74296 54.2117C6.02971 53.2225 4.97429 51.3945 4.97429 49.4162V21.2145C4.97429 19.2362 6.0297 17.4082 7.74295 16.4191L32.1663 2.31822Z" stroke="url(#paint0_linear_666_80)" stroke-opacity="0.3" stroke-width="1.10747"/>
  <path d="M33.5617 12.9031C34.7542 12.2146 36.2233 12.2146 37.4157 12.9031L54.4144 22.7173C55.6068 23.4057 56.3414 24.678 56.3414 26.0549V45.6833C56.3414 47.0602 55.6068 48.3325 54.4144 49.0209L37.4157 58.8351C36.2233 59.5235 34.7542 59.5236 33.5617 58.8351L16.5631 49.0209C15.3706 48.3325 14.6361 47.0602 14.6361 45.6833V26.0549C14.6361 24.678 15.3706 23.4057 16.5631 22.7173L33.5617 12.9031Z" fill="url(#paint1_linear_666_80)" fill-opacity="0.2" style="stroke-width: 0px; stroke: rgb(178, 77, 77);"/>
  <defs>
    <linearGradient id="paint0_linear_666_80" x1="0.339355" y1="0.719727" x2="69.5306" y2="69.911" gradientUnits="userSpaceOnUse">
      <stop stop-color="white"/>
      <stop offset="0.7656" stop-color="white" stop-opacity="0"/>
    </linearGradient>
    <linearGradient id="paint1_linear_666_80" x1="11.4102" y1="11.7905" x2="59.5673" y2="59.9477" gradientUnits="userSpaceOnUse">
      <stop stop-color="white"/>
      <stop offset="0.8281" stop-color="white" stop-opacity="0"/>
    </linearGradient>
  </defs>
  <path d="M30.2 45.9h24.1v1.9H32.4v14.4H53v1.9H32.4v15.8h22.2v1.9H30.2V45.9zm26.3 0h2.6l11.4 15.8L82 45.9l15.8-20-26 37.5 13.4 18.4h-2.7L70.4 65 58.2 81.8h-2.6l13.5-18.4-12.6-17.5zm29.7 1.9v-1.9h27.5v1.9H101v34h-2.2v-34H86.2zM0 45.9h2.7l38.2 56.8-15.8-20.9L2.3 48.6l-.1 33.2H0zm113.5 33.4c.5 0 .8-.3.8-.8s-.3-.8-.8-.8-.8.3-.8.8.4.8.8.8zm2.2-2.1c0 1.3 1 2.2 2.4 2.2 1.5 0 2.4-.9 2.4-2.5v-5.5h-1.2v5.5c0 .9-.4 1.3-1.2 1.3-.7 0-1.2-.4-1.2-1.1h-1.2zm6.3-.1c.1 1.4 1.2 2.3 3 2.3s3-.9 3-2.4c0-1.2-.7-1.8-2.2-2.2l-.9-.2c-1-.2-1.4-.6-1.4-1.1 0-.7.6-1.2 1.6-1.2.9 0 1.5.4 1.6 1.2h1.2c-.1-1.3-1.2-2.2-2.8-2.2-1.7 0-2.8.9-2.8 2.3 0 1.1.6 1.8 2 2.1l1 .2c1 .2 1.5.6 1.5 1.2 0 .7-.7 1.2-1.7 1.2s-1.8-.5-1.9-1.2H122z" transform="matrix(1, 0, 0, 1, 6.784754, -38.891429)"/>
  <path d="M30.2 45.9h24.1v1.9H32.4v14.4H53v1.9H32.4v15.8h22.2v1.9H30.2V45.9zm26.3 0h2.6l11.4 15.8L82 45.9l15.8-20-26 37.5 13.4 18.4h-2.7L70.4 65 58.2 81.8h-2.6l13.5-18.4-12.6-17.5zm29.7 1.9v-1.9h27.5v1.9H101v34h-2.2v-34H86.2zM0 45.9h2.7l38.2 56.8-15.8-20.9L2.3 48.6l-.1 33.2H0zm113.5 33.4c.5 0 .8-.3.8-.8s-.3-.8-.8-.8-.8.3-.8.8.4.8.8.8zm2.2-2.1c0 1.3 1 2.2 2.4 2.2 1.5 0 2.4-.9 2.4-2.5v-5.5h-1.2v5.5c0 .9-.4 1.3-1.2 1.3-.7 0-1.2-.4-1.2-1.1h-1.2zm6.3-.1c.1 1.4 1.2 2.3 3 2.3s3-.9 3-2.4c0-1.2-.7-1.8-2.2-2.2l-.9-.2c-1-.2-1.4-.6-1.4-1.1 0-.7.6-1.2 1.6-1.2.9 0 1.5.4 1.6 1.2h1.2c-.1-1.3-1.2-2.2-2.8-2.2-1.7 0-2.8.9-2.8 2.3 0 1.1.6 1.8 2 2.1l1 .2c1 .2 1.5.6 1.5 1.2 0 .7-.7 1.2-1.7 1.2s-1.8-.5-1.9-1.2H122z" transform="matrix(1, 0, 0, 1, 6.784754, -38.891429)"/>
  <path d="M 62.493 47.067 C 53.589 47.067 46.35 54.306 46.35 63.211 C 46.35 72.115 53.589 79.354 62.493 79.354 C 65.319 79.354 67.967 78.622 70.263 77.361 L 58.559 61.016 L 58.559 70.248 L 56.843 70.248 L 56.843 57.611 L 58.559 57.611 L 71.297 76.731 C 75.711 73.855 78.637 68.886 78.637 63.211 C 78.637 54.306 71.398 47.067 62.493 47.067 Z M 68.068 68.407 L 66.176 65.556 L 66.176 57.611 L 68.068 57.611 L 68.068 68.407 Z" style="" transform="matrix(1, 0, 0, 1, 8.291255, -29.954393)"/>
  <path d="M 86.598 -32.488 C 78.891 -32.488 72.626 -26.223 72.626 -18.516 C 72.626 -10.81 78.891 -4.544 86.598 -4.544 C 94.304 -4.544 100.57 -10.81 100.57 -18.516 C 100.57 -26.223 94.304 -32.488 86.598 -32.488 Z M 93.737 -7.513 L 83.192 -23.363 L 81.707 -23.363 L 81.707 -12.425 L 83.192 -12.425 L 83.192 -20.415 L 92.841 -6.989 C 90.986 -5.985 88.868 -5.417 86.598 -5.417 C 79.35 -5.396 73.477 -11.268 73.477 -18.516 C 73.477 -25.764 79.35 -31.637 86.598 -31.637 C 93.846 -31.637 99.718 -25.764 99.718 -18.516 C 99.718 -13.91 97.339 -9.849 93.737 -7.513 Z" style=""/>
  <path d="M 89.785 -16.486 L 91.422 -14.019 L 91.422 -23.363 L 89.785 -23.363 L 89.785 -16.486 Z" style=""/>
  <path d="m120.81 80.561h96.568v7.676h-87.716v57.767h82.486v7.675h-82.486v63.423h88.722v7.675h-97.574zm105.22 0h10.26l45.467 63.423 46.473-63.424 63.211-80.56-103.85 150.65 53.515 74.127h-10.663l-48.686-67.462-48.888 67.462h-10.461l53.917-74.128zm118.898 7.676v-7.677h110.048v7.676h-50.699v136.54h-8.852v-136.539zm-344.928-7.677h11.065l152.58 228.323-63.053-84.107-91.338-133.308-.402 133.31h-8.852zm454.084 134.224c-1.809 0-3.165-1.4-3.165-3.212 0-1.81 1.356-3.212 3.165-3.212 1.83 0 3.165 1.401 3.165 3.212s-1.335 3.212-3.165 3.212zm8.698-8.45h4.737c.064 2.565 1.937 4.29 4.693 4.29 3.079 0 4.823-1.854 4.823-5.325v-21.99h4.823v22.011c0 6.252-3.617 9.853-9.603 9.853-5.62 0-9.473-3.493-9.473-8.84zm25.384-.28h4.78c.409 2.953 3.294 4.828 7.45 4.828 3.875 0 6.717-2.005 6.717-4.764 0-2.371-1.809-3.794-5.921-4.764l-4.005-.97c-5.62-1.316-8.181-4.032-8.181-8.602 0-5.54 4.521-9.227 11.303-9.227 6.308 0 10.916 3.686 11.196 8.925h-4.694c-.452-2.867-2.95-4.657-6.567-4.657-3.81 0-6.35 1.833-6.35 4.635 0 2.22 1.635 3.493 5.683 4.441l3.423.841c6.373 1.488 9 4.075 9 8.753 0 5.95-4.607 9.68-11.97 9.68-6.89 0-11.52-3.558-11.864-9.12z" transform="matrix(1, 0, 0, 1, -185.215307, -166.52669)"/>
  <path d="M126.67 98.44c-4.56 1.16-7.38.05-9.91-3.75-5.68-8.51-11.95-16.63-18-24.9-.78-1.07-1.59-2.12-2.6-3.45C89 76 81.85 85.2 75.14 94.77c-2.4 3.42-4.92 4.91-9.4 3.7l26.92-36.13L67.6 29.71c4.31-.84 7.29-.41 9.93 3.45 5.83 8.52 12.26 16.63 18.67 25.21 6.45-8.55 12.8-16.67 18.8-25.11 2.41-3.42 5-4.72 9.33-3.46-3.28 4.35-6.49 8.63-9.72 12.88-4.36 5.73-8.64 11.53-13.16 17.14-1.61 2-1.35 3.3.09 5.19C109.9 76 118.16 87.1 126.67 98.44zM1.33 61.74c.72-3.61 1.2-7.29 2.2-10.83 6-21.43 30.6-30.34 47.5-17.06C60.93 41.64 63.39 52.62 62.9 65H7.1c-.84 22.21 15.15 35.62 35.53 28.78 7.15-2.4 11.36-8 13.47-15 1.07-3.51 2.84-4.06 6.14-3.06-1.69 8.76-5.52 16.08-13.52 20.66-12 6.86-29.13 4.64-38.14-4.89C5.26 85.89 3 78.92 2 71.39c-.15-1.2-.46-2.38-.7-3.57q.03-3.04.03-6.08zm5.87-1.49h50.43c-.33-16.06-10.33-27.47-24-27.57-15-.12-25.78 11.02-26.43 27.57z" transform="matrix(1, 0, 0, 1, 6.799757, -32.093052)"/>
  <path d="M40.53 77.82V50.74H42V55a5.57 5.57 0 00.48-.6 7.28 7.28 0 016.64-4.12c3.35-.1 6.07 1.14 7.67 4.12a13.24 13.24 0 01.32 12.14c-1.49 3.34-5.17 5-9.11 4.39a7.37 7.37 0 01-5.88-3.88v10.77zM42 60.32c.13 1.32.18 2.26.33 3.18.58 3.62 2.72 5.77 6.08 6.16A6.91 6.91 0 0056 65.27a11.77 11.77 0 00-.26-9.68 6.77 6.77 0 00-7.13-3.94 6.59 6.59 0 00-5.89 4.87 33.4 33.4 0 00-.72 3.8zM88.41 64a7.92 7.92 0 01-7.74 7c-6.16.31-9.05-3.78-9.51-8.5a13.62 13.62 0 011.2-7.5 8.37 8.37 0 018.71-4.67 8 8 0 017.1 6.09 41.09 41.09 0 01.69 4.5H72.67c-.3 4.28 2 7.72 5.26 8.55 4.06 1 7.53-.76 8.79-4.62.28-.99.79-1.13 1.69-.85zm-15.74-4.45h14.47c-.09-4.56-2.93-7.86-6.78-7.91-4.36-.07-7.5 3.11-7.69 7.91zM91.39 64.1h1.42a5.69 5.69 0 003.34 4.9 8.73 8.73 0 007.58-.2 3.41 3.41 0 002-3.35 3.09 3.09 0 00-2.08-3.09c-1.56-.58-3.22-.9-4.81-1.41A35.25 35.25 0 0194 59.18c-2.56-1.25-2.72-6.12.18-7.66a10.21 10.21 0 019.76-.15 5.14 5.14 0 012.6 5.24h-1.22c0-.06-.11-.11-.11-.17-.15-3.89-3.41-5.09-6.91-4.75a9.17 9.17 0 00-3 .91 3 3 0 00-1.74 3 3 3 0 002 2.82c1.54.56 3.15.92 4.73 1.36 1.27.35 2.59.58 3.82 1a4.51 4.51 0 013.1 4.07 4.81 4.81 0 01-2.59 5c-3.34 1.89-8.84 1.39-11.29-1a6.67 6.67 0 01-1.94-4.75zM125.21 56.61h-1.33c0-.18-.07-.34-.09-.49a4.35 4.35 0 00-3.54-4.18 8.73 8.73 0 00-5.61.27 3.41 3.41 0 00-2.47 3.25 3.14 3.14 0 002.4 3.16c2 .62 4.05 1 6.08 1.56a17 17 0 011.94.59 5 5 0 01.27 9.31 11.13 11.13 0 01-9 .09 6.24 6.24 0 01-3.76-6.06h1.3a7.29 7.29 0 0011.1 4.64 3.57 3.57 0 001.92-3.34 3.09 3.09 0 00-2.11-3.07c-1.56-.58-3.22-.89-4.81-1.4a35.43 35.43 0 01-4.87-1.75c-2.5-1.23-2.7-6.06.15-7.6a10.07 10.07 0 019.92-.11 5.23 5.23 0 012.51 5.13zM38.1 70.51a2.29 2.29 0 01-2.84-1.08c-1.63-2.44-3.43-4.77-5.16-7.15l-.75-1c-2.06 2.76-4.12 5.41-6 8.16a2.2 2.2 0 01-2.7 1.06l7.73-10.37-7.19-9.37a2.39 2.39 0 012.85 1c1.67 2.44 3.52 4.77 5.36 7.24 1.85-2.45 3.68-4.79 5.39-7.21a2.15 2.15 0 012.68-1l-2.79 3.7c-1.25 1.65-2.48 3.31-3.78 4.92a1 1 0 000 1.49c2.39 3.17 4.76 6.35 7.2 9.61zM70.92 50.66v1.4a7.25 7.25 0 00-7.72 7.49v11h-1.43V50.74h1.4v4.06c1.73-2.96 4.4-4.06 7.75-4.14zM2.13 60c.21-1 .34-2.09.63-3.11 1.73-6.15 8.78-8.71 13.63-4.9 2.84 2.23 3.55 5.39 3.41 8.95h-16c-.26 6.36 4.33 10.2 10.2 8.24a6.09 6.09 0 003.87-4.31c.31-1 .81-1.17 1.76-.88a8.12 8.12 0 01-3.88 5.93 9.4 9.4 0 01-10.95-1.4 9.85 9.85 0 01-2.46-5.78c0-.34-.13-.68-.2-1q-.01-.89-.01-1.74zm1.69-.43h14.47c-.09-4.61-3-7.88-6.88-7.91-4.32-.06-7.41 3.14-7.6 7.89z" transform="matrix(1, 0, 0, 1, 6.766907, -42.580943)"/>
  <path fill="none" d="M 18.556 15.579 L 53.72 15.579 L 53.72 50.743 L 18.556 50.743 L 18.556 15.579 Z" style=""/>
  <path fill-rule="evenodd" clip-rule="evenodd" fill="#CB6699" d="M 17.111 30.67 C 17.111 30.881 17.174 31.02 17.208 31.155 C 17.435 32.035 17.921 32.79 18.499 33.478 C 19.323 34.458 20.332 35.249 21.365 35.991 C 22.26 36.637 23.175 37.266 24.075 37.905 C 24.229 38.015 24.376 38.141 24.542 38.276 C 24.399 38.354 24.279 38.423 24.154 38.485 C 22.967 39.088 21.824 39.762 20.772 40.58 C 20.137 41.074 19.524 41.597 19.091 42.282 C 18.393 43.383 18.147 44.556 18.666 45.808 C 18.818 46.174 19.05 46.49 19.376 46.724 C 19.482 46.8 19.6 46.875 19.724 46.904 C 20.041 46.979 20.365 47.028 20.685 47.086 L 21.596 47.086 C 22.601 46.996 23.517 46.652 24.344 46.081 C 25.636 45.188 26.507 43.992 26.883 42.456 C 27.155 41.34 27.166 40.223 26.845 39.112 C 26.814 39.01 26.78 38.908 26.739 38.808 C 26.7 38.709 26.654 38.611 26.601 38.486 L 28.663 37.301 L 28.693 37.327 C 28.655 37.449 28.616 37.572 28.582 37.695 C 28.337 38.59 28.174 39.501 28.232 40.43 C 28.294 41.419 28.571 42.346 29.15 43.172 C 29.619 43.841 30.735 43.866 31.233 43.195 C 31.408 42.957 31.58 42.707 31.709 42.441 C 32.045 41.747 32.357 41.041 32.677 40.339 L 32.734 40.211 C 32.711 40.543 32.684 40.834 32.671 41.126 C 32.652 41.583 32.679 42.037 32.835 42.47 C 32.967 42.841 33.195 43.118 33.621 43.167 C 33.911 43.201 34.143 43.068 34.357 42.898 C 34.687 42.637 34.962 42.311 35.164 41.94 C 35.734 40.892 36.318 39.853 36.836 38.779 C 37.394 37.618 37.883 36.423 38.403 35.243 L 38.489 35.034 C 38.611 35.516 38.696 35.988 38.854 36.435 C 39.037 36.953 39.264 37.459 39.51 37.952 C 39.626 38.183 39.612 38.335 39.451 38.53 C 38.775 39.345 38.11 40.171 37.445 40.995 C 37.297 41.177 37.15 41.362 37.029 41.562 C 36.953 41.687 36.904 41.826 36.884 41.971 C 36.842 42.247 37.024 42.508 37.299 42.561 C 37.565 42.619 37.839 42.639 38.11 42.619 C 39.039 42.551 39.882 42.225 40.628 41.673 C 41.593 40.957 41.903 39.981 41.671 38.824 C 41.607 38.509 41.494 38.204 41.386 37.902 C 41.337 37.765 41.333 37.669 41.423 37.543 C 42.195 36.441 42.855 35.271 43.468 34.073 C 43.492 34.026 43.517 33.979 43.561 33.93 C 43.759 34.963 44.059 35.961 44.594 36.866 C 44.321 37.129 44.049 37.368 43.804 37.63 C 43.265 38.212 42.798 38.841 42.554 39.609 C 42.448 39.94 42.368 40.276 42.415 40.629 C 42.487 41.179 42.937 41.535 43.477 41.411 C 44.633 41.143 45.63 40.598 46.359 39.634 C 46.85 38.985 46.894 38.26 46.689 37.501 C 46.633 37.294 46.566 37.091 46.494 36.855 C 46.779 36.767 47.057 36.661 47.345 36.594 C 48.838 36.254 50.315 36.313 51.753 36.852 C 52.593 37.168 53.273 37.694 53.675 38.523 C 54.166 39.536 53.894 40.498 52.939 41.139 C 52.85 41.198 52.748 41.245 52.674 41.32 C 52.626 41.376 52.603 41.448 52.613 41.52 C 52.619 41.557 52.716 41.604 52.772 41.604 C 53.087 41.6 53.341 41.436 53.586 41.266 C 54.198 40.843 54.645 40.274 54.741 39.522 L 54.76 39.467 L 54.737 38.978 C 54.728 38.949 54.743 38.922 54.742 38.9 C 54.611 37.807 54.027 36.959 53.178 36.295 C 52.194 35.525 51.033 35.208 49.805 35.159 C 48.809 35.116 47.814 35.269 46.877 35.61 C 46.608 35.707 46.342 35.823 46.071 35.932 C 46.035 35.866 45.996 35.802 45.963 35.737 C 45.686 35.17 45.35 34.626 45.275 33.974 C 45.222 33.511 45.157 33.049 45.267 32.59 C 45.374 32.15 45.511 31.717 45.641 31.282 C 45.708 31.06 45.661 30.933 45.448 30.833 C 45.374 30.795 45.293 30.769 45.212 30.755 C 44.687 30.679 44.17 30.722 43.662 30.87 C 43.481 30.923 43.351 31.023 43.311 31.223 C 43.288 31.337 43.241 31.446 43.209 31.56 C 43.076 32.028 42.983 32.506 42.767 32.952 C 42.229 34.072 41.616 35.15 40.987 36.219 C 40.919 36.336 40.847 36.449 40.761 36.589 C 40.54 36.127 40.305 35.712 40.234 35.227 C 40.154 34.677 40.09 34.129 40.226 33.584 C 40.328 33.177 40.461 32.778 40.583 32.376 C 40.64 32.186 40.615 32.087 40.441 31.985 C 40.354 31.935 40.256 31.889 40.157 31.876 C 39.619 31.793 39.07 31.838 38.552 32.007 C 38.389 32.059 38.304 32.164 38.254 32.333 C 38.107 32.827 37.982 33.336 37.777 33.807 C 36.945 35.713 36.089 37.61 35.235 39.508 C 35.057 39.903 34.847 40.286 34.646 40.671 C 34.596 40.769 34.521 40.856 34.457 40.947 C 34.407 40.887 34.387 40.846 34.387 40.805 C 34.389 40.561 34.359 40.309 34.406 40.073 C 34.548 39.361 34.707 38.652 34.879 37.945 C 35.02 37.361 35.184 36.784 35.341 36.203 C 35.393 36.01 35.394 35.828 35.255 35.664 C 35.02 35.392 34.531 35.333 34.241 35.542 L 34.112 35.615 L 34.137 35.408 C 34.198 34.965 34.21 34.522 34.088 34.086 C 33.937 33.541 33.549 33.228 32.983 33.246 C 32.72 33.253 32.443 33.298 32.199 33.394 C 31.175 33.796 30.386 34.507 29.716 35.363 C 29.653 35.443 29.576 35.509 29.488 35.559 C 28.622 36.04 27.751 36.516 26.881 36.992 L 25.912 37.523 C 25.652 37.275 25.417 37.018 25.149 36.801 C 24.331 36.134 23.501 35.483 22.678 34.824 C 21.947 34.238 21.24 33.631 20.699 32.856 C 20.297 32.28 20.037 31.65 20.012 30.939 C 19.981 30.033 20.239 29.203 20.7 28.431 C 21.291 27.444 22.096 26.652 22.982 25.935 C 23.919 25.176 24.933 24.532 25.983 23.944 C 27.452 23.121 28.965 22.393 30.585 21.913 C 32.246 21.419 33.933 21.137 35.672 21.334 C 36.356 21.412 37.019 21.568 37.629 21.903 C 38.096 22.158 38.479 22.493 38.657 23.017 C 38.834 23.531 38.828 24.055 38.706 24.577 C 38.459 25.637 37.879 26.511 37.148 27.292 C 35.95 28.57 34.489 29.441 32.846 30.017 C 31.898 30.348 30.916 30.558 29.916 30.641 C 29.098 30.71 28.297 30.638 27.522 30.353 C 27.009 30.165 26.562 29.877 26.203 29.457 C 26.139 29.382 26.057 29.301 25.937 29.371 C 25.82 29.44 25.799 29.552 25.838 29.665 C 25.904 29.853 25.965 30.048 26.066 30.216 C 26.324 30.637 26.699 30.942 27.111 31.204 C 27.903 31.709 28.789 31.879 29.708 31.918 C 31.102 31.978 32.461 31.77 33.803 31.396 C 35.717 30.862 37.381 29.92 38.715 28.432 C 39.827 27.194 40.62 25.796 40.791 24.109 C 40.874 23.284 40.785 22.478 40.4 21.726 C 39.982 20.912 39.316 20.307 38.52 19.89 C 37.362 19.282 36.113 18.929 34.823 18.929 L 33.531 18.929 C 31.969 18.929 30.458 19.376 28.99 19.91 C 27.878 20.315 26.789 20.793 25.731 21.321 C 23.426 22.473 21.281 23.86 19.519 25.769 C 18.642 26.719 17.897 27.769 17.47 29.005 C 17.341 29.374 17.231 29.748 17.137 30.128 M 25.485 40.927 C 25.385 42.264 24.779 43.348 23.789 44.225 C 23.232 44.719 22.592 45.071 21.848 45.194 C 21.578 45.24 21.303 45.25 21.041 45.138 C 20.667 44.977 20.584 44.647 20.577 44.294 C 20.566 43.732 20.763 43.222 21.033 42.739 C 21.385 42.107 21.901 41.626 22.454 41.179 C 23.324 40.47 24.266 39.871 25.233 39.306 L 25.306 39.275 C 25.455 39.827 25.527 40.372 25.485 40.927 Z M 33.029 35.115 C 32.958 35.542 32.871 35.97 32.745 36.384 C 32.314 37.816 31.76 39.204 31.162 40.573 C 31.05 40.828 30.89 41.059 30.751 41.298 C 30.727 41.336 30.698 41.369 30.665 41.399 C 30.492 41.57 30.328 41.56 30.24 41.336 C 30.139 41.077 30.076 40.798 30.021 40.522 C 29.985 40.337 29.994 40.144 29.982 39.953 C 29.994 38.606 30.405 37.382 31.103 36.241 C 31.39 35.771 31.703 35.322 32.181 35.025 C 32.33 34.934 32.491 34.862 32.66 34.814 C 32.915 34.742 33.071 34.86 33.029 35.115 Z M 38.175 41.673 L 40.026 39.513 C 40.102 40.315 38.739 41.916 38.175 41.673 Z M 44.084 40.219 C 43.953 40.294 43.81 40.349 43.677 40.418 C 43.554 40.481 43.514 40.417 43.509 40.312 C 43.508 40.238 43.517 40.165 43.538 40.095 C 43.787 39.215 44.248 38.462 44.932 37.85 L 44.98 37.825 C 45.304 38.736 44.928 39.736 44.084 40.219 Z" style=""/>
</svg>