<?xml version="1.0" encoding="utf-8"?>
<svg width="70" height="70" viewBox="0 0 70 70" fill="none" xmlns="http://www.w3.org/2000/svg">
  <path d="M32.1663 2.31822C33.8796 1.32907 35.9904 1.32907 37.7037 2.31821L62.127 16.4191C63.8403 17.4082 64.8957 19.2362 64.8957 21.2145V49.4162C64.8957 51.3945 63.8403 53.2225 62.127 54.2117L37.7037 68.3125C35.9904 69.3017 33.8796 69.3017 32.1663 68.3125L7.74296 54.2117C6.02971 53.2225 4.97429 51.3945 4.97429 49.4162V21.2145C4.97429 19.2362 6.0297 17.4082 7.74295 16.4191L32.1663 2.31822Z" stroke="url(#paint0_linear_666_80)" stroke-opacity="0.3" stroke-width="1.10747"/>
  <path d="M33.5617 12.9031C34.7542 12.2146 36.2233 12.2146 37.4157 12.9031L54.4144 22.7173C55.6068 23.4057 56.3414 24.678 56.3414 26.0549V45.6833C56.3414 47.0602 55.6068 48.3325 54.4144 49.0209L37.4157 58.8351C36.2233 59.5235 34.7542 59.5236 33.5617 58.8351L16.5631 49.0209C15.3706 48.3325 14.6361 47.0602 14.6361 45.6833V26.0549C14.6361 24.678 15.3706 23.4057 16.5631 22.7173L33.5617 12.9031Z" fill="url(#paint1_linear_666_80)" fill-opacity="0.2" style="stroke-width: 0px; stroke: rgb(178, 77, 77);"/>
  <defs>
    <linearGradient id="paint0_linear_666_80" x1="0.339355" y1="0.719727" x2="69.5306" y2="69.911" gradientUnits="userSpaceOnUse">
      <stop stop-color="white"/>
      <stop offset="0.7656" stop-color="white" stop-opacity="0"/>
    </linearGradient>
    <linearGradient id="paint1_linear_666_80" x1="11.4102" y1="11.7905" x2="59.5673" y2="59.9477" gradientUnits="userSpaceOnUse">
      <stop stop-color="white"/>
      <stop offset="0.8281" stop-color="white" stop-opacity="0"/>
    </linearGradient>
  </defs>
  <path d="M30.2 45.9h24.1v1.9H32.4v14.4H53v1.9H32.4v15.8h22.2v1.9H30.2V45.9zm26.3 0h2.6l11.4 15.8L82 45.9l15.8-20-26 37.5 13.4 18.4h-2.7L70.4 65 58.2 81.8h-2.6l13.5-18.4-12.6-17.5zm29.7 1.9v-1.9h27.5v1.9H101v34h-2.2v-34H86.2zM0 45.9h2.7l38.2 56.8-15.8-20.9L2.3 48.6l-.1 33.2H0zm113.5 33.4c.5 0 .8-.3.8-.8s-.3-.8-.8-.8-.8.3-.8.8.4.8.8.8zm2.2-2.1c0 1.3 1 2.2 2.4 2.2 1.5 0 2.4-.9 2.4-2.5v-5.5h-1.2v5.5c0 .9-.4 1.3-1.2 1.3-.7 0-1.2-.4-1.2-1.1h-1.2zm6.3-.1c.1 1.4 1.2 2.3 3 2.3s3-.9 3-2.4c0-1.2-.7-1.8-2.2-2.2l-.9-.2c-1-.2-1.4-.6-1.4-1.1 0-.7.6-1.2 1.6-1.2.9 0 1.5.4 1.6 1.2h1.2c-.1-1.3-1.2-2.2-2.8-2.2-1.7 0-2.8.9-2.8 2.3 0 1.1.6 1.8 2 2.1l1 .2c1 .2 1.5.6 1.5 1.2 0 .7-.7 1.2-1.7 1.2s-1.8-.5-1.9-1.2H122z" transform="matrix(1, 0, 0, 1, 6.784754, -38.891429)"/>
  <path d="M30.2 45.9h24.1v1.9H32.4v14.4H53v1.9H32.4v15.8h22.2v1.9H30.2V45.9zm26.3 0h2.6l11.4 15.8L82 45.9l15.8-20-26 37.5 13.4 18.4h-2.7L70.4 65 58.2 81.8h-2.6l13.5-18.4-12.6-17.5zm29.7 1.9v-1.9h27.5v1.9H101v34h-2.2v-34H86.2zM0 45.9h2.7l38.2 56.8-15.8-20.9L2.3 48.6l-.1 33.2H0zm113.5 33.4c.5 0 .8-.3.8-.8s-.3-.8-.8-.8-.8.3-.8.8.4.8.8.8zm2.2-2.1c0 1.3 1 2.2 2.4 2.2 1.5 0 2.4-.9 2.4-2.5v-5.5h-1.2v5.5c0 .9-.4 1.3-1.2 1.3-.7 0-1.2-.4-1.2-1.1h-1.2zm6.3-.1c.1 1.4 1.2 2.3 3 2.3s3-.9 3-2.4c0-1.2-.7-1.8-2.2-2.2l-.9-.2c-1-.2-1.4-.6-1.4-1.1 0-.7.6-1.2 1.6-1.2.9 0 1.5.4 1.6 1.2h1.2c-.1-1.3-1.2-2.2-2.8-2.2-1.7 0-2.8.9-2.8 2.3 0 1.1.6 1.8 2 2.1l1 .2c1 .2 1.5.6 1.5 1.2 0 .7-.7 1.2-1.7 1.2s-1.8-.5-1.9-1.2H122z" transform="matrix(1, 0, 0, 1, 6.784754, -38.891429)"/>
  <path d="M 62.493 47.067 C 53.589 47.067 46.35 54.306 46.35 63.211 C 46.35 72.115 53.589 79.354 62.493 79.354 C 65.319 79.354 67.967 78.622 70.263 77.361 L 58.559 61.016 L 58.559 70.248 L 56.843 70.248 L 56.843 57.611 L 58.559 57.611 L 71.297 76.731 C 75.711 73.855 78.637 68.886 78.637 63.211 C 78.637 54.306 71.398 47.067 62.493 47.067 Z M 68.068 68.407 L 66.176 65.556 L 66.176 57.611 L 68.068 57.611 L 68.068 68.407 Z" style="" transform="matrix(1, 0, 0, 1, 8.291255, -29.954393)"/>
  <path d="M 86.598 -32.488 C 78.891 -32.488 72.626 -26.223 72.626 -18.516 C 72.626 -10.81 78.891 -4.544 86.598 -4.544 C 94.304 -4.544 100.57 -10.81 100.57 -18.516 C 100.57 -26.223 94.304 -32.488 86.598 -32.488 Z M 93.737 -7.513 L 83.192 -23.363 L 81.707 -23.363 L 81.707 -12.425 L 83.192 -12.425 L 83.192 -20.415 L 92.841 -6.989 C 90.986 -5.985 88.868 -5.417 86.598 -5.417 C 79.35 -5.396 73.477 -11.268 73.477 -18.516 C 73.477 -25.764 79.35 -31.637 86.598 -31.637 C 93.846 -31.637 99.718 -25.764 99.718 -18.516 C 99.718 -13.91 97.339 -9.849 93.737 -7.513 Z" style=""/>
  <path d="M 89.785 -16.486 L 91.422 -14.019 L 91.422 -23.363 L 89.785 -23.363 L 89.785 -16.486 Z" style=""/>
  <path d="m120.81 80.561h96.568v7.676h-87.716v57.767h82.486v7.675h-82.486v63.423h88.722v7.675h-97.574zm105.22 0h10.26l45.467 63.423 46.473-63.424 63.211-80.56-103.85 150.65 53.515 74.127h-10.663l-48.686-67.462-48.888 67.462h-10.461l53.917-74.128zm118.898 7.676v-7.677h110.048v7.676h-50.699v136.54h-8.852v-136.539zm-344.928-7.677h11.065l152.58 228.323-63.053-84.107-91.338-133.308-.402 133.31h-8.852zm454.084 134.224c-1.809 0-3.165-1.4-3.165-3.212 0-1.81 1.356-3.212 3.165-3.212 1.83 0 3.165 1.401 3.165 3.212s-1.335 3.212-3.165 3.212zm8.698-8.45h4.737c.064 2.565 1.937 4.29 4.693 4.29 3.079 0 4.823-1.854 4.823-5.325v-21.99h4.823v22.011c0 6.252-3.617 9.853-9.603 9.853-5.62 0-9.473-3.493-9.473-8.84zm25.384-.28h4.78c.409 2.953 3.294 4.828 7.45 4.828 3.875 0 6.717-2.005 6.717-4.764 0-2.371-1.809-3.794-5.921-4.764l-4.005-.97c-5.62-1.316-8.181-4.032-8.181-8.602 0-5.54 4.521-9.227 11.303-9.227 6.308 0 10.916 3.686 11.196 8.925h-4.694c-.452-2.867-2.95-4.657-6.567-4.657-3.81 0-6.35 1.833-6.35 4.635 0 2.22 1.635 3.493 5.683 4.441l3.423.841c6.373 1.488 9 4.075 9 8.753 0 5.95-4.607 9.68-11.97 9.68-6.89 0-11.52-3.558-11.864-9.12z" transform="matrix(1, 0, 0, 1, -185.215307, -166.52669)"/>
  <path d="M126.67 98.44c-4.56 1.16-7.38.05-9.91-3.75-5.68-8.51-11.95-16.63-18-24.9-.78-1.07-1.59-2.12-2.6-3.45C89 76 81.85 85.2 75.14 94.77c-2.4 3.42-4.92 4.91-9.4 3.7l26.92-36.13L67.6 29.71c4.31-.84 7.29-.41 9.93 3.45 5.83 8.52 12.26 16.63 18.67 25.21 6.45-8.55 12.8-16.67 18.8-25.11 2.41-3.42 5-4.72 9.33-3.46-3.28 4.35-6.49 8.63-9.72 12.88-4.36 5.73-8.64 11.53-13.16 17.14-1.61 2-1.35 3.3.09 5.19C109.9 76 118.16 87.1 126.67 98.44zM1.33 61.74c.72-3.61 1.2-7.29 2.2-10.83 6-21.43 30.6-30.34 47.5-17.06C60.93 41.64 63.39 52.62 62.9 65H7.1c-.84 22.21 15.15 35.62 35.53 28.78 7.15-2.4 11.36-8 13.47-15 1.07-3.51 2.84-4.06 6.14-3.06-1.69 8.76-5.52 16.08-13.52 20.66-12 6.86-29.13 4.64-38.14-4.89C5.26 85.89 3 78.92 2 71.39c-.15-1.2-.46-2.38-.7-3.57q.03-3.04.03-6.08zm5.87-1.49h50.43c-.33-16.06-10.33-27.47-24-27.57-15-.12-25.78 11.02-26.43 27.57z" transform="matrix(1, 0, 0, 1, 6.799757, -32.093052)"/>
  <path d="M40.53 77.82V50.74H42V55a5.57 5.57 0 00.48-.6 7.28 7.28 0 016.64-4.12c3.35-.1 6.07 1.14 7.67 4.12a13.24 13.24 0 01.32 12.14c-1.49 3.34-5.17 5-9.11 4.39a7.37 7.37 0 01-5.88-3.88v10.77zM42 60.32c.13 1.32.18 2.26.33 3.18.58 3.62 2.72 5.77 6.08 6.16A6.91 6.91 0 0056 65.27a11.77 11.77 0 00-.26-9.68 6.77 6.77 0 00-7.13-3.94 6.59 6.59 0 00-5.89 4.87 33.4 33.4 0 00-.72 3.8zM88.41 64a7.92 7.92 0 01-7.74 7c-6.16.31-9.05-3.78-9.51-8.5a13.62 13.62 0 011.2-7.5 8.37 8.37 0 018.71-4.67 8 8 0 017.1 6.09 41.09 41.09 0 01.69 4.5H72.67c-.3 4.28 2 7.72 5.26 8.55 4.06 1 7.53-.76 8.79-4.62.28-.99.79-1.13 1.69-.85zm-15.74-4.45h14.47c-.09-4.56-2.93-7.86-6.78-7.91-4.36-.07-7.5 3.11-7.69 7.91zM91.39 64.1h1.42a5.69 5.69 0 003.34 4.9 8.73 8.73 0 007.58-.2 3.41 3.41 0 002-3.35 3.09 3.09 0 00-2.08-3.09c-1.56-.58-3.22-.9-4.81-1.41A35.25 35.25 0 0194 59.18c-2.56-1.25-2.72-6.12.18-7.66a10.21 10.21 0 019.76-.15 5.14 5.14 0 012.6 5.24h-1.22c0-.06-.11-.11-.11-.17-.15-3.89-3.41-5.09-6.91-4.75a9.17 9.17 0 00-3 .91 3 3 0 00-1.74 3 3 3 0 002 2.82c1.54.56 3.15.92 4.73 1.36 1.27.35 2.59.58 3.82 1a4.51 4.51 0 013.1 4.07 4.81 4.81 0 01-2.59 5c-3.34 1.89-8.84 1.39-11.29-1a6.67 6.67 0 01-1.94-4.75zM125.21 56.61h-1.33c0-.18-.07-.34-.09-.49a4.35 4.35 0 00-3.54-4.18 8.73 8.73 0 00-5.61.27 3.41 3.41 0 00-2.47 3.25 3.14 3.14 0 002.4 3.16c2 .62 4.05 1 6.08 1.56a17 17 0 011.94.59 5 5 0 01.27 9.31 11.13 11.13 0 01-9 .09 6.24 6.24 0 01-3.76-6.06h1.3a7.29 7.29 0 0011.1 4.64 3.57 3.57 0 001.92-3.34 3.09 3.09 0 00-2.11-3.07c-1.56-.58-3.22-.89-4.81-1.4a35.43 35.43 0 01-4.87-1.75c-2.5-1.23-2.7-6.06.15-7.6a10.07 10.07 0 019.92-.11 5.23 5.23 0 012.51 5.13zM38.1 70.51a2.29 2.29 0 01-2.84-1.08c-1.63-2.44-3.43-4.77-5.16-7.15l-.75-1c-2.06 2.76-4.12 5.41-6 8.16a2.2 2.2 0 01-2.7 1.06l7.73-10.37-7.19-9.37a2.39 2.39 0 012.85 1c1.67 2.44 3.52 4.77 5.36 7.24 1.85-2.45 3.68-4.79 5.39-7.21a2.15 2.15 0 012.68-1l-2.79 3.7c-1.25 1.65-2.48 3.31-3.78 4.92a1 1 0 000 1.49c2.39 3.17 4.76 6.35 7.2 9.61zM70.92 50.66v1.4a7.25 7.25 0 00-7.72 7.49v11h-1.43V50.74h1.4v4.06c1.73-2.96 4.4-4.06 7.75-4.14zM2.13 60c.21-1 .34-2.09.63-3.11 1.73-6.15 8.78-8.71 13.63-4.9 2.84 2.23 3.55 5.39 3.41 8.95h-16c-.26 6.36 4.33 10.2 10.2 8.24a6.09 6.09 0 003.87-4.31c.31-1 .81-1.17 1.76-.88a8.12 8.12 0 01-3.88 5.93 9.4 9.4 0 01-10.95-1.4 9.85 9.85 0 01-2.46-5.78c0-.34-.13-.68-.2-1q-.01-.89-.01-1.74zm1.69-.43h14.47c-.09-4.61-3-7.88-6.88-7.91-4.32-.06-7.41 3.14-7.6 7.89z" transform="matrix(1, 0, 0, 1, 6.766907, -42.580943)"/>
  <path fill="none" d="M 18.556 15.579 L 53.72 15.579 L 53.72 50.743 L 18.556 50.743 L 18.556 15.579 Z" style=""/>
  <g transform="matrix(0.006464, 0, 0, -0.006464, 4.320683, 58.449917)" fill="#000000" stroke="none" style="">
    <path d="M5009 6764 c-7 -8 -50 -45 -96 -82 -87 -68 -156 -155 -168 -212 l-7 -30 -54 30 c-30 18 -54 28 -55 23 0 -4 0 -48 1 -98 1 -144 -43 -204 -121 -164 -21 10 -41 19 -43 19 -3 0 -3 -19 0 -42 4 -29 -1 -68 -15 -118 -27 -96 -26 -132 5 -205 40 -94 40 -92 1 -99 -45 -8 -62 -29 -62 -76 0 -46 17 -68 60 -76 27 -5 34 -11 37 -33 2 -20 11 -28 36 -36 l32 -9 0 -73 0 -73 -495 0 c-432 0 -496 -2 -501 -15 -4 -8 -2 -543 2 -1188 l9 -1172 23 -49 c82 -179 237 -284 672 -456 222 -87 349 -147 392 -182 26 -22 27 -27 30 -138 l3 -115 -72 -3 c-64 -3 -72 -1 -78 17 -3 11 -20 32 -37 46 l-31 27 -292 -3 -291 -3 -65 39 c-35 21 -99 63 -142 94 -70 50 -76 57 -61 68 10 7 26 13 36 13 10 0 29 18 43 40 20 32 31 40 54 40 54 0 85 49 108 174 l6 28 -44 -8 c-24 -4 -57 -6 -72 -5 -41 2 -109 -31 -154 -76 -42 -42 -59 -101 -46 -154 6 -20 -2 -16 -54 28 -74 64 -87 79 -78 93 3 5 18 10 32 10 16 0 37 12 57 34 17 19 47 38 66 43 22 6 39 18 46 34 22 45 40 114 36 136 -3 20 -5 20 -30 7 -15 -8 -48 -14 -73 -14 -34 0 -57 -8 -91 -30 -55 -37 -75 -65 -84 -119 -4 -23 -10 -41 -15 -41 -9 0 -99 110 -99 120 0 3 5 12 10 20 8 12 13 13 30 3 35 -23 67 -16 95 21 17 22 37 36 59 40 19 4 38 12 43 19 15 19 43 112 43 142 0 22 -3 26 -17 20 -10 -5 -46 -11 -79 -15 -74 -9 -144 -53 -170 -108 -9 -20 -26 -44 -38 -53 -21 -17 -22 -16 -62 64 -34 66 -39 85 -30 99 10 17 12 17 23 2 19 -26 74 -10 98 28 13 21 31 34 51 39 17 3 36 9 42 13 22 13 61 176 42 176 -3 0 -11 -5 -17 -11 -6 -6 -36 -12 -66 -14 -30 -2 -69 -11 -86 -19 -40 -21 -101 -82 -101 -102 0 -9 -7 -22 -15 -30 -17 -18 -23 -7 -55 109 -22 78 -18 98 14 69 30 -29 69 -18 107 29 21 26 39 39 55 39 30 0 74 41 74 68 0 11 7 36 15 57 9 20 13 45 10 55 -5 16 -11 17 -38 9 -17 -5 -50 -9 -72 -9 -73 0 -195 -89 -195 -142 0 -41 -10 -11 -21 64 -10 68 -9 77 7 97 22 25 37 27 54 5 9 -10 26 -14 49 -12 29 2 41 10 60 40 18 28 32 38 61 43 49 8 63 25 88 109 22 73 20 101 -7 91 -9 -4 -45 -9 -81 -12 -42 -3 -79 -13 -106 -29 -57 -32 -104 -88 -104 -123 0 -24 -4 -28 -19 -24 -21 5 -31 62 -31 178 l0 70 20 -25 c14 -19 22 -22 31 -13 14 14 39 6 60 -21 24 -29 86 -13 109 29 9 17 29 34 46 38 65 19 75 30 100 104 29 89 25 106 -25 96 -20 -4 -51 -6 -69 -5 -18 1 -53 -8 -80 -22 -53 -27 -122 -96 -122 -123 0 -13 -3 -14 -12 -5 -7 7 -17 8 -29 2 -27 -15 -30 -1 -23 94 6 68 10 84 20 75 9 -8 15 -5 24 10 14 27 36 27 52 1 24 -38 93 -22 113 26 11 28 21 35 52 40 21 3 45 11 54 17 16 13 59 134 59 168 0 18 -4 20 -31 14 -17 -4 -54 -8 -83 -9 -86 -3 -189 -77 -203 -146 -4 -22 -9 -26 -25 -22 -19 5 -19 10 -13 92 7 85 22 172 24 138 1 -22 29 -24 37 -3 8 21 24 19 50 -6 29 -27 78 -18 101 19 23 37 43 52 69 52 48 0 82 56 101 167 l5 32 -78 -6 c-47 -3 -94 -13 -117 -25 -56 -28 -115 -85 -122 -119 -6 -28 -28 -39 -39 -20 -5 8 8 144 19 197 6 28 57 25 89 -5 22 -21 28 -22 58 -12 18 7 42 26 53 44 11 17 29 33 40 35 63 10 74 21 100 107 30 99 31 109 8 100 -10 -4 -47 -9 -83 -12 -36 -3 -82 -14 -103 -25 -47 -24 -114 -90 -119 -117 -2 -14 -7 -18 -16 -12 -21 13 -4 117 25 152 14 16 23 34 21 41 -3 7 6 24 19 38 16 17 23 37 23 64 0 30 8 47 34 77 l35 38 -21 63 c-37 117 -32 112 -71 75 -19 -18 -49 -43 -67 -56 -36 -27 -66 -85 -76 -148 -5 -34 -2 -50 20 -89 18 -32 23 -51 16 -58 -6 -6 -5 -15 5 -26 14 -15 13 -25 -2 -91 -17 -70 -18 -72 -21 -34 -7 82 -92 154 -199 167 -36 4 -71 12 -78 18 -10 8 -14 4 -19 -15 -4 -14 -3 -31 1 -38 4 -7 12 -36 18 -65 11 -56 30 -74 85 -86 17 -4 32 -18 43 -40 12 -27 24 -36 51 -41 19 -4 40 -4 46 0 6 4 19 -1 29 -11 15 -17 16 -30 8 -111 -10 -91 -27 -128 -27 -58 0 72 -110 158 -214 168 -41 4 -65 12 -82 28 -13 12 -24 18 -25 13 -5 -41 30 -197 47 -214 6 -6 30 -16 55 -23 35 -10 47 -20 61 -49 14 -28 27 -39 55 -47 34 -10 40 -8 55 11 14 19 18 20 33 8 15 -12 16 -27 10 -110 -3 -52 -10 -111 -15 -130 l-8 -35 -1 30 c-2 65 -120 165 -195 165 -23 1 -59 7 -81 15 -21 8 -41 13 -42 11 -14 -14 17 -166 39 -194 6 -7 31 -17 55 -24 36 -9 47 -17 61 -47 21 -45 80 -65 110 -38 17 15 19 15 36 -5 16 -18 18 -32 12 -95 -6 -78 -25 -135 -26 -79 0 67 -133 176 -215 176 -22 0 -57 5 -78 11 -22 6 -41 8 -44 5 -15 -15 20 -169 45 -199 8 -9 32 -20 55 -24 35 -7 45 -15 63 -48 15 -30 30 -43 59 -53 36 -12 40 -11 65 13 14 14 31 25 38 25 7 0 12 8 12 18 1 16 1 16 11 0 14 -25 7 -220 -8 -226 -8 -2 -13 6 -13 21 0 31 -74 101 -133 127 -27 12 -74 19 -132 22 l-90 3 2 -25 c3 -44 51 -163 70 -174 10 -5 36 -13 58 -16 32 -4 44 -12 64 -42 18 -29 32 -38 63 -43 36 -6 43 -4 63 20 17 22 27 27 47 22 24 -6 26 -12 32 -93 4 -47 10 -92 13 -100 3 -8 -1 -14 -11 -14 -9 0 -16 8 -16 17 0 24 -85 102 -136 125 -31 13 -70 19 -133 21 -86 2 -90 1 -94 -20 -2 -13 1 -31 8 -40 7 -10 20 -42 29 -70 20 -61 46 -83 97 -83 29 0 42 -6 58 -27 11 -16 29 -36 38 -47 18 -18 16 -18 -49 -13 -59 4 -68 2 -73 -14 -3 -10 3 -35 13 -56 11 -21 25 -55 32 -76 13 -41 53 -67 103 -67 24 0 57 -27 57 -48 0 -15 17 -24 62 -32 34 -7 41 -5 58 20 11 15 29 30 40 33 18 4 25 -3 44 -46 13 -29 22 -53 22 -54 -1 -1 -24 4 -51 12 -64 20 -133 19 -170 -2 -16 -9 -52 -24 -80 -33 -64 -22 -62 -34 18 -112 61 -60 62 -60 107 -53 69 10 90 8 109 -9 36 -33 121 -13 121 29 0 41 25 29 72 -35 l25 -35 -96 0 c-92 0 -98 -1 -138 -31 -23 -17 -56 -37 -73 -44 -45 -19 -40 -41 20 -77 20 -12 46 -33 59 -47 27 -29 63 -33 101 -11 33 19 70 19 97 0 17 -12 27 -12 54 -3 48 16 59 27 59 59 0 16 4 29 8 29 4 0 34 -28 67 -62 33 -34 52 -56 42 -49 -12 10 -34 12 -73 7 -82 -9 -151 -43 -184 -87 -15 -21 -41 -50 -59 -65 -30 -25 -31 -28 -15 -45 9 -10 30 -21 46 -24 17 -4 49 -16 73 -26 49 -22 67 -18 112 24 28 26 36 29 75 23 38 -6 47 -3 78 22 31 27 33 32 23 55 -23 49 18 36 100 -32 l78 -65 -104 -17 c-193 -31 -523 -127 -820 -239 -76 -29 -96 -62 -72 -122 9 -23 12 -44 8 -48 -4 -4 -83 -40 -175 -80 -93 -40 -168 -78 -168 -85 0 -8 47 -16 145 -25 80 -7 148 -16 150 -20 2 -3 -36 -67 -85 -140 -77 -115 -99 -160 -72 -147 4 2 172 77 374 167 202 90 370 170 373 178 3 8 -2 35 -11 59 -21 54 -25 51 106 92 208 66 441 107 676 117 l141 7 24 -63 c34 -88 44 -93 153 -69 93 21 278 39 274 28 -2 -4 -91 -80 -198 -169 -107 -89 -196 -168 -198 -176 -3 -11 13 -14 72 -14 l75 0 153 134 c104 92 155 131 160 122 4 -7 8 -69 9 -139 1 -115 -1 -128 -20 -153 -29 -37 -36 -69 -21 -104 16 -39 51 -60 99 -60 89 0 137 101 77 161 -23 24 -23 26 -17 169 4 90 10 144 16 141 6 -2 77 -66 159 -142 l148 -139 73 0 c41 0 76 4 79 9 3 5 -86 87 -198 182 l-205 174 42 3 c47 4 156 -11 260 -35 65 -16 69 -16 86 3 10 10 28 46 41 78 l23 59 131 -7 c253 -13 476 -52 696 -122 72 -23 110 -40 110 -49 0 -8 -8 -30 -17 -50 -12 -25 -14 -41 -7 -52 12 -19 746 -345 755 -335 4 4 -33 68 -82 142 -48 74 -86 136 -84 139 4 3 243 30 278 31 49 0 0 33 -155 101 -144 63 -173 79 -170 95 15 96 14 99 -10 120 -25 24 -354 142 -538 195 -63 18 -175 44 -248 58 l-132 27 97 79 c54 44 100 79 102 78 3 -1 12 -26 21 -56 24 -76 53 -112 104 -132 38 -15 57 -16 141 -6 54 5 99 12 101 14 3 2 -12 22 -33 44 -21 22 -50 58 -64 80 -34 51 -86 75 -176 81 l-73 5 82 86 c76 81 108 105 108 83 0 -6 18 -34 41 -62 46 -59 96 -84 149 -77 41 5 210 75 210 87 0 4 -12 10 -27 13 -16 3 -50 25 -78 48 -27 23 -60 45 -73 50 -35 13 -103 11 -158 -6 -27 -8 -53 -15 -57 -15 -4 0 10 24 31 53 21 28 47 67 58 85 28 49 55 51 105 8 23 -19 62 -43 86 -52 61 -24 105 -8 200 69 86 70 100 90 56 81 -19 -3 -48 4 -88 22 -98 44 -160 34 -282 -47 -18 -11 -33 -19 -33 -16 0 2 23 52 51 111 58 122 68 129 144 95 64 -29 140 -31 178 -5 31 21 150 190 140 199 -3 4 -15 1 -26 -5 -13 -6 -48 -8 -98 -4 -99 9 -126 -3 -209 -91 -34 -35 -64 -62 -67 -60 -3 3 4 34 15 69 12 35 26 82 32 106 9 34 18 46 46 59 32 16 39 16 105 -1 58 -16 77 -17 109 -7 45 13 89 61 126 134 15 29 33 60 42 70 22 25 10 30 -27 11 -24 -12 -46 -15 -78 -10 -89 12 -166 -30 -223 -122 -23 -38 -66 -69 -78 -58 -3 3 0 38 6 78 6 40 14 94 17 120 9 66 43 91 106 77 24 -6 70 -9 102 -7 87 6 119 42 177 197 30 81 30 103 -1 75 -9 -8 -50 -20 -91 -25 -40 -5 -86 -15 -101 -21 -34 -13 -86 -75 -120 -144 -24 -47 -53 -82 -61 -73 -2 2 -1 68 2 147 6 169 6 169 104 152 76 -14 118 -7 158 27 36 30 51 57 85 151 32 90 32 96 -7 72 -18 -11 -49 -20 -68 -20 -99 -1 -164 -45 -215 -145 -15 -30 -33 -59 -41 -65 -17 -15 -21 4 -28 145 -5 96 -3 113 12 133 17 22 22 23 58 13 86 -24 160 -4 200 55 24 37 79 183 71 190 -3 3 -16 -1 -29 -9 -12 -8 -50 -18 -83 -22 -99 -12 -139 -43 -197 -158 -36 -72 -43 -66 -51 48 -4 44 -9 107 -13 140 -5 50 -3 64 12 83 18 21 23 22 79 12 79 -13 126 0 162 45 27 34 98 204 89 213 -3 2 -17 -5 -32 -17 -16 -12 -41 -21 -63 -21 -97 0 -160 -43 -209 -144 -17 -35 -36 -67 -40 -70 -5 -3 -16 49 -24 117 -19 162 -19 162 96 162 l87 0 33 36 c22 23 43 65 61 118 27 83 28 104 0 81 -8 -7 -47 -18 -87 -26 -87 -17 -115 -40 -165 -138 -19 -37 -36 -66 -37 -65 -2 2 -16 52 -30 111 l-27 108 24 32 c56 75 71 137 44 185 -12 21 -145 163 -153 163 -2 0 -4 -19 -4 -42 0 -23 -7 -65 -16 -93 -22 -70 -13 -111 40 -182 42 -56 44 -63 60 -177 9 -66 15 -121 13 -122 -2 -2 -22 25 -45 61 -55 82 -92 105 -190 115 -42 4 -87 11 -98 15 -21 7 -21 4 7 -57 51 -108 66 -132 100 -155 38 -27 102 -30 173 -9 45 14 47 14 56 -7 10 -24 41 -260 35 -265 -2 -3 -19 20 -38 49 -63 98 -109 129 -189 129 -33 0 -68 7 -92 19 l-38 20 6 -25 c13 -52 81 -176 109 -200 36 -30 97 -34 182 -12 60 15 69 -2 84 -167 7 -75 10 -139 7 -142 -2 -3 -14 14 -26 36 -26 52 -85 118 -121 137 -16 8 -54 14 -86 14 -32 0 -71 7 -87 15 -16 9 -31 13 -33 11 -10 -9 88 -195 113 -215 38 -30 86 -36 155 -19 52 13 63 13 74 1 20 -20 26 -66 23 -173 l-3 -95 -50 74 c-61 90 -110 121 -192 121 -30 0 -67 7 -83 15 -42 21 -40 6 10 -99 60 -127 107 -153 227 -124 90 22 95 14 91 -132 l-3 -114 -38 63 c-53 85 -97 112 -190 119 -39 2 -78 9 -85 15 -8 6 -16 7 -22 1 -6 -6 8 -45 36 -102 33 -68 54 -98 77 -112 36 -22 101 -26 161 -9 31 8 41 8 48 -3 9 -14 5 -81 -13 -186 l-11 -64 -18 40 c-22 48 -83 118 -121 138 -16 8 -54 14 -87 14 -36 0 -66 6 -78 15 -26 20 -34 19 -34 -5 0 -27 65 -158 93 -188 41 -44 122 -50 210 -17 14 6 17 1 17 -36 0 -39 -45 -209 -55 -209 -2 0 -20 24 -39 53 -51 74 -75 88 -168 98 -44 4 -86 13 -94 20 -27 22 -25 1 8 -77 55 -133 115 -170 226 -141 28 8 52 10 52 5 0 -12 -67 -157 -87 -187 l-15 -24 -29 54 c-53 95 -88 122 -179 133 -30 4 -66 14 -78 22 -13 9 -26 14 -28 11 -2 -2 7 -35 20 -73 52 -154 80 -178 199 -171 42 3 77 2 77 -2 0 -4 -23 -41 -52 -81 -58 -84 -50 -85 -111 20 -42 72 -79 95 -162 104 -37 4 -78 14 -91 23 -13 8 -24 11 -24 5 0 -29 75 -183 101 -208 27 -26 37 -29 92 -29 34 0 75 2 91 5 16 3 31 0 32 -5 5 -13 -137 -165 -153 -165 -7 0 -19 15 -27 33 -21 50 -73 116 -109 137 -21 13 -50 20 -87 20 -30 0 -68 7 -84 15 -15 8 -32 15 -37 15 -4 0 6 -33 22 -72 62 -146 108 -179 222 -158 103 18 104 4 8 -72 -44 -34 -119 -87 -167 -117 l-86 -55 -87 5 c-47 2 -198 4 -334 4 l-249 0 -29 -33 c-16 -18 -29 -39 -29 -48 0 -11 -5 -14 -16 -10 -9 3 -40 6 -70 6 l-54 0 0 119 c0 118 0 120 28 141 45 36 195 104 414 189 407 157 563 263 647 441 l26 55 3 1188 2 1187 -490 0 -490 0 0 75 c0 64 3 76 20 85 11 6 20 21 20 34 0 20 7 24 39 30 44 7 71 35 71 76 0 41 -27 69 -71 76 -47 8 -49 22 -10 72 65 81 93 166 106 317 l6 70 -40 -45 c-43 -49 -60 -49 -42 1 16 45 14 87 -7 141 -24 63 -28 65 -47 29 -17 -33 -53 -45 -40 -13 16 36 17 90 5 201 -12 103 -12 119 3 161 9 26 17 50 17 54 0 11 -18 6 -31 -10z m-464 -964 c4 -6 -5 -10 -19 -10 -14 0 -26 5 -26 10 0 6 9 10 19 10 11 0 23 -4 26 -10z m430 0 c-4 -6 -85 -10 -211 -10 -129 0 -204 4 -204 10 0 6 77 10 211 10 137 0 208 -3 204 -10z m55 0 c0 -5 -9 -10 -21 -10 -11 0 -17 5 -14 10 3 6 13 10 21 10 8 0 14 -4 14 -10z m92 -47 c25 -23 23 -68 -4 -87 -19 -14 -69 -16 -345 -16 -310 0 -324 1 -343 20 -11 11 -20 29 -20 40 0 11 9 29 20 40 19 19 33 20 347 20 290 0 328 -2 345 -17z m-94 -143 c-3 -20 -10 -21 -258 -22 -254 -1 -255 -1 -258 21 l-3 21 261 0 c257 0 261 0 258 -20z m-408 -58 c0 -5 -9 -17 -20 -27 -20 -18 -20 -17 -20 8 0 20 5 27 20 27 11 0 20 -4 20 -8z m119 -22 c-24 -31 -38 -28 -60 12 -9 16 -5 18 36 18 l46 0 -22 -30z m139 0 c-12 -16 -24 -30 -27 -29 -3 0 -16 13 -29 30 l-24 29 52 0 51 0 -23 -30z m112 -2 c0 -34 -4 -32 -31 15 -8 14 -6 17 11 17 16 0 20 -6 20 -32z m-312 -23 c-3 -4 -20 -5 -37 -3 -31 3 -31 3 -15 26 l16 24 21 -21 c12 -11 18 -23 15 -26z m126 20 l16 -25 -40 0 -41 0 18 25 c23 31 27 31 47 0z m144 -3 c14 -21 13 -22 -27 -22 l-42 0 18 25 c21 28 31 28 51 -3z m42 -77 l0 -35 -205 0 -205 0 0 35 0 35 205 0 205 0 0 -35z m-1138 -177 c17 6 33 10 35 9 1 -2 -3 -18 -9 -35 -11 -29 -10 -34 17 -62 l30 -31 -42 7 c-40 6 -42 5 -61 -32 -21 -40 -24 -39 -36 19 -5 19 -13 27 -29 27 -12 0 -28 4 -36 9 -11 7 -6 13 18 26 31 15 32 19 26 57 l-7 40 31 -23 c28 -21 35 -22 63 -11z m291 -36 c16 -14 21 -14 52 1 40 19 41 17 19 -25 -15 -29 -15 -31 12 -59 l28 -29 -41 0 c-36 0 -42 -4 -53 -30 -15 -35 -30 -39 -30 -7 0 34 -12 46 -55 55 l-39 8 36 21 c35 20 37 24 31 59 -6 39 0 40 40 6z m-945 -6 c-7 -8 -15 -12 -17 -11 -5 6 10 25 20 25 5 0 4 -6 -3 -14z m-123 -55 c-9 -8 -36 -10 -30 -2 2 4 11 8 20 8 8 0 13 -3 10 -6z m100 0 c3 -5 2 -12 -3 -15 -5 -3 -9 1 -9 9 0 17 3 19 12 6z m-68 -124 c0 -8 -6 -14 -14 -14 -9 0 -10 4 -2 14 6 7 12 13 14 13 1 0 2 -6 2 -13z m1618 -56 c10 -16 -12 -22 -100 -25 -46 -1 -88 -5 -91 -9 -4 -3 -6 -51 -5 -107 l2 -100 -123 0 -122 0 52 53 c29 29 52 56 52 59 0 4 -16 33 -35 65 -19 32 -35 61 -35 66 0 11 398 9 405 -2z m-571 -63 c30 13 30 12 14 -23 -10 -22 -8 -29 13 -51 l24 -26 -32 7 c-29 6 -34 3 -44 -19 -15 -33 -29 -33 -29 -1 0 19 -7 26 -27 31 -16 3 -32 7 -38 9 -5 1 3 8 18 16 24 11 28 18 25 45 l-4 33 28 -17 c22 -13 32 -13 52 -4z m576 5 c0 -10 -23 -13 -90 -13 -94 0 -125 16 -42 22 90 7 132 4 132 -9z m-1770 -29 c0 -2 -8 0 -19 5 -10 6 -22 7 -26 3 -5 -4 -5 -1 -1 6 5 9 12 9 27 2 10 -6 19 -13 19 -16z m865 -12 c-5 -34 -3 -40 19 -52 33 -17 33 -28 -1 -32 -22 -2 -30 -10 -38 -35 -11 -40 -16 -41 -36 -4 -14 23 -21 27 -48 23 -19 -2 -31 0 -31 7 0 6 4 11 8 11 5 0 14 11 21 24 10 18 10 28 1 46 -15 29 -10 32 28 18 29 -11 34 -10 54 10 12 12 24 22 26 22 2 0 1 -17 -3 -38z m2941 21 c-2 -9 -9 -19 -17 -21 -11 -3 -11 -1 1 7 8 6 11 11 7 11 -5 0 -5 5 -2 10 9 15 14 12 11 -7z m-3933 -6 c7 4 6 -1 -2 -10 -19 -24 -30 -21 -23 5 3 12 7 17 10 10 2 -7 9 -9 15 -5z m3135 -144 l-3 -138 -707 -3 -708 -2 0 140 0 140 710 0 711 0 -3 -137z m757 127 c-3 -5 0 -10 7 -10 10 0 9 -3 -2 -10 -9 -5 -19 -5 -26 0 -6 6 -15 6 -19 2 -5 -4 -5 -1 -1 6 4 7 11 10 16 7 5 -3 11 -1 15 5 3 5 8 10 11 10 3 0 2 -4 -1 -10z m-3853 -15 c3 3 13 -3 22 -14 11 -12 14 -21 7 -26 -6 -3 -11 1 -11 9 0 9 -3 15 -7 15 -20 -3 -31 2 -37 17 -5 13 -4 14 7 6 8 -7 16 -10 19 -7z m323 -35 c-3 -5 -1 -10 6 -10 7 0 10 -3 6 -6 -9 -9 -28 6 -22 17 4 5 8 9 11 9 3 0 2 -4 -1 -10z m145 6 c0 -3 -4 -8 -10 -11 -5 -3 -10 -1 -10 4 0 6 5 11 10 11 6 0 10 -2 10 -4z m-340 -28 c0 -6 -6 -5 -15 2 -8 7 -15 14 -15 16 0 2 7 1 15 -2 8 -4 15 -11 15 -16z m3765 -1 c-8 -13 -13 -26 -10 -29 3 -2 -2 -5 -9 -5 -12 0 -11 7 5 29 24 34 36 38 14 5z m-3834 -14 c13 -16 12 -17 -3 -4 -17 13 -22 21 -14 21 2 0 10 -8 17 -17z m261 0 c-6 -2 -10 -9 -7 -13 3 -5 0 -12 -6 -16 -8 -4 -9 -3 -5 4 4 7 1 12 -6 12 -9 0 -9 3 2 10 8 5 20 9 25 9 6 0 4 -3 -3 -6z m98 3 c0 -3 -4 -8 -10 -11 -5 -3 -10 -1 -10 4 0 6 5 11 10 11 6 0 10 -2 10 -4z m3023 -11 c-3 -9 -8 -14 -10 -11 -3 3 -2 9 2 15 9 16 15 13 8 -4z m41 -4 c14 -15 15 -21 4 -27 -7 -4 -10 -3 -5 1 4 5 0 17 -10 27 -9 10 -14 18 -11 18 3 0 13 -9 22 -19z m72 -57 c-6 -6 -13 -8 -14 -3 -2 5 -8 7 -12 4 -5 -3 -11 -1 -14 4 -4 5 7 9 23 9 23 -1 26 -4 17 -14z m-2221 -104 c4 0 20 9 36 21 31 22 35 16 18 -28 -9 -25 -7 -30 23 -55 l33 -27 -38 -1 c-35 0 -40 -4 -56 -40 l-18 -40 -16 40 c-14 37 -18 40 -54 40 l-38 1 28 25 c26 22 28 29 22 66 l-7 41 30 -22 c17 -11 33 -21 37 -21z m-1285 -25 c14 -19 14 -19 -2 -6 -10 7 -18 18 -18 24 0 6 1 8 3 6 1 -2 9 -13 17 -24z m3867 4 c-8 -13 -13 -15 -19 -6 -6 9 -10 8 -18 -3 -6 -9 -10 -10 -10 -3 0 13 24 30 45 30 10 0 11 -4 2 -18z m-4022 -29 c3 -5 2 -10 -4 -10 -5 0 -13 5 -16 10 -3 6 -2 10 4 10 5 0 13 -4 16 -10z m3579 -12 c-8 -12 10 -10 26 5 12 10 12 9 2 -5 -10 -13 -10 -17 0 -21 8 -3 9 -6 2 -6 -7 -1 -22 7 -34 17 -18 14 -19 19 -7 19 9 0 14 -4 11 -9z m380 4 c3 -5 -1 -9 -9 -9 -8 0 -12 4 -9 9 3 4 7 8 9 8 2 0 6 -4 9 -8z m-3454 -53 c-12 -22 -16 -23 -26 -7 -5 7 -3 8 6 3 10 -6 12 -4 7 7 -6 18 1 30 14 22 5 -3 4 -14 -1 -25z m3525 12 c-3 -6 2 -14 11 -19 14 -8 12 -9 -9 -9 -15 0 -32 7 -39 16 -10 13 -10 14 2 4 16 -14 31 -17 29 -5 -2 12 1 22 7 22 3 0 3 -4 -1 -9z m-3642 -14 c3 -8 -1 -14 -8 -14 -7 0 -11 6 -8 14 3 7 6 13 8 13 2 0 5 -6 8 -13z m167 -3 c0 -8 -19 -13 -24 -6 -3 5 1 9 9 9 8 0 15 -2 15 -3z m3010 -8 c0 -3 -4 -8 -10 -11 -5 -3 -10 -1 -10 4 0 6 5 11 10 11 6 0 10 -2 10 -4z m425 -6 c3 -6 -1 -7 -9 -4 -18 7 -21 14 -7 14 6 0 13 -4 16 -10z m-3849 -32 c0 -17 -2 -17 -12 -4 -6 9 -15 12 -19 8 -5 -4 -5 -2 -2 4 10 18 33 12 33 -8z m311 -10 c-3 -7 -5 -2 -5 12 0 14 2 19 5 13 2 -7 2 -19 0 -25z m3164 5 c13 -16 12 -17 -3 -4 -10 7 -18 15 -18 17 0 8 8 3 21 -13z m-413 -781 l-3 -647 -28 -57 c-16 -32 -51 -83 -79 -114 -106 -116 -239 -189 -592 -326 -281 -109 -354 -146 -431 -220 l-59 -58 -23 29 c-60 76 -177 139 -498 266 -253 100 -332 138 -433 208 -90 62 -158 135 -197 213 l-30 59 -3 648 -2 647 1190 0 1190 0 -2 -648z m-3118 618 c0 -5 -5 -12 -10 -15 -6 -4 -9 -1 -8 7 2 7 -3 12 -10 10 -8 -1 -11 2 -7 7 6 11 35 3 35 -9z m-113 -22 c-3 -8 -6 -5 -6 6 -1 11 2 17 5 13 3 -3 4 -12 1 -19z m-33 -4 c3 -8 2 -12 -4 -9 -6 3 -10 10 -10 16 0 14 7 11 14 -7z m77 -1 c13 -16 12 -17 -3 -4 -14 11 -18 11 -18 1 0 -8 -3 -11 -6 -7 -5 5 3 27 10 27 2 0 10 -8 17 -17z m404 -13 c3 -6 -1 -7 -9 -4 -18 7 -21 14 -7 14 6 0 13 -4 16 -10z m-452 -23 c-7 -13 -10 -13 -23 1 -13 14 -12 15 3 9 10 -4 17 -2 17 5 0 6 3 9 6 5 3 -3 2 -12 -3 -20z m152 11 c5 4 5 1 1 -6 -6 -10 -11 -10 -22 -1 -8 6 -14 14 -14 16 0 3 6 0 13 -6 8 -6 18 -7 22 -3z m3498 -3 c-3 -9 -8 -14 -10 -11 -3 3 -2 9 2 15 9 16 15 13 8 -4z m-3562 -32 c13 -14 17 -22 9 -17 -8 4 -24 10 -34 11 -26 4 -34 13 -12 13 9 0 14 5 11 10 -11 18 1 10 26 -17z m3616 12 c-6 -7 -15 -11 -19 -8 -14 8 -8 19 12 20 16 1 17 -1 7 -12z m-3300 -10 c0 -8 -4 -12 -9 -9 -5 3 -6 10 -3 15 9 13 12 11 12 -6z m173 11 c0 -2 -8 -10 -17 -17 -16 -13 -17 -12 -4 4 13 16 21 21 21 13z m3590 0 c0 -2 -8 -10 -17 -17 -16 -13 -17 -12 -4 4 13 16 21 21 21 13z m-3658 -24 c-4 -11 -1 -13 8 -7 9 6 11 4 5 -5 -6 -10 -11 -10 -20 3 -7 9 -16 13 -20 9 -5 -4 -5 -2 -2 4 10 17 36 13 29 -4z m3218 14 c0 -3 -4 -8 -10 -11 -5 -3 -10 -1 -10 4 0 6 5 11 10 11 6 0 10 -2 10 -4z m-3554 -31 c-1 -8 -8 -21 -16 -28 -10 -10 -11 -9 -4 3 5 8 9 18 10 23 3 14 4 17 8 17 2 0 3 -7 2 -15z m3579 -3 c-3 -3 -11 0 -18 7 -9 10 -8 11 6 5 10 -3 15 -9 12 -12z m-3641 -23 c-2 -4 1 -9 8 -11 7 -3 4 -7 -7 -12 -11 -4 -16 -4 -12 0 4 4 0 18 -8 31 -15 23 -15 23 4 11 11 -6 18 -15 15 -19z m259 16 c-3 -9 -8 -14 -10 -11 -3 3 -2 9 2 15 9 16 15 13 8 -4z m3732 -15 c3 -6 -1 -7 -9 -4 -18 7 -21 14 -7 14 6 0 13 -4 16 -10z m-407 -45 c-3 -3 -9 2 -12 12 -6 14 -5 15 5 6 7 -7 10 -15 7 -18z m66 -3 c3 -5 -1 -9 -9 -9 -8 0 -12 4 -9 9 3 4 7 8 9 8 2 0 6 -4 9 -8z m-3750 -60 c3 -5 -1 -9 -9 -9 -8 0 -12 4 -9 9 3 4 7 8 9 8 2 0 6 -4 9 -8z m53 -39 c0 -10 -4 -10 -16 -1 -9 7 -18 13 -20 15 -2 1 5 1 16 0 11 0 20 -7 20 -14z m38 -21 c-3 -3 -11 0 -18 7 -9 10 -8 11 6 5 10 -3 15 -9 12 -12z m-96 -26 c9 -11 9 -16 -1 -22 -7 -4 -10 -4 -6 1 4 4 3 14 -3 22 -6 7 -9 13 -6 13 2 0 10 -6 16 -14z m-56 -29 c-3 -5 -9 -4 -13 3 -4 7 -13 10 -19 6 -7 -4 -9 -1 -5 8 5 12 10 13 24 4 10 -7 16 -16 13 -21z m4154 11 c-3 -8 -6 -5 -6 6 -1 11 2 17 5 13 3 -3 4 -12 1 -19z m-4121 3 c-8 -12 19 -33 29 -23 5 4 5 1 1 -6 -6 -11 -12 -10 -27 4 -16 14 -18 34 -3 34 3 0 3 -4 0 -9z m572 -10 l22 -18 -29 1 c-20 1 -26 4 -20 12 5 6 6 14 2 17 -15 15 5 6 25 -12z m-414 -2 c-2 -4 1 -9 8 -11 7 -3 5 -7 -6 -11 -11 -5 -15 -3 -10 5 5 7 2 9 -9 5 -10 -4 -14 -2 -11 7 3 7 11 13 19 13 8 0 12 -4 9 -8z m286 7 c0 -2 -6 -9 -14 -15 -11 -9 -16 -9 -22 0 -4 7 -3 9 4 5 6 -3 13 -2 17 4 6 10 15 14 15 6z m3321 -13 c13 -16 12 -17 -3 -4 -10 7 -18 15 -18 17 0 8 8 3 21 -13z m-3704 0 c-4 -3 0 -15 10 -25 9 -10 13 -18 8 -18 -4 0 -1 -8 6 -17 13 -16 12 -17 -3 -4 -10 7 -16 17 -13 21 3 4 -2 13 -10 20 -14 11 -12 30 2 30 4 0 3 -3 0 -7z m4011 -17 c-7 -8 -15 -12 -17 -11 -5 6 10 25 20 25 5 0 4 -6 -3 -14z m-3672 -22 c2 -12 -1 -13 -12 -3 -7 6 -11 16 -8 21 7 11 17 3 20 -18z m116 19 c-6 -2 -9 -10 -6 -15 4 -7 2 -8 -5 -4 -13 9 -5 26 12 25 9 0 8 -2 -1 -6z m3684 -13 c0 -12 -4 -16 -9 -11 -5 5 -6 14 -3 20 10 15 12 14 12 -9z m-3651 0 c-3 -5 -12 -10 -18 -10 -7 0 -6 4 3 10 19 12 23 12 15 0z m3631 -35 c1 -8 -4 -11 -11 -8 -8 2 -11 11 -8 19 6 16 16 11 19 -11z m-4015 -5 c6 0 7 5 4 10 -3 6 -4 10 -1 10 15 0 14 -20 -2 -29 -15 -8 -18 -6 -19 12 0 12 1 16 4 10 3 -7 9 -13 14 -13z m227 -5 c-3 -3 -9 2 -12 12 -6 14 -5 15 5 6 7 -7 10 -15 7 -18z m3282 10 c0 -8 -4 -15 -8 -15 -5 0 -9 7 -9 15 0 8 4 15 9 15 4 0 8 -7 8 -15z m-3566 -20 c-5 -11 -1 -14 12 -9 15 5 16 4 5 -4 -10 -7 -20 -6 -33 1 -18 12 -16 15 19 26 1 1 0 -6 -3 -14z m346 2 c0 -2 -10 -12 -22 -23 l-23 -19 19 23 c18 21 26 27 26 19z m0 -147 c-12 -22 -25 -26 -35 -10 -3 5 0 7 8 4 8 -3 17 2 20 10 4 9 9 16 12 16 3 0 1 -9 -5 -20z m-343 -2 c-2 -7 3 -19 12 -26 13 -10 11 -10 -11 -1 -21 9 -24 14 -15 25 15 17 20 17 14 2z m3645 -23 c16 0 15 -11 -2 -12 -10 -1 -21 5 -24 13 -4 10 -2 13 7 7 6 -4 15 -8 19 -8z m363 -6 c-3 -13 0 -19 8 -16 7 3 11 10 10 16 -2 6 2 11 7 11 9 0 12 -8 9 -27 -1 -5 -5 -7 -10 -5 -5 1 -9 -3 -9 -10 0 -6 -3 -8 -7 -5 -3 4 -12 2 -19 -4 -9 -8 -12 -6 -9 8 2 10 4 19 5 21 2 1 4 7 5 12 1 6 3 12 4 15 4 16 9 2 6 -16z m-4194 -6 c13 -16 12 -17 -3 -4 -17 13 -22 21 -14 21 2 0 10 -8 17 -17z m654 -4 c-4 -5 -12 -9 -18 -8 -9 0 -8 2 1 6 6 2 9 10 6 15 -4 7 -2 8 5 4 6 -4 9 -12 6 -17z m-38 -14 c0 -8 -4 -12 -9 -9 -5 3 -6 10 -3 15 9 13 12 11 12 -6z m-400 -9 c-3 -7 0 -19 6 -25 6 -6 9 -11 6 -11 -3 0 -14 10 -25 22 -10 12 -13 18 -6 14 6 -4 12 -2 12 3 0 6 3 11 6 11 3 0 4 -6 1 -14z m250 -8 c0 -13 -1 -17 -4 -10 -3 6 -9 10 -14 6 -5 -3 -9 -1 -9 5 0 5 6 12 13 14 6 3 12 6 12 6 1 1 1 -9 2 -21z m-316 -33 c3 3 6 -2 6 -10 0 -23 -23 3 -31 35 -5 23 -5 23 7 -3 7 -15 16 -25 18 -22z m4003 13 c-1 -13 -3 -25 -3 -27 -1 -3 -6 0 -13 7 -8 8 -8 15 0 25 7 8 8 18 4 22 -4 5 -2 5 4 2 6 -3 10 -16 8 -29z m-4103 -1 c-10 -9 -11 -8 -5 6 3 10 9 15 12 12 3 -3 0 -11 -7 -18z m503 5 c2 -4 -5 -9 -17 -9 -17 -2 -19 0 -7 7 18 12 18 12 24 2z m3220 -22 c-21 -8 -37 -3 -29 10 3 4 15 6 27 2 21 -5 21 -6 2 -12z m527 7 c-6 -8 -9 -16 -6 -18 2 -3 -9 -5 -24 -4 -16 0 -27 4 -24 8 3 4 10 6 16 4 7 -2 18 2 25 10 17 17 28 17 13 0z m-3787 -28 c-10 -12 -18 -24 -17 -28 1 -3 0 -8 -2 -9 -2 -2 -3 3 -1 11 2 16 25 47 34 47 3 0 -3 -9 -14 -21z m3348 1 c11 -12 11 -12 -3 -2 -9 7 -23 10 -32 6 -8 -3 -17 -1 -20 3 -9 15 41 9 55 -7z m-3622 -15 c-13 -14 -26 -23 -28 -20 -3 3 -12 -1 -21 -8 -14 -11 -14 -10 -3 5 8 10 19 16 25 15 7 -1 11 4 9 11 -1 8 2 11 7 8 5 -4 12 -2 16 4 3 5 9 10 12 10 4 0 -4 -11 -17 -25z m-211 -185 c0 -10 -3 -8 -9 5 -12 27 -12 43 0 25 5 -8 9 -22 9 -30z m177 15 c-1 -8 -6 -18 -11 -22 -4 -4 -5 -2 -1 5 5 7 1 12 -11 13 -16 0 -16 1 2 9 11 5 21 9 22 9 1 1 0 -6 -1 -14z m-155 -18 c-10 -9 -11 -8 -5 6 3 10 9 15 12 12 3 -3 0 -11 -7 -18z m4200 6 c7 -10 10 -15 5 -11 -5 4 -18 3 -30 -3 -19 -9 -19 -9 -4 4 10 8 15 17 11 20 -3 4 -4 7 -1 7 3 0 12 -8 19 -17z m-3661 -8 c0 -2 -6 -5 -13 -8 -8 -3 -14 1 -14 8 0 7 6 11 14 8 7 -3 13 -6 13 -8z m3620 11 c0 -3 -4 -8 -10 -11 -5 -3 -10 -1 -10 4 0 6 5 11 10 11 6 0 10 -2 10 -4z m-4087 -23 c-5 -12 -2 -15 10 -10 23 9 30 -8 10 -24 -12 -10 -14 -10 -9 -1 4 6 3 12 -1 12 -5 0 -15 -6 -23 -12 -12 -11 -12 -10 -1 5 15 20 9 22 -22 6 -15 -7 -12 -2 8 15 36 30 36 30 28 9z m107 13 c0 -2 -8 -10 -17 -17 -16 -13 -17 -12 -4 4 13 16 21 21 21 13z m33 -39 c-3 -5 0 -13 6 -17 9 -5 8 -10 -4 -20 -13 -11 -14 -10 -9 5 5 13 4 16 -5 10 -10 -6 -11 -3 -2 14 10 18 9 21 -6 21 -15 0 -16 2 -3 10 16 10 33 -7 23 -23z m3886 6 c-6 -7 -8 -13 -3 -13 11 -1 -27 -30 -38 -30 -5 0 0 10 11 22 11 11 18 24 16 28 -2 4 2 7 10 7 11 0 12 -4 4 -14z m-3595 -5 c-3 -5 -10 -6 -15 -3 -5 4 -9 1 -9 -6 0 -7 -3 -10 -6 -6 -9 9 3 24 20 24 8 0 13 -4 10 -9z m3226 -8 c8 -5 11 -10 5 -10 -5 0 -17 5 -25 10 -8 5 -10 10 -5 10 6 0 17 -5 25 -10z m-3289 -43 c-10 -9 -11 -8 -5 6 3 10 9 15 12 12 3 -3 0 -11 -7 -18z m-301 -8 c0 -5 5 -9 11 -9 5 0 7 4 4 10 -3 5 0 7 9 4 12 -5 12 -8 -2 -23 -10 -10 -19 -12 -21 -6 -2 5 -11 18 -19 28 -15 16 -14 17 1 11 9 -3 17 -10 17 -15z m4069 -2 c8 -10 7 -14 -2 -14 -8 0 -14 6 -14 14 0 7 1 13 2 13 2 0 8 -6 14 -13z m-78 -24 c13 -16 12 -17 -3 -4 -10 7 -18 15 -18 17 0 8 8 3 21 -13z m-3810 -75 c10 -40 19 -74 19 -76 0 -2 -21 13 -47 33 -25 19 -57 38 -70 41 -18 5 -21 10 -13 24 18 34 42 51 61 45 12 -4 19 -2 19 6 0 27 12 -3 31 -73z m194 -47 c3 -5 2 -12 -3 -15 -5 -3 -9 1 -9 9 0 17 3 19 12 6z m121 -13 c-9 -5 -21 -6 -28 -2 -8 5 -9 1 -4 -12 6 -16 5 -17 -6 -6 -11 11 -10 16 5 27 11 7 26 11 34 8 13 -5 13 -7 -1 -15z m3064 -11 c0 -5 -4 -5 -10 -2 -5 3 -10 14 -10 23 0 15 2 15 10 2 5 -8 10 -19 10 -23z m-3458 16 c-6 -2 -9 -10 -6 -15 4 -7 2 -8 -5 -4 -13 9 -5 26 12 25 9 0 8 -2 -1 -6z m3413 -11 c-3 -3 -11 0 -18 7 -9 10 -8 11 6 5 10 -3 15 -9 12 -12z m-3551 -45 c3 -17 1 -25 -5 -21 -6 3 -8 8 -5 12 3 3 -2 11 -12 19 -9 8 -11 11 -3 7 11 -6 13 -3 7 12 -5 13 -4 16 3 9 5 -5 12 -22 15 -38z m4010 28 c-4 -8 -8 -15 -10 -15 -2 0 -4 7 -4 15 0 8 4 15 10 15 5 0 7 -7 4 -15z m-44 -25 c0 -5 -8 -10 -17 -10 -15 0 -16 2 -3 10 19 12 20 12 20 0z m-46 -19 c4 -5 -3 -7 -14 -4 -23 6 -26 13 -6 13 8 0 17 -4 20 -9z m-3733 -24 c-10 -9 -11 -8 -5 6 3 10 9 15 12 12 3 -3 0 -11 -7 -18z m-31 -42 c0 -7 6 -16 13 -18 9 -4 9 -6 0 -6 -6 -1 -15 4 -18 9 -5 8 -12 7 -23 -2 -14 -11 -14 -9 1 8 9 11 14 24 10 29 -5 4 -2 5 5 1 6 -4 12 -13 12 -21z m44 7 c3 -5 -1 -9 -9 -9 -8 0 -12 4 -9 9 3 4 7 8 9 8 2 0 6 -4 9 -8z m3791 -1 c3 -5 2 -12 -3 -15 -5 -3 -9 1 -9 9 0 17 3 19 12 6z m-3290 -101 c-3 -5 -12 -10 -18 -10 -7 0 -6 4 3 10 19 12 23 12 15 0z m-81 -50 c-6 -6 -10 -3 -10 10 0 13 4 16 10 10 7 -7 7 -13 0 -20z m2779 7 c3 -7 -3 -13 -14 -14 -15 -1 -16 1 -6 12 15 18 14 18 20 2z m-3110 -40 c-14 -6 -27 -5 -39 2 -17 11 -16 11 5 5 15 -4 21 -2 17 4 -4 6 2 8 16 4 l22 -5 -21 -10z m3166 20 c-2 -1 -13 -9 -24 -17 -19 -14 -19 -14 -6 3 7 9 18 17 24 17 6 0 8 -1 6 -3z m404 -24 c-4 -10 -2 -14 4 -10 16 10 40 -2 40 -20 0 -14 -1 -14 -12 1 -7 8 -15 13 -18 9 -4 -3 -14 0 -22 7 -13 11 -13 15 -3 21 18 12 18 11 11 -8z m-53 3 c0 -2 -8 -10 -17 -17 -16 -13 -17 -12 -4 4 13 16 21 21 21 13z m28 -31 c-3 -3 -9 2 -12 12 -6 14 -5 15 5 6 7 -7 10 -15 7 -18z m-3483 -32 c-2 -10 -4 -19 -4 -21 -1 -2 -6 0 -11 3 -8 5 -7 11 1 21 15 18 18 18 14 -3z m2962 -3 c1 -16 -1 -17 -12 -7 -11 10 -8 19 10 27 1 0 1 -9 2 -20z m-3127 0 c-18 -12 -30 -13 -30 -2 0 4 10 9 22 9 18 2 20 0 8 -7z m110 -14 c0 -2 -8 -10 -17 -17 -16 -13 -17 -12 -4 4 13 16 21 21 21 13z m3001 -13 c12 -16 12 -17 -2 -6 -9 7 -20 9 -24 5 -5 -4 -5 -1 -1 6 9 16 11 15 27 -5z m-2946 -21 c-3 -3 -11 0 -18 7 -9 10 -8 11 6 5 10 -3 15 -9 12 -12z m433 -3 c3 -12 2 -12 -6 0 -6 8 -15 10 -22 6 -9 -5 -11 -4 -6 4 10 15 28 10 34 -10z m-98 -59 c0 -5 -5 -10 -11 -10 -5 0 -7 5 -4 10 3 6 8 10 11 10 2 0 4 -4 4 -10z m194 -28 c3 -5 -1 -9 -9 -9 -8 0 -12 4 -9 9 3 4 7 8 9 8 2 0 6 -4 9 -8z m81 -52 c-5 -8 -11 -8 -17 -2 -6 6 -7 16 -3 22 5 8 11 8 17 2 6 -6 7 -16 3 -22z m-538 14 c-3 -3 -12 -4 -19 -1 -8 3 -5 6 6 6 11 1 17 -2 13 -5z m429 -6 c-1 -7 -5 -14 -10 -15 -17 -3 -25 -28 -13 -43 10 -13 10 -13 -5 -2 -18 15 -14 40 10 60 9 6 17 12 18 12 1 0 1 -6 0 -12z m2298 -9 c-2 -4 2 -9 8 -12 7 -3 3 -4 -9 -4 -12 1 -20 4 -17 8 2 4 -2 9 -8 12 -7 3 -3 4 9 4 12 -1 20 -4 17 -8z m-2653 -42 c-10 -9 -11 -8 -5 6 3 10 9 15 12 12 3 -3 0 -11 -7 -18z m430 6 c13 -16 12 -17 -3 -4 -17 13 -22 21 -14 21 2 0 10 -8 17 -17z m2244 -3 c3 -6 -1 -7 -9 -4 -18 7 -21 14 -7 14 6 0 13 -4 16 -10z m-2875 -25 c-7 -8 -17 -15 -22 -15 -6 0 -5 7 2 15 7 8 17 15 22 15 6 0 5 -7 -2 -15z m108 3 c-2 -4 6 -14 17 -23 19 -16 19 -16 -3 -5 -12 6 -20 15 -17 20 3 4 0 11 -5 13 -7 4 -6 5 0 4 7 -2 10 -6 8 -9z m122 2 c0 -5 -2 -10 -4 -10 -3 0 -8 5 -11 10 -3 6 -1 10 4 10 6 0 11 -4 11 -10z m-204 -19 c0 -11 -5 -17 -13 -14 -10 4 -11 9 -2 19 15 18 15 18 15 -5z m574 15 c0 -2 -7 -7 -16 -10 -8 -3 -12 -2 -9 4 6 10 25 14 25 6z m2227 -18 c0 -13 -1 -17 -4 -10 -3 6 -9 12 -14 12 -6 0 -7 -5 -3 -12 5 -7 3 -8 -6 -3 -10 6 -9 11 5 22 11 7 19 13 20 13 0 0 1 -10 2 -22z m638 12 c3 -6 -1 -7 -9 -4 -18 7 -21 14 -7 14 6 0 13 -4 16 -10z m-3398 -6 c-3 -3 -12 -4 -19 -1 -8 3 -5 6 6 6 11 1 17 -2 13 -5z m139 -22 c-2 -8 -11 -19 -22 -24 -17 -9 -18 -8 -2 5 12 9 14 17 7 24 -6 6 -5 10 5 10 7 0 13 -7 12 -15z m3171 -29 c0 -9 -4 -10 -13 -2 -7 6 -19 7 -25 3 -7 -4 -9 -3 -5 4 9 15 43 11 43 -5z m24 -6 c-10 -9 -11 -8 -5 6 3 10 9 15 12 12 3 -3 0 -11 -7 -18z m-3146 -97 c-3 -5 -12 -10 -18 -10 -7 0 -6 4 3 10 19 12 23 12 15 0z m132 -9 c0 -11 -7 -17 -14 -14 -9 4 -9 8 0 19 16 17 16 17 14 -5z m1369 -198 c-4 -10 -22 -13 -68 -11 l-63 3 -3 104 c-2 95 -1 103 13 91 9 -8 23 -26 31 -42 17 -32 32 -36 41 -10 4 9 16 30 27 45 l21 29 3 -98 c1 -54 0 -104 -2 -111z m1381 165 c2 -17 0 -19 -7 -8 -5 8 -6 18 -4 22 8 12 10 10 11 -14z m37 1 c-3 -5 -10 -7 -15 -3 -5 3 -7 10 -3 15 3 5 10 7 15 3 5 -3 7 -10 3 -15z m26 -9 c0 -5 -5 -10 -11 -10 -5 0 -7 5 -4 10 3 6 8 10 11 10 2 0 4 -4 4 -10z m25 -19 c-2 -5 -14 -11 -25 -14 -11 -3 -18 -1 -14 4 3 5 12 9 20 9 9 0 12 5 8 12 -4 7 -3 8 5 4 6 -4 9 -11 6 -15z m-135 -21 c0 -5 -2 -10 -4 -10 -3 0 -8 5 -11 10 -3 6 -1 10 4 10 6 0 11 -4 11 -10z m30 -20 c0 -5 -2 -10 -4 -10 -3 0 -8 5 -11 10 -3 6 -1 10 4 10 6 0 11 -4 11 -10z m-2936 -7 c12 -13 48 -14 40 -1 -4 7 -3 8 5 4 6 -4 9 -12 6 -17 -6 -10 -33 -8 -52 4 -6 4 -14 1 -16 -5 -3 -8 -6 -6 -6 5 -1 17 10 23 23 10z m926 -118 c0 -9 -9 -15 -25 -15 -16 0 -25 -6 -25 -15 0 -9 9 -15 25 -15 14 0 25 -4 25 -10 0 -5 -11 -12 -25 -16 -32 -8 -33 -34 -1 -34 14 0 27 -4 30 -9 7 -11 -17 -21 -50 -21 -23 0 -24 3 -24 69 0 72 4 79 48 80 13 1 22 -5 22 -14z m84 -1 c19 -18 20 -28 6 -55 -8 -13 -7 -25 1 -41 11 -21 14 -18 30 41 10 35 21 66 24 69 10 10 22 -12 33 -59 7 -26 14 -54 18 -63 4 -11 1 -16 -10 -16 -9 0 -16 7 -16 15 0 8 -9 15 -20 15 -11 0 -20 -7 -20 -15 0 -26 -49 -18 -62 10 -6 14 -15 25 -20 25 -4 0 -8 -11 -8 -25 0 -14 -4 -25 -10 -25 -6 0 -10 30 -10 70 0 67 1 70 24 70 14 0 32 -7 40 -16z m960 10 c9 -3 16 -15 16 -25 0 -21 -16 -26 -23 -6 -2 6 -8 9 -12 5 -5 -4 4 -19 18 -32 30 -28 33 -44 14 -70 -16 -21 -45 -18 -61 6 -13 21 0 36 16 20 16 -16 28 -15 28 2 0 8 -9 18 -20 21 -25 8 -37 50 -20 70 14 17 21 18 44 9z m110 -52 c18 -67 20 -92 6 -92 -5 0 -10 7 -10 15 0 21 -30 19 -46 -2 -29 -40 -24 15 11 125 9 26 23 9 39 -46z m79 21 l16 -38 0 33 c1 19 6 32 14 32 9 0 11 -19 9 -71 -4 -77 -17 -87 -38 -28 l-12 34 -1 -32 c-1 -17 -5 -35 -11 -38 -6 -4 -10 22 -10 69 0 42 4 76 9 76 5 0 16 -17 24 -37z m-1415 10 c2 -8 -6 -13 -22 -13 -16 0 -26 -6 -26 -15 0 -8 9 -15 20 -15 11 0 20 -4 20 -9 0 -5 -9 -11 -20 -14 -29 -8 -26 -37 5 -37 14 0 25 -4 25 -9 0 -8 -60 -24 -67 -17 -2 2 -6 33 -10 69 -5 58 -4 66 13 70 30 8 57 3 62 -10z m82 2 c17 -21 18 -89 1 -109 -7 -9 -26 -16 -42 -16 l-29 0 0 70 0 70 29 0 c16 0 34 -7 41 -15z m330 -40 c0 -52 1 -55 26 -55 37 0 25 -24 -14 -28 l-32 -3 0 70 c0 41 4 71 10 71 6 0 10 -25 10 -55z m1140 40 c0 -8 -7 -15 -15 -15 -12 0 -15 -13 -15 -60 0 -33 -4 -60 -10 -60 -6 0 -10 26 -10 59 0 43 -4 60 -15 65 -29 11 -15 26 25 26 29 0 40 -4 40 -15z m-1640 -10 c0 -8 -9 -15 -20 -15 -11 0 -20 -7 -20 -15 0 -8 9 -15 20 -15 11 0 20 -4 20 -10 0 -5 -9 -10 -20 -10 -16 0 -20 -7 -20 -30 0 -16 -4 -30 -9 -30 -11 0 -25 115 -16 129 10 17 65 14 65 -4z m1714 -51 c17 -68 14 -92 -8 -61 -16 21 -46 23 -46 2 0 -8 -4 -15 -10 -15 -14 0 -13 14 6 82 9 32 22 58 29 58 7 0 20 -29 29 -66z m-1834 41 c0 -9 -9 -15 -25 -15 -16 0 -25 -6 -25 -15 0 -9 9 -15 25 -15 14 0 25 -4 25 -10 0 -5 -9 -10 -19 -10 -11 0 -22 -4 -25 -8 -8 -14 10 -34 29 -30 10 2 20 -2 22 -8 4 -12 -55 -26 -69 -17 -14 8 -9 131 5 136 26 11 57 7 57 -8z m2024 -7 c14 -23 1 -34 -20 -18 -13 12 -17 11 -25 -1 -12 -19 -11 -66 1 -74 6 -4 18 -1 26 6 20 16 28 5 14 -20 -24 -45 -70 -12 -70 51 0 65 46 100 74 56z m-2124 -13 c21 -25 18 -95 -5 -111 -45 -33 -65 -5 -65 94 0 29 3 32 29 32 16 0 34 -7 41 -15z m1060 -4 c5 -11 10 -34 10 -51 0 -47 -16 -70 -50 -70 l-30 0 0 70 0 70 30 0 c19 0 33 -7 40 -19z m90 4 c0 -8 -9 -15 -20 -15 -11 0 -20 -4 -20 -10 0 -5 9 -10 20 -10 11 0 20 -7 20 -15 0 -8 -9 -15 -20 -15 -14 0 -20 -7 -20 -21 0 -11 4 -18 9 -15 12 8 41 -3 41 -15 0 -5 -18 -9 -40 -9 l-40 0 0 70 0 70 35 0 c24 0 35 -5 35 -15z m1073 -68 c12 -57 12 -67 1 -67 -8 0 -14 7 -14 15 0 8 -2 15 -4 15 -2 0 -11 3 -20 6 -11 4 -16 1 -16 -10 0 -9 -7 -16 -14 -16 -13 0 -13 7 1 53 32 108 44 109 66 4z m-2316 9 c24 -57 22 -93 -2 -60 -14 20 -45 13 -45 -11 0 -8 -5 -15 -11 -15 -8 0 -9 18 -5 58 14 112 27 118 63 28z m2411 48 c16 -5 15 -24 -2 -24 -9 0 -16 -18 -21 -55 -9 -77 -29 -72 -22 5 4 47 2 60 -9 60 -8 0 -14 7 -14 15 0 15 19 14 68 -1z m-2510 -17 c16 -19 25 -64 18 -91 -6 -23 -61 -53 -70 -38 -8 14 -18 121 -11 131 9 15 50 14 63 -2z m2586 -49 c4 -29 10 -63 13 -75 3 -14 1 -23 -7 -23 -6 0 -14 9 -17 20 -6 24 -29 26 -41 4 -6 -11 -11 -13 -16 -5 -10 15 34 131 49 131 7 0 15 -21 19 -52z m-2665 -20 c6 -34 8 -64 6 -67 -12 -11 -24 17 -30 72 -10 78 10 75 24 -5z m-50 38 c14 -17 0 -29 -23 -20 -9 3 -16 1 -16 -5 0 -6 8 -11 18 -11 24 0 42 -19 42 -45 0 -44 -50 -61 -71 -24 -10 20 -9 21 21 14 25 -5 31 -4 28 6 -3 8 -14 15 -26 17 -12 2 -27 12 -32 23 -22 41 30 80 59 45z m2828 -8 c17 -14 16 -43 0 -60 -9 -8 -11 -21 -6 -33 11 -28 11 -45 0 -45 -5 0 -15 17 -22 38 l-13 37 -10 -27 c-16 -44 -29 -33 -22 18 3 26 6 58 6 71 0 22 3 24 27 18 16 -4 34 -11 40 -17z m-2917 -13 c7 -8 10 -27 7 -42 -3 -18 0 -34 11 -46 11 -12 12 -21 5 -28 -7 -7 -15 -2 -27 15 -22 35 -37 33 -29 -4 3 -18 1 -30 -5 -30 -10 0 -32 82 -32 120 0 11 9 20 23 23 12 2 25 5 28 6 4 0 12 -6 19 -14z m2975 -37 c-12 -80 -17 -98 -27 -98 -6 0 -7 22 -3 63 8 68 11 77 26 77 7 0 8 -16 4 -42z m-3065 18 c0 -8 -9 -18 -20 -21 -30 -9 -25 -33 5 -27 30 5 35 -17 5 -25 -11 -3 -20 -14 -20 -24 0 -16 4 -17 25 -9 16 6 26 6 31 -2 8 -12 -13 -28 -38 -28 -10 0 -21 0 -25 -1 -8 0 -30 79 -32 112 -1 10 12 20 32 27 17 5 33 10 35 11 1 1 2 -5 2 -13z m3126 -33 l8 -48 9 38 c13 52 30 48 22 -5 -17 -114 -26 -125 -47 -55 l-12 42 -4 -32 c-2 -18 -8 -33 -14 -33 -7 0 -9 18 -4 53 3 28 6 60 6 70 0 9 6 17 14 17 10 0 17 -16 22 -47z m-3208 -55 c-2 -39 -8 -73 -13 -75 -15 -5 -78 114 -65 122 14 8 12 10 39 -40 l21 -40 -1 45 c-1 58 -1 60 11 60 7 0 10 -27 8 -72z m3326 40 c3 -13 8 -49 11 -80 7 -61 -4 -76 -23 -33 -13 29 -27 32 -40 9 -17 -31 -22 4 -6 42 9 22 20 49 25 62 5 12 13 22 19 22 5 0 12 -10 14 -22z m-3401 -70 c10 -37 11 -60 5 -64 -5 -3 -11 -4 -12 -3 -8 10 -33 129 -28 134 10 10 20 -9 35 -67z m-39 -6 c20 -71 20 -72 1 -72 -8 0 -22 11 -31 25 -21 32 -26 28 -15 -13 7 -24 6 -32 -3 -32 -7 0 -18 24 -26 53 -7 28 -15 58 -17 65 -9 23 25 12 46 -15 l21 -28 -6 38 c-10 59 11 44 30 -21z m-94 -25 c17 -64 11 -91 -23 -95 -23 -3 -30 2 -42 30 -22 55 -29 88 -16 88 6 0 14 -8 18 -17 23 -68 34 -86 44 -76 7 7 6 26 -4 61 -15 47 -13 67 3 57 4 -2 13 -24 20 -48z m1908 -31 c1 -2 -2 -86 -7 -187 -8 -183 -8 -184 14 -209 32 -36 38 -64 21 -98 -21 -41 -67 -56 -111 -38 -60 25 -71 75 -28 126 l26 31 -7 196 -7 195 48 -7 c26 -4 49 -8 51 -9z"/>
    <path d="M4627 4824 c-4 -4 -7 -14 -7 -23 0 -13 2 -13 9 -3 6 10 10 8 14 -10 10 -36 8 -48 -8 -48 -9 0 -15 10 -16 23 -1 21 -1 21 -9 -3 -9 -28 -12 -63 -3 -42 8 20 51 14 58 -9 4 -11 9 -19 11 -17 5 5 -27 120 -36 131 -3 4 -9 4 -13 1z"/>
    <path d="M4702 4758 c0 -40 3 -58 5 -40 6 42 36 44 53 2 7 -16 16 -30 21 -30 5 0 2 14 -6 31 -12 23 -14 34 -5 44 6 8 10 24 8 37 -2 19 -10 24 -40 26 l-38 3 2 -73z m66 36 c2 -15 -4 -23 -19 -27 -30 -8 -39 -1 -39 29 0 22 4 25 28 22 19 -2 28 -9 30 -24z"/>
    <path d="M4817 4824 c-18 -18 -6 -55 21 -67 15 -6 30 -16 34 -22 5 -6 8 -3 8 7 0 9 -13 21 -30 27 -32 11 -40 38 -14 48 11 4 22 -1 31 -13 14 -19 15 -19 11 1 -3 20 -46 33 -61 19z"/>
    <path d="M4970 4760 l0 -70 43 2 42 1 -38 4 c-35 4 -38 7 -35 31 2 21 10 28 33 33 l30 7 -32 1 c-28 1 -33 5 -33 25 0 20 6 25 33 29 31 4 31 4 -5 5 l-38 2 0 -70z"/>
    <path d="M5077 4823 c20 -4 22 -12 26 -71 l3 -67 2 67 c2 54 5 67 20 71 9 3 -3 5 -28 4 -25 0 -35 -2 -23 -4z"/>
    <path d="M5235 4821 c-3 -7 0 -8 10 -5 8 4 23 0 32 -7 14 -12 16 -12 11 1 -6 18 -43 26 -53 11z"/>
    <path d="M5330 4799 c-20 -47 -3 -103 32 -107 20 -2 30 3 38 20 10 21 10 22 -4 5 -32 -40 -77 8 -62 67 9 35 32 43 58 20 21 -19 21 -19 9 4 -18 34 -56 29 -71 -9z"/>
    <path d="M5443 4760 c0 -41 2 -58 4 -37 2 20 2 54 0 75 -2 20 -4 3 -4 -38z"/>
    <path d="M5480 4760 l0 -70 38 2 c36 1 36 1 5 5 -29 4 -33 8 -33 33 0 25 4 29 33 33 l32 4 -32 1 c-28 2 -33 6 -33 26 0 20 6 25 33 29 31 4 31 4 -5 5 l-38 2 0 -70z"/>
    <path d="M5582 4758 l1 -73 6 54 6 55 24 -52 c14 -29 28 -52 33 -52 4 0 7 33 6 73 l-1 72 -6 -60 -6 -60 -27 58 c-15 31 -29 57 -32 57 -4 0 -5 -33 -4 -72z"/>
    <path d="M5693 4823 c14 -4 17 -17 19 -71 l1 -67 6 64 c5 52 10 66 26 72 14 5 6 7 -25 7 -25 0 -37 -2 -27 -5z"/>
    <path d="M5783 4760 c0 -41 2 -58 4 -37 2 20 2 54 0 75 -2 20 -4 3 -4 -38z"/>
    <path d="M5845 4810 c-4 -12 -4 -24 -1 -27 3 -4 6 2 6 13 0 16 2 17 10 4 15 -23 12 -60 -4 -60 -8 0 -16 8 -18 18 -2 10 -8 -1 -15 -25 -6 -24 -7 -40 -2 -37 5 3 9 12 9 20 0 24 49 17 60 -8 14 -37 11 -11 -6 50 -19 68 -30 82 -39 52z"/>
    <path d="M5227 4784 c3 -8 19 -22 35 -30 18 -9 28 -22 26 -32 -5 -24 -39 -27 -56 -6 -14 18 -14 18 -8 1 3 -10 6 -21 6 -23 0 -2 13 -4 29 -4 31 0 47 24 36 51 -8 20 -75 62 -68 43z"/>
    <path d="M4812 4715 c2 -15 11 -20 32 -20 16 0 30 6 32 13 1 7 0 8 -3 2 -8 -16 -41 -12 -53 8 -10 15 -10 15 -8 -3z"/>
    <path d="M3972 4148 c2 -15 9 -22 21 -21 10 0 16 -1 13 -4 -7 -7 46 -49 56 -45 5 1 7 -4 6 -10 -2 -7 7 -14 20 -16 12 -2 22 -9 22 -15 0 -7 18 -22 40 -35 22 -12 40 -27 40 -31 0 -5 20 -22 45 -39 24 -16 42 -32 39 -35 -3 -3 11 -15 33 -26 21 -11 56 -36 78 -56 22 -20 50 -41 63 -46 12 -5 22 -17 22 -29 0 -12 7 -20 18 -20 9 0 -12 -11 -48 -24 -36 -12 -92 -37 -125 -53 -54 -28 -66 -30 -105 -22 -25 4 -49 8 -53 9 -5 0 -7 -15 -4 -33 4 -29 -3 -42 -41 -88 -24 -30 -58 -77 -74 -105 -25 -45 -34 -53 -73 -63 l-45 -11 0 -59 c0 -57 1 -61 40 -91 21 -17 49 -51 61 -76 13 -24 31 -52 41 -61 14 -12 18 -31 18 -85 l0 -68 65 0 c54 0 73 -5 108 -27 23 -15 45 -31 48 -36 3 -4 26 14 51 41 39 41 47 56 53 102 3 30 8 62 11 70 3 11 -13 24 -51 43 -30 15 -55 30 -55 35 0 7 274 102 294 102 4 0 -40 -93 -98 -206 -106 -205 -118 -244 -78 -244 13 0 48 62 126 218 l108 217 87 1 88 2 84 -169 c46 -93 89 -169 96 -169 7 0 17 9 23 19 8 16 -5 50 -71 181 -44 90 -79 164 -77 165 2 2 80 -34 173 -80 l170 -82 -37 -17 c-21 -9 -44 -16 -53 -16 -12 0 -15 -14 -15 -74 l0 -75 55 -31 56 -32 35 27 c36 28 59 29 142 8 21 -5 22 -2 22 44 0 41 5 54 26 74 15 13 40 42 56 64 21 28 43 45 76 56 l47 16 3 55 3 55 -45 29 c-51 32 -55 47 -26 84 20 25 26 82 14 128 -5 19 -13 22 -53 22 -42 0 -53 5 -106 51 -33 28 -75 58 -93 67 -23 11 -32 22 -30 36 3 18 -3 21 -42 22 -25 0 -84 13 -132 29 -70 22 -88 31 -88 46 0 11 6 19 13 19 12 0 132 90 177 133 14 13 40 35 58 48 18 13 30 29 28 36 -3 7 -2 12 2 11 4 -1 24 4 45 11 40 13 48 34 20 50 -10 6 -13 11 -6 11 6 0 15 -4 18 -10 10 -15 28 -12 22 4 -3 8 1 20 9 26 10 9 14 9 14 1 0 -6 -5 -11 -11 -11 -5 0 -7 -5 -3 -11 5 -8 10 -6 16 5 5 9 16 16 23 16 8 0 15 4 15 8 0 5 16 16 35 25 32 15 34 19 25 38 -7 12 -17 18 -27 15 -8 -3 -17 -6 -19 -6 -3 0 -2 -6 1 -12 4 -7 0 -5 -8 5 -9 11 -18 14 -21 8 -4 -6 -24 -16 -46 -22 -28 -9 -37 -16 -33 -28 4 -12 3 -13 -5 -3 -6 9 -18 11 -38 6 -40 -10 -85 -39 -76 -49 4 -5 1 -5 -6 -1 -20 12 -81 -15 -75 -33 5 -13 3 -14 -8 -3 -19 18 -34 15 -48 -10 -7 -13 -9 -15 -6 -5 4 16 2 16 -25 -3 -17 -12 -28 -26 -24 -31 3 -5 0 -8 -8 -7 -7 2 -12 -3 -10 -10 1 -8 -2 -11 -8 -7 -18 11 -134 -120 -123 -139 3 -6 3 -8 -2 -4 -8 7 -55 -40 -55 -54 0 -5 -52 -8 -115 -8 -123 0 -114 -4 -163 60 -18 22 -22 23 -38 10 -16 -12 -17 -12 -6 0 17 20 15 43 -4 36 -9 -3 -12 -2 -9 5 4 6 -1 19 -11 30 -17 19 -19 19 -31 3 -16 -22 -17 -10 -2 18 10 18 9 20 -5 15 -10 -4 -15 -3 -11 3 8 13 -19 40 -38 40 -9 0 -17 -6 -20 -12 -3 -7 -4 -3 -4 9 1 12 6 19 12 16 5 -4 -1 6 -14 20 -14 15 -32 27 -41 27 -9 0 -21 5 -28 12 -9 9 -12 9 -12 -3 0 -11 -2 -12 -9 0 -11 17 -121 62 -134 54 -6 -3 -7 -1 -3 5 7 11 -7 16 -41 15 -7 -1 -10 3 -7 8 5 8 -16 13 -42 10 -6 -1 -17 6 -24 14 -9 11 -16 12 -25 5 -10 -8 -15 -8 -21 1 -5 8 -3 9 6 4 8 -5 11 -4 7 1 -3 6 -22 11 -42 12 -33 2 -36 0 -33 -20z m268 -162 c0 -2 -7 -7 -16 -10 -8 -3 -12 -2 -9 4 6 10 25 14 25 6z m855 -46 c3 -5 1 -10 -4 -10 -6 0 -11 5 -11 10 0 6 2 10 4 10 3 0 8 -4 11 -10z m-755 -20 c0 -5 -8 -10 -17 -10 -15 0 -16 2 -3 10 19 12 20 12 20 0z m895 0 c3 -6 -1 -7 -9 -4 -18 7 -21 14 -7 14 6 0 13 -4 16 -10z m-94 -37 c13 -16 12 -17 -3 -4 -10 7 -18 15 -18 17 0 8 8 3 21 -13z m-27 -42 c4 -5 -3 -7 -14 -4 -23 6 -26 13 -6 13 8 0 17 -4 20 -9z m-334 -238 c0 -5 -5 -15 -11 -23 -8 -11 -12 -12 -16 -2 -2 6 -9 10 -14 7 -5 -4 -6 1 -3 9 6 16 44 23 44 9z m303 -33 c53 -17 99 -34 101 -39 5 -7 -245 -91 -271 -91 -6 0 -13 -9 -16 -20 -17 -64 -279 -68 -303 -5 -4 9 -1 22 6 28 9 9 11 9 6 0 -21 -38 34 -63 141 -63 89 0 147 22 140 52 -3 11 -1 16 6 12 7 -3 3 2 -7 10 -12 9 -28 13 -39 10 -13 -4 -17 -2 -13 5 4 6 2 11 -4 11 -8 0 -8 6 0 20 6 11 16 20 23 20 19 0 57 66 45 78 -19 19 88 3 185 -28z m-456 5 c-1 -5 3 -9 10 -8 7 2 10 -3 7 -11 -3 -8 4 -16 18 -19 30 -8 36 -57 6 -57 -11 0 -16 -4 -12 -11 4 -8 -1 -9 -17 -4 -46 13 -179 67 -184 75 -5 8 129 48 157 47 9 -1 16 -6 15 -12z m263 5 c0 -5 -2 -10 -4 -10 -3 0 -8 5 -11 10 -3 6 -1 10 4 10 6 0 11 -4 11 -10z m-15 -20 c3 -6 -1 -7 -9 -4 -18 7 -21 14 -7 14 6 0 13 -4 16 -10z m-40 -20 c3 -6 -1 -7 -9 -4 -18 7 -21 14 -7 14 6 0 13 -4 16 -10z m-410 -135 c72 -30 128 -54 125 -55 -3 0 -84 -22 -180 -50 -96 -27 -178 -50 -182 -50 -15 0 -8 65 11 105 21 47 68 105 84 105 7 -1 71 -25 142 -55z m977 -12 c44 -48 51 -70 38 -117 -6 -22 -20 -52 -30 -66 l-18 -24 -171 69 c-94 38 -169 70 -167 72 5 6 291 91 307 92 8 1 27 -11 41 -26z"/>
    <path d="M4240 2045 c0 -8 7 -15 15 -15 8 0 15 7 15 15 0 8 -7 15 -15 15 -8 0 -15 -7 -15 -15z"/>
    <path d="M4346 2021 c-4 -7 -5 -15 -2 -18 9 -9 19 4 14 18 -4 11 -6 11 -12 0z"/>
    <path d="M5320 2015 c0 -8 4 -15 10 -15 5 0 7 7 4 15 -4 8 -8 15 -10 15 -2 0 -4 -7 -4 -15z"/>
    <path d="M4060 2011 c0 -30 4 -41 16 -41 11 0 14 9 12 37 -4 52 -28 56 -28 4z"/>
    <path d="M5606 2005 c-3 -8 -1 -15 4 -15 6 0 10 7 10 15 0 8 -2 15 -4 15 -2 0 -6 -7 -10 -15z"/>
    <path d="M3665 1978 c8 -50 12 -55 26 -41 17 17 7 77 -15 81 -16 3 -17 -1 -11 -40z"/>
    <path d="M4720 1970 c0 -34 3 -41 18 -38 12 2 17 13 17 38 0 25 -5 36 -17 38 -15 3 -18 -4 -18 -38z"/>
    <path d="M5896 1965 c-3 -8 -1 -15 4 -15 6 0 10 7 10 15 0 8 -2 15 -4 15 -2 0 -6 -7 -10 -15z"/>
    <path d="M3580 1965 c0 -8 4 -15 10 -15 5 0 7 7 4 15 -4 8 -8 15 -10 15 -2 0 -4 -7 -4 -15z"/>
    <path d="M3474 1965 c3 -9 6 -28 6 -41 0 -15 6 -24 16 -24 24 0 15 74 -10 78 -14 3 -17 0 -12 -13z"/>
    <path d="M6172 1934 c1 -9 9 -19 16 -22 9 -3 13 2 10 14 -1 9 -9 19 -16 22 -9 3 -13 -2 -10 -14z"/>
    <path d="M3255 1920 c-3 -6 1 -13 10 -16 19 -8 30 0 20 15 -8 14 -22 14 -30 1z"/>
    <path d="M6427 1835 c-4 -8 -2 -17 3 -20 6 -4 10 3 10 14 0 25 -6 27 -13 6z"/>
  </g>
</svg>